<svg id="svg" version="1.1" xmlns="http://www.w3.org/2000/svg" xmlns:xlink="http://www.w3.org/1999/xlink" width="400" height="122.62295081967213" viewBox="0, 0, 400,122.62295081967213"><g id="svgg"><path id="path0" d="M147.167 2.647 C 147.167 2.821,147.018 3.000,146.833 3.048 C 146.578 3.115,146.500 3.276,146.500 3.734 C 146.500 4.135,146.423 4.333,146.268 4.333 C 145.999 4.333,145.833 4.688,145.833 5.264 C 145.833 5.496,145.736 5.667,145.602 5.667 C 145.469 5.667,145.323 5.918,145.259 6.259 C 145.198 6.584,145.040 6.892,144.907 6.943 C 144.765 6.998,144.667 7.259,144.667 7.582 C 144.667 7.988,144.581 8.150,144.333 8.215 C 144.079 8.281,144.000 8.442,144.000 8.890 C 144.000 9.331,143.917 9.504,143.667 9.583 C 143.425 9.660,143.333 9.836,143.333 10.221 C 143.333 10.573,143.220 10.824,143.000 10.961 C 142.797 11.088,142.667 11.350,142.667 11.631 C 142.667 11.886,142.518 12.220,142.333 12.378 C 142.150 12.535,142.000 12.852,142.000 13.082 C 142.000 13.312,141.850 13.650,141.667 13.833 C 141.465 14.035,141.333 14.389,141.333 14.731 C 141.333 15.154,141.250 15.316,141.000 15.382 C 140.747 15.448,140.667 15.609,140.667 16.048 C 140.667 16.488,140.586 16.649,140.333 16.715 C 140.078 16.782,140.000 16.942,140.000 17.401 C 140.000 17.889,139.938 18.000,139.667 18.000 C 139.391 18.000,139.333 18.111,139.333 18.647 C 139.333 19.154,139.261 19.313,139.000 19.382 C 138.745 19.448,138.667 19.609,138.667 20.068 C 138.667 20.556,138.605 20.667,138.333 20.667 C 138.057 20.667,138.000 20.778,138.000 21.314 C 138.000 21.821,137.928 21.980,137.667 22.048 C 137.414 22.114,137.333 22.276,137.333 22.715 C 137.333 23.154,137.253 23.316,137.000 23.382 C 136.745 23.448,136.667 23.609,136.667 24.068 C 136.667 24.468,136.590 24.667,136.435 24.667 C 136.302 24.667,136.157 24.918,136.093 25.259 C 136.032 25.584,135.881 25.890,135.757 25.937 C 135.634 25.984,135.484 26.284,135.424 26.604 C 135.364 26.923,135.207 27.226,135.074 27.277 C 134.931 27.332,134.833 27.594,134.833 27.923 C 134.833 28.331,134.745 28.505,134.500 28.583 C 134.253 28.662,134.167 28.836,134.167 29.255 C 134.167 29.651,134.066 29.875,133.833 30.000 C 133.615 30.117,133.500 30.349,133.500 30.673 C 133.500 30.944,133.350 31.317,133.167 31.500 C 132.982 31.685,132.833 32.056,132.833 32.332 C 132.833 32.650,132.713 32.906,132.500 33.039 C 132.282 33.175,132.167 33.427,132.167 33.771 C 132.167 34.154,132.077 34.318,131.833 34.382 C 131.578 34.448,131.500 34.609,131.500 35.068 C 131.500 35.556,131.438 35.667,131.167 35.667 C 130.889 35.667,130.833 35.778,130.833 36.333 C 130.833 36.889,130.778 37.000,130.500 37.000 C 130.222 37.000,130.167 37.111,130.167 37.667 C 130.167 38.222,130.111 38.333,129.833 38.333 C 129.557 38.333,129.500 38.444,129.500 38.981 C 129.500 39.488,129.428 39.647,129.167 39.715 C 128.914 39.781,128.833 39.942,128.833 40.382 C 128.833 40.821,128.753 40.982,128.500 41.048 C 128.247 41.114,128.167 41.276,128.167 41.715 C 128.167 42.154,128.086 42.316,127.833 42.382 C 127.578 42.448,127.500 42.609,127.500 43.068 C 127.500 43.469,127.423 43.667,127.268 43.667 C 127.012 43.667,126.833 44.017,126.833 44.519 C 126.833 44.698,126.723 44.886,126.588 44.938 C 126.453 44.990,126.293 45.293,126.233 45.613 C 126.174 45.932,126.027 46.231,125.908 46.276 C 125.789 46.322,125.643 46.648,125.583 47.000 C 125.524 47.352,125.368 47.682,125.238 47.732 C 125.104 47.783,125.000 48.045,125.000 48.328 C 125.000 48.611,124.853 48.980,124.667 49.167 C 124.482 49.351,124.333 49.722,124.333 49.999 C 124.333 50.317,124.213 50.573,124.000 50.705 C 123.763 50.854,123.667 51.094,123.667 51.540 C 123.667 52.056,123.608 52.167,123.333 52.167 C 123.066 52.167,123.000 52.278,123.000 52.731 C 123.000 53.154,122.917 53.316,122.667 53.382 C 122.411 53.448,122.333 53.609,122.333 54.068 C 122.333 54.556,122.271 54.667,122.000 54.667 C 121.722 54.667,121.667 54.778,121.667 55.333 C 121.667 55.889,121.611 56.000,121.333 56.000 C 121.056 56.000,121.000 56.111,121.000 56.667 C 121.000 57.222,120.944 57.333,120.667 57.333 C 120.389 57.333,120.333 57.444,120.333 58.000 C 120.333 58.556,120.278 58.667,120.000 58.667 C 119.724 58.667,119.667 58.778,119.667 59.314 C 119.667 59.821,119.594 59.980,119.333 60.048 C 119.081 60.114,119.000 60.276,119.000 60.715 C 119.000 61.154,118.919 61.316,118.667 61.382 C 118.411 61.448,118.333 61.609,118.333 62.068 C 118.333 62.469,118.257 62.667,118.101 62.667 C 117.832 62.667,117.667 63.022,117.667 63.597 C 117.667 63.843,117.570 64.000,117.419 64.000 C 117.258 64.000,117.133 64.235,117.064 64.667 C 117.000 65.065,116.866 65.333,116.731 65.333 C 116.596 65.333,116.461 65.599,116.399 65.990 C 116.341 66.351,116.197 66.683,116.079 66.728 C 115.961 66.774,115.811 67.060,115.744 67.364 C 115.678 67.668,115.521 68.065,115.395 68.245 C 115.270 68.426,115.167 68.739,115.167 68.940 C 115.167 69.480,114.995 69.833,114.732 69.833 C 114.577 69.833,114.500 70.031,114.500 70.432 C 114.500 70.891,114.422 71.052,114.167 71.118 C 113.919 71.183,113.833 71.346,113.833 71.750 C 113.833 72.154,113.748 72.317,113.500 72.382 C 113.245 72.448,113.167 72.609,113.167 73.068 C 113.167 73.556,113.105 73.667,112.833 73.667 C 112.556 73.667,112.500 73.778,112.500 74.333 C 112.500 74.889,112.444 75.000,112.167 75.000 C 111.889 75.000,111.833 75.111,111.833 75.667 C 111.833 76.222,111.778 76.333,111.500 76.333 C 111.222 76.333,111.167 76.444,111.167 77.000 C 111.167 77.556,111.111 77.667,110.833 77.667 C 110.557 77.667,110.500 77.778,110.500 78.314 C 110.500 78.821,110.428 78.980,110.167 79.048 C 109.914 79.114,109.833 79.276,109.833 79.715 C 109.833 80.154,109.753 80.316,109.500 80.382 C 109.245 80.448,109.167 80.609,109.167 81.068 C 109.167 81.469,109.090 81.667,108.934 81.667 C 108.666 81.667,108.500 82.022,108.500 82.597 C 108.500 82.839,108.403 83.000,108.258 83.000 C 108.111 83.000,107.970 83.239,107.901 83.606 C 107.839 83.940,107.648 84.352,107.477 84.523 C 107.306 84.694,107.167 85.007,107.167 85.219 C 107.167 85.430,107.017 85.765,106.833 85.962 C 106.650 86.158,106.500 86.545,106.500 86.821 C 106.500 87.151,106.387 87.382,106.167 87.500 C 105.932 87.626,105.833 87.849,105.833 88.256 C 105.833 88.637,105.755 88.833,105.602 88.833 C 105.469 88.833,105.323 89.085,105.259 89.425 C 105.198 89.751,105.040 90.059,104.907 90.110 C 104.763 90.165,104.667 90.429,104.667 90.768 C 104.667 91.222,104.601 91.333,104.333 91.333 C 104.056 91.333,104.000 91.444,104.000 92.000 C 104.000 92.556,103.944 92.667,103.667 92.667 C 103.389 92.667,103.333 92.778,103.333 93.333 C 103.333 93.889,103.278 94.000,103.000 94.000 C 102.722 94.000,102.667 94.111,102.667 94.667 C 102.667 95.222,102.611 95.333,102.333 95.333 C 102.056 95.333,102.000 95.444,102.000 96.000 C 102.000 96.556,101.944 96.667,101.667 96.667 C 101.391 96.667,101.333 96.778,101.333 97.314 C 101.333 97.821,101.261 97.980,101.000 98.048 C 100.747 98.114,100.667 98.276,100.667 98.715 C 100.667 99.154,100.586 99.316,100.333 99.382 C 100.078 99.448,100.000 99.609,100.000 100.068 C 100.000 100.469,99.923 100.667,99.768 100.667 C 99.499 100.667,99.333 101.022,99.333 101.597 C 99.333 101.843,99.237 102.000,99.085 102.000 C 98.925 102.000,98.800 102.234,98.732 102.659 C 98.674 103.021,98.486 103.446,98.313 103.602 C 98.122 103.774,98.000 104.109,98.000 104.458 C 98.000 104.891,97.918 105.053,97.667 105.118 C 97.408 105.186,97.333 105.346,97.333 105.833 C 97.333 106.321,97.259 106.481,97.000 106.548 C 96.747 106.614,96.667 106.776,96.667 107.215 C 96.667 107.654,96.586 107.816,96.333 107.882 C 96.094 107.944,96.000 108.109,96.000 108.467 C 96.000 108.747,95.895 109.005,95.759 109.057 C 95.627 109.108,95.469 109.410,95.409 109.730 C 95.350 110.049,95.195 110.351,95.067 110.400 C 94.928 110.453,94.833 110.727,94.833 111.078 C 94.833 111.556,94.770 111.667,94.500 111.667 C 94.222 111.667,94.167 111.778,94.167 112.333 C 94.167 112.889,94.111 113.000,93.833 113.000 C 93.556 113.000,93.500 113.111,93.500 113.667 C 93.500 114.222,93.444 114.333,93.167 114.333 C 92.889 114.333,92.833 114.444,92.833 115.000 C 92.833 115.556,92.778 115.667,92.500 115.667 C 92.190 115.667,92.167 115.778,92.167 117.250 L 92.167 118.833 120.000 118.833 L 147.833 118.833 147.833 118.250 L 147.833 117.667 121.000 117.667 C 95.501 117.667,94.167 117.652,94.167 117.373 C 94.167 117.212,94.317 116.987,94.500 116.872 C 94.708 116.742,94.833 116.483,94.833 116.183 C 94.833 115.909,94.941 115.661,95.083 115.606 C 95.238 115.547,95.333 115.293,95.333 114.941 C 95.333 114.512,95.415 114.351,95.667 114.285 C 95.919 114.219,96.000 114.058,96.000 113.618 C 96.000 113.179,96.081 113.018,96.333 112.952 C 96.586 112.886,96.667 112.724,96.667 112.285 C 96.667 111.846,96.747 111.684,97.000 111.618 C 97.250 111.553,97.333 111.391,97.333 110.972 C 97.333 110.594,97.441 110.346,97.667 110.205 C 97.855 110.088,98.000 109.817,98.000 109.582 C 98.000 109.354,98.150 109.017,98.333 108.833 C 98.517 108.650,98.667 108.293,98.667 108.040 C 98.667 107.761,98.797 107.498,99.000 107.372 C 99.243 107.220,99.333 106.983,99.333 106.499 C 99.333 105.944,99.389 105.833,99.667 105.833 C 99.944 105.833,100.000 105.722,100.000 105.167 C 100.000 104.611,100.056 104.500,100.333 104.500 C 100.611 104.500,100.667 104.389,100.667 103.833 C 100.667 103.278,100.722 103.167,101.000 103.167 C 101.278 103.167,101.333 103.056,101.333 102.500 C 101.333 101.944,101.389 101.833,101.667 101.833 C 101.943 101.833,102.000 101.722,102.000 101.186 C 102.000 100.679,102.072 100.520,102.333 100.452 C 102.586 100.386,102.667 100.224,102.667 99.785 C 102.667 99.346,102.747 99.184,103.000 99.118 C 103.236 99.057,103.333 98.891,103.333 98.553 C 103.333 98.280,103.477 97.951,103.667 97.789 C 103.850 97.632,104.000 97.353,104.000 97.168 C 104.000 96.984,104.150 96.683,104.333 96.500 C 104.517 96.317,104.667 95.987,104.667 95.768 C 104.667 95.548,104.779 95.326,104.917 95.273 C 105.071 95.214,105.167 94.960,105.167 94.608 C 105.167 94.179,105.249 94.017,105.500 93.952 C 105.754 93.885,105.833 93.724,105.833 93.277 C 105.833 92.836,105.916 92.663,106.167 92.583 C 106.408 92.507,106.500 92.331,106.500 91.946 C 106.500 91.594,106.613 91.343,106.833 91.205 C 107.056 91.067,107.167 90.817,107.167 90.455 C 107.167 90.094,107.278 89.844,107.500 89.705 C 107.733 89.560,107.833 89.317,107.833 88.900 C 107.833 88.442,107.912 88.282,108.167 88.215 C 108.428 88.147,108.500 87.988,108.500 87.481 C 108.500 86.944,108.557 86.833,108.833 86.833 C 109.111 86.833,109.167 86.722,109.167 86.167 C 109.167 85.611,109.222 85.500,109.500 85.500 C 109.778 85.500,109.833 85.389,109.833 84.833 C 109.833 84.278,109.889 84.167,110.167 84.167 C 110.444 84.167,110.500 84.056,110.500 83.500 C 110.500 82.944,110.556 82.833,110.833 82.833 C 111.111 82.833,111.167 82.722,111.167 82.167 C 111.167 81.611,111.222 81.500,111.500 81.500 C 111.778 81.500,111.833 81.389,111.833 80.833 C 111.833 80.278,111.889 80.167,112.167 80.167 C 112.432 80.167,112.500 80.056,112.500 79.620 C 112.500 79.280,112.626 78.966,112.833 78.789 C 113.017 78.632,113.167 78.323,113.167 78.103 C 113.167 77.883,113.275 77.661,113.407 77.610 C 113.540 77.559,113.697 77.256,113.757 76.937 C 113.817 76.618,113.967 76.318,114.091 76.270 C 114.214 76.223,114.364 75.923,114.424 75.604 C 114.484 75.284,114.638 74.983,114.766 74.933 C 114.901 74.882,115.000 74.612,115.000 74.295 C 115.000 73.927,115.110 73.678,115.333 73.539 C 115.546 73.406,115.667 73.150,115.667 72.832 C 115.667 72.556,115.815 72.185,116.000 72.000 C 116.190 71.810,116.333 71.444,116.333 71.151 C 116.333 70.776,116.424 70.612,116.667 70.548 C 116.926 70.481,117.000 70.321,117.000 69.833 C 117.000 69.346,117.074 69.186,117.333 69.118 C 117.589 69.052,117.667 68.891,117.667 68.432 C 117.667 67.944,117.729 67.833,118.000 67.833 C 118.278 67.833,118.333 67.722,118.333 67.167 C 118.333 66.611,118.389 66.500,118.667 66.500 C 118.944 66.500,119.000 66.389,119.000 65.833 C 119.000 65.278,119.056 65.167,119.333 65.167 C 119.611 65.167,119.667 65.056,119.667 64.500 C 119.667 63.944,119.722 63.833,120.000 63.833 C 120.278 63.833,120.333 63.722,120.333 63.167 C 120.333 62.611,120.389 62.500,120.667 62.500 C 120.944 62.500,121.000 62.389,121.000 61.833 C 121.000 61.346,121.069 61.167,121.255 61.167 C 121.396 61.167,121.554 61.054,121.606 60.917 C 121.691 60.697,123.308 60.667,134.768 60.667 L 147.833 60.667 147.833 60.000 L 147.833 59.333 135.083 59.333 C 121.192 59.333,121.607 59.363,122.667 58.455 C 122.850 58.298,123.000 57.979,123.000 57.746 C 123.000 57.513,123.110 57.280,123.245 57.229 C 123.380 57.177,123.540 56.873,123.600 56.554 C 123.660 56.235,123.810 55.935,123.933 55.887 C 124.057 55.840,124.207 55.536,124.268 55.211 C 124.329 54.887,124.519 54.481,124.689 54.311 C 124.860 54.140,125.002 53.831,125.005 53.625 C 125.008 53.419,125.121 53.104,125.255 52.926 C 125.390 52.749,125.500 52.355,125.500 52.051 C 125.500 51.611,125.567 51.500,125.833 51.500 C 126.109 51.500,126.167 51.389,126.167 50.853 C 126.167 50.346,126.239 50.187,126.500 50.118 C 126.755 50.052,126.833 49.891,126.833 49.432 C 126.833 48.944,126.895 48.833,127.167 48.833 C 127.444 48.833,127.500 48.722,127.500 48.167 C 127.500 47.611,127.556 47.500,127.833 47.500 C 128.111 47.500,128.167 47.389,128.167 46.833 C 128.167 46.278,128.222 46.167,128.500 46.167 C 128.778 46.167,128.833 46.056,128.833 45.500 C 128.833 44.944,128.889 44.833,129.167 44.833 C 129.444 44.833,129.500 44.722,129.500 44.167 C 129.500 43.611,129.556 43.500,129.833 43.500 C 130.103 43.500,130.167 43.389,130.167 42.923 C 130.167 42.516,130.265 42.292,130.500 42.167 C 130.731 42.043,130.833 41.818,130.833 41.430 C 130.833 41.012,130.917 40.850,131.167 40.785 C 131.402 40.723,131.500 40.558,131.500 40.219 C 131.500 39.947,131.644 39.618,131.833 39.455 C 132.017 39.298,132.167 38.979,132.167 38.746 C 132.167 38.513,132.277 38.280,132.412 38.229 C 132.547 38.177,132.707 37.869,132.768 37.544 C 132.829 37.220,133.019 36.815,133.189 36.644 C 133.360 36.473,133.500 36.160,133.500 35.948 C 133.500 35.736,133.650 35.402,133.833 35.205 C 134.017 35.008,134.167 34.700,134.167 34.521 C 134.167 34.017,134.345 33.667,134.601 33.667 C 134.755 33.667,134.833 33.471,134.833 33.083 C 134.833 32.676,134.909 32.500,135.083 32.500 C 135.264 32.500,135.333 32.315,135.333 31.833 C 135.333 31.278,135.389 31.167,135.667 31.167 C 135.944 31.167,136.000 31.056,136.000 30.500 C 136.000 29.944,136.056 29.833,136.333 29.833 C 136.611 29.833,136.667 29.722,136.667 29.167 C 136.667 28.611,136.722 28.500,137.000 28.500 C 137.278 28.500,137.333 28.389,137.333 27.833 C 137.333 27.278,137.389 27.167,137.667 27.167 C 137.944 27.167,138.000 27.056,138.000 26.500 C 138.000 25.944,138.056 25.833,138.333 25.833 C 138.611 25.833,138.667 25.722,138.667 25.167 C 138.667 24.611,138.722 24.500,139.000 24.500 C 139.278 24.500,139.333 24.389,139.333 23.833 C 139.333 23.278,139.389 23.167,139.667 23.167 C 139.943 23.167,140.000 23.056,140.000 22.519 C 140.000 22.012,140.072 21.853,140.333 21.785 C 140.569 21.723,140.667 21.558,140.667 21.219 C 140.667 20.947,140.810 20.618,141.000 20.455 C 141.196 20.287,141.333 19.964,141.333 19.668 C 141.333 19.335,141.417 19.167,141.581 19.167 C 141.741 19.167,141.867 18.933,141.935 18.508 C 141.993 18.145,142.181 17.721,142.353 17.565 C 142.526 17.409,142.667 17.112,142.667 16.904 C 142.667 16.354,142.837 16.000,143.101 16.000 C 143.261 16.000,143.333 15.792,143.333 15.333 C 143.333 14.778,143.389 14.667,143.667 14.667 C 143.934 14.667,144.000 14.556,144.000 14.103 C 144.000 13.679,144.083 13.517,144.333 13.452 C 144.589 13.385,144.667 13.224,144.667 12.766 C 144.667 12.344,144.741 12.167,144.917 12.167 C 145.097 12.167,145.167 11.981,145.167 11.500 C 145.167 10.944,145.222 10.833,145.500 10.833 C 145.778 10.833,145.833 10.722,145.833 10.167 C 145.833 9.611,145.889 9.500,146.167 9.500 C 146.444 9.500,146.500 9.389,146.500 8.833 C 146.500 8.278,146.556 8.167,146.833 8.167 C 147.111 8.167,147.167 8.056,147.167 7.500 C 147.167 6.944,147.222 6.833,147.500 6.833 C 147.778 6.833,147.833 6.722,147.833 6.167 C 147.833 5.611,147.889 5.500,148.167 5.500 C 148.460 5.500,148.500 5.389,148.500 4.584 L 148.500 3.668 176.042 3.625 L 203.583 3.583 203.635 2.958 L 203.687 2.333 175.427 2.333 C 147.861 2.333,147.167 2.341,147.167 2.647 M76.333 3.667 C 76.333 4.125,76.261 4.333,76.101 4.333 C 75.850 4.333,75.667 4.682,75.667 5.162 C 75.667 5.328,75.554 5.508,75.417 5.560 C 75.260 5.620,75.167 5.875,75.167 6.245 C 75.167 6.722,75.104 6.833,74.833 6.833 C 74.556 6.833,74.500 6.944,74.500 7.500 C 74.500 8.056,74.444 8.167,74.167 8.167 C 73.908 8.167,73.833 8.278,73.833 8.665 C 73.833 8.983,73.713 9.239,73.500 9.372 C 73.317 9.487,73.167 9.712,73.167 9.873 C 73.167 10.035,73.017 10.317,72.833 10.500 C 72.650 10.683,72.500 10.967,72.500 11.130 C 72.500 11.293,72.350 11.554,72.167 11.711 C 71.983 11.868,71.833 12.167,71.833 12.375 C 71.833 12.583,71.683 12.847,71.500 12.961 C 71.292 13.091,71.167 13.350,71.167 13.649 C 71.167 13.988,71.069 14.153,70.833 14.215 C 70.581 14.281,70.500 14.442,70.500 14.882 C 70.500 15.321,70.419 15.482,70.167 15.548 C 69.932 15.610,69.833 15.776,69.833 16.111 C 69.833 16.406,69.707 16.666,69.500 16.795 C 69.292 16.924,69.167 17.183,69.167 17.482 C 69.167 17.821,69.069 17.987,68.833 18.048 C 68.581 18.114,68.500 18.276,68.500 18.715 C 68.500 19.154,68.419 19.316,68.167 19.382 C 67.914 19.448,67.833 19.609,67.833 20.048 C 67.833 20.488,67.753 20.649,67.500 20.715 C 67.247 20.781,67.167 20.942,67.167 21.382 C 67.167 21.821,67.086 21.982,66.833 22.048 C 66.578 22.115,66.500 22.276,66.500 22.734 C 66.500 23.135,66.423 23.333,66.268 23.333 C 66.016 23.333,65.833 23.682,65.833 24.162 C 65.833 24.328,65.730 24.504,65.604 24.552 C 65.478 24.601,65.325 24.909,65.263 25.237 C 65.196 25.596,65.055 25.833,64.909 25.833 C 64.737 25.833,64.667 26.028,64.667 26.500 C 64.667 27.056,64.611 27.167,64.333 27.167 C 64.056 27.167,64.000 27.278,64.000 27.833 C 64.000 28.389,63.944 28.500,63.667 28.500 C 63.408 28.500,63.333 28.611,63.333 28.999 C 63.333 29.317,63.213 29.573,63.000 29.705 C 62.817 29.820,62.667 30.045,62.667 30.207 C 62.667 30.368,62.517 30.650,62.333 30.833 C 62.150 31.017,62.000 31.279,62.000 31.417 C 62.000 31.554,61.850 31.817,61.667 32.000 C 61.483 32.183,61.333 32.521,61.333 32.750 C 61.333 32.995,61.238 33.167,61.101 33.167 C 60.835 33.167,60.667 33.521,60.667 34.078 C 60.667 34.321,60.545 34.493,60.333 34.548 C 60.098 34.610,60.000 34.776,60.000 35.111 C 60.000 35.406,59.873 35.666,59.667 35.795 C 59.454 35.927,59.333 36.183,59.333 36.501 C 59.333 36.816,59.248 37.000,59.101 37.000 C 58.835 37.000,58.667 37.354,58.667 37.911 C 58.667 38.154,58.545 38.326,58.333 38.382 C 58.081 38.448,58.000 38.609,58.000 39.048 C 58.000 39.488,57.919 39.649,57.667 39.715 C 57.414 39.781,57.333 39.942,57.333 40.382 C 57.333 40.821,57.253 40.982,57.000 41.048 C 56.747 41.114,56.667 41.276,56.667 41.715 C 56.667 42.154,56.586 42.316,56.333 42.382 C 56.094 42.444,56.000 42.609,56.000 42.967 C 56.000 43.240,55.897 43.504,55.771 43.552 C 55.645 43.601,55.492 43.909,55.430 44.237 C 55.363 44.596,55.222 44.833,55.076 44.833 C 54.904 44.833,54.833 45.028,54.833 45.500 C 54.833 46.056,54.778 46.167,54.500 46.167 C 54.222 46.167,54.167 46.278,54.167 46.833 C 54.167 47.389,54.111 47.500,53.833 47.500 C 53.556 47.500,53.500 47.611,53.500 48.167 C 53.500 48.722,53.444 48.833,53.167 48.833 C 52.908 48.833,52.833 48.944,52.833 49.332 C 52.833 49.650,52.713 49.906,52.500 50.039 C 52.317 50.153,52.167 50.379,52.167 50.540 C 52.167 50.701,52.017 50.983,51.833 51.167 C 51.650 51.350,51.500 51.612,51.500 51.750 C 51.500 51.887,51.350 52.150,51.167 52.333 C 50.983 52.517,50.833 52.854,50.833 53.083 C 50.833 53.328,50.738 53.500,50.601 53.500 C 50.347 53.500,50.167 53.850,50.167 54.341 C 50.167 54.514,50.017 54.735,49.833 54.833 C 49.625 54.945,49.500 55.182,49.500 55.466 C 49.500 55.739,49.367 56.003,49.167 56.128 C 48.954 56.261,48.833 56.517,48.833 56.835 C 48.833 57.150,48.748 57.333,48.601 57.333 C 48.335 57.333,48.167 57.687,48.167 58.244 C 48.167 58.488,48.045 58.660,47.833 58.715 C 47.581 58.781,47.500 58.942,47.500 59.382 C 47.500 59.821,47.419 59.982,47.167 60.048 C 46.911 60.115,46.833 60.276,46.833 60.734 C 46.833 61.135,46.757 61.333,46.601 61.333 C 46.350 61.333,46.167 61.682,46.167 62.162 C 46.167 62.328,46.058 62.506,45.926 62.557 C 45.793 62.608,45.635 62.916,45.574 63.241 C 45.510 63.582,45.365 63.833,45.231 63.833 C 45.073 63.833,45.000 64.042,45.000 64.500 C 45.000 65.056,44.944 65.167,44.667 65.167 C 44.389 65.167,44.333 65.278,44.333 65.833 C 44.333 66.389,44.278 66.500,44.000 66.500 C 43.722 66.500,43.667 66.611,43.667 67.167 C 43.667 67.722,43.611 67.833,43.333 67.833 C 43.056 67.833,43.000 67.944,43.000 68.500 C 43.000 69.056,42.944 69.167,42.667 69.167 C 42.408 69.167,42.333 69.278,42.333 69.665 C 42.333 69.983,42.213 70.239,42.000 70.372 C 41.817 70.487,41.667 70.732,41.667 70.917 C 41.667 71.102,41.517 71.347,41.333 71.461 C 41.150 71.576,41.000 71.819,41.000 72.001 C 41.000 72.184,40.850 72.483,40.667 72.667 C 40.483 72.850,40.333 73.187,40.333 73.417 C 40.333 73.662,40.238 73.833,40.101 73.833 C 39.854 73.833,39.667 74.181,39.667 74.640 C 39.667 74.794,39.517 75.013,39.333 75.128 C 39.121 75.261,39.000 75.517,39.000 75.835 C 39.000 76.150,38.915 76.333,38.768 76.333 C 38.499 76.333,38.333 76.688,38.333 77.264 C 38.333 77.497,38.236 77.667,38.101 77.667 C 37.832 77.667,37.667 78.022,37.667 78.597 C 37.667 78.830,37.569 79.000,37.434 79.000 C 37.166 79.000,37.000 79.355,37.000 79.930 C 37.000 80.164,36.902 80.333,36.768 80.333 C 36.516 80.333,36.333 80.682,36.333 81.162 C 36.333 81.328,36.225 81.506,36.093 81.557 C 35.960 81.608,35.802 81.916,35.741 82.241 C 35.677 82.582,35.531 82.833,35.398 82.833 C 35.239 82.833,35.167 83.042,35.167 83.500 C 35.167 84.056,35.111 84.167,34.833 84.167 C 34.556 84.167,34.500 84.278,34.500 84.833 C 34.500 85.389,34.444 85.500,34.167 85.500 C 33.889 85.500,33.833 85.611,33.833 86.167 C 33.833 86.722,33.778 86.833,33.500 86.833 C 33.222 86.833,33.167 86.944,33.167 87.500 C 33.167 88.056,33.111 88.167,32.833 88.167 C 32.556 88.167,32.500 88.278,32.500 88.833 C 32.500 89.389,32.444 89.500,32.167 89.500 C 31.908 89.500,31.833 89.611,31.833 89.994 C 31.833 90.318,31.718 90.550,31.500 90.667 C 31.317 90.765,31.167 91.012,31.167 91.216 C 31.167 91.420,31.017 91.680,30.833 91.795 C 30.650 91.909,30.500 92.152,30.500 92.335 C 30.500 92.517,30.350 92.817,30.167 93.000 C 29.983 93.183,29.833 93.467,29.833 93.630 C 29.833 93.793,29.683 94.054,29.500 94.211 C 29.317 94.368,29.167 94.667,29.167 94.875 C 29.167 95.083,29.017 95.347,28.833 95.461 C 28.621 95.594,28.500 95.850,28.500 96.168 C 28.500 96.483,28.415 96.667,28.268 96.667 C 27.999 96.667,27.833 97.022,27.833 97.597 C 27.833 97.830,27.736 98.000,27.601 98.000 C 27.332 98.000,27.167 98.355,27.167 98.930 C 27.167 99.164,27.069 99.333,26.934 99.333 C 26.683 99.333,26.500 99.682,26.500 100.162 C 26.500 100.328,26.392 100.506,26.259 100.557 C 26.127 100.608,25.968 100.916,25.907 101.241 C 25.846 101.567,25.702 101.833,25.586 101.833 C 25.470 101.833,25.328 102.131,25.269 102.500 C 25.200 102.931,25.075 103.167,24.915 103.167 C 24.736 103.167,24.667 103.354,24.667 103.833 C 24.667 104.389,24.611 104.500,24.333 104.500 C 24.056 104.500,24.000 104.611,24.000 105.167 C 24.000 105.722,23.944 105.833,23.667 105.833 C 23.389 105.833,23.333 105.944,23.333 106.500 C 23.333 107.056,23.278 107.167,23.000 107.167 C 22.722 107.167,22.667 107.278,22.667 107.833 C 22.667 108.389,22.611 108.500,22.333 108.500 C 22.066 108.500,22.000 108.611,22.000 109.064 C 22.000 109.488,21.917 109.649,21.667 109.715 C 21.421 109.779,21.333 109.942,21.333 110.333 C 21.333 110.724,21.245 110.888,21.000 110.952 C 20.816 111.000,20.667 111.179,20.667 111.353 C 20.667 111.525,20.517 111.817,20.333 112.000 C 20.150 112.183,20.000 112.483,20.000 112.667 C 20.000 112.850,19.850 113.150,19.667 113.333 C 19.483 113.517,19.333 113.779,19.333 113.917 C 19.333 114.054,19.183 114.317,19.000 114.500 C 18.817 114.683,18.667 115.021,18.667 115.250 C 18.667 115.494,18.571 115.667,18.436 115.667 C 18.143 115.667,18.005 116.183,18.002 117.292 L 18.000 118.167 19.000 118.167 L 20.000 118.167 20.000 117.603 C 20.000 117.179,20.083 117.017,20.333 116.952 C 20.586 116.886,20.667 116.724,20.667 116.285 C 20.667 115.846,20.747 115.684,21.000 115.618 C 21.253 115.552,21.333 115.391,21.333 114.952 C 21.333 114.512,21.414 114.351,21.667 114.285 C 21.919 114.219,22.000 114.058,22.000 113.618 C 22.000 113.179,22.081 113.018,22.333 112.952 C 22.579 112.888,22.667 112.724,22.667 112.333 C 22.667 111.942,22.755 111.779,23.000 111.715 C 23.206 111.661,23.333 111.488,23.333 111.262 C 23.333 111.061,23.483 110.735,23.667 110.538 C 23.850 110.342,24.000 110.096,24.000 109.992 C 24.000 109.888,24.150 109.612,24.333 109.379 C 24.517 109.146,24.667 108.823,24.667 108.662 C 24.667 108.501,24.779 108.326,24.917 108.273 C 25.071 108.214,25.167 107.960,25.167 107.608 C 25.167 107.179,25.249 107.017,25.500 106.952 C 25.741 106.889,25.833 106.724,25.833 106.360 C 25.833 106.002,25.930 105.825,26.167 105.750 C 26.412 105.672,26.500 105.498,26.500 105.092 C 26.500 104.679,26.585 104.517,26.833 104.452 C 27.086 104.386,27.167 104.224,27.167 103.785 C 27.167 103.346,27.247 103.184,27.500 103.118 C 27.755 103.052,27.833 102.891,27.833 102.432 C 27.833 101.944,27.895 101.833,28.167 101.833 C 28.444 101.833,28.500 101.722,28.500 101.167 C 28.500 100.611,28.556 100.500,28.833 100.500 C 29.111 100.500,29.167 100.389,29.167 99.833 C 29.167 99.278,29.222 99.167,29.500 99.167 C 29.769 99.167,29.833 99.056,29.833 98.595 C 29.833 98.169,29.919 97.995,30.167 97.917 C 30.412 97.839,30.500 97.664,30.500 97.258 C 30.500 96.846,30.585 96.683,30.833 96.618 C 31.086 96.552,31.167 96.391,31.167 95.952 C 31.167 95.512,31.247 95.351,31.500 95.285 C 31.755 95.218,31.833 95.058,31.833 94.599 C 31.833 94.111,31.895 94.000,32.167 94.000 C 32.444 94.000,32.500 93.889,32.500 93.333 C 32.500 92.778,32.556 92.667,32.833 92.667 C 33.105 92.667,33.167 92.556,33.167 92.068 C 33.167 91.609,33.245 91.448,33.500 91.382 C 33.706 91.328,33.833 91.154,33.833 90.929 C 33.833 90.727,33.983 90.402,34.167 90.205 C 34.350 90.008,34.500 89.741,34.500 89.611 C 34.500 89.481,34.612 89.281,34.750 89.167 C 34.887 89.053,35.000 88.752,35.000 88.499 C 35.000 88.179,35.102 88.012,35.333 87.952 C 35.579 87.888,35.667 87.724,35.667 87.333 C 35.667 86.942,35.755 86.779,36.000 86.715 C 36.248 86.650,36.333 86.488,36.333 86.083 C 36.333 85.679,36.419 85.516,36.667 85.452 C 36.919 85.386,37.000 85.224,37.000 84.785 C 37.000 84.346,37.081 84.184,37.333 84.118 C 37.589 84.052,37.667 83.891,37.667 83.432 C 37.667 82.944,37.729 82.833,38.000 82.833 C 38.278 82.833,38.333 82.722,38.333 82.167 C 38.333 81.611,38.389 81.500,38.667 81.500 C 38.944 81.500,39.000 81.389,39.000 80.833 C 39.000 80.278,39.056 80.167,39.333 80.167 C 39.602 80.167,39.667 80.056,39.667 79.595 C 39.667 79.169,39.752 78.995,40.000 78.917 C 40.245 78.839,40.333 78.664,40.333 78.258 C 40.333 77.846,40.418 77.683,40.667 77.618 C 40.919 77.552,41.000 77.391,41.000 76.952 C 41.000 76.512,41.081 76.351,41.333 76.285 C 41.589 76.218,41.667 76.058,41.667 75.599 C 41.667 75.111,41.729 75.000,42.000 75.000 C 42.276 75.000,42.333 74.889,42.333 74.353 C 42.333 73.846,42.406 73.687,42.667 73.618 C 42.922 73.552,43.000 73.391,43.000 72.932 C 43.000 72.444,43.062 72.333,43.333 72.333 C 43.575 72.333,43.667 72.222,43.667 71.930 C 43.667 71.355,43.832 71.000,44.101 71.000 C 44.234 71.000,44.333 70.832,44.333 70.609 C 44.333 70.394,44.483 70.083,44.667 69.917 C 44.850 69.751,45.000 69.509,45.000 69.379 C 45.000 69.249,45.112 69.030,45.250 68.893 C 45.387 68.755,45.500 68.432,45.500 68.174 C 45.500 67.846,45.600 67.679,45.833 67.618 C 46.074 67.555,46.167 67.391,46.167 67.027 C 46.167 66.669,46.263 66.492,46.500 66.417 C 46.745 66.339,46.833 66.164,46.833 65.758 C 46.833 65.346,46.918 65.183,47.167 65.118 C 47.419 65.052,47.500 64.891,47.500 64.452 C 47.500 64.012,47.581 63.851,47.833 63.785 C 48.089 63.718,48.167 63.558,48.167 63.099 C 48.167 62.611,48.229 62.500,48.500 62.500 C 48.778 62.500,48.833 62.389,48.833 61.833 C 48.833 61.278,48.889 61.167,49.167 61.167 C 49.435 61.167,49.500 61.056,49.500 60.595 C 49.500 60.169,49.585 59.995,49.833 59.917 C 50.078 59.839,50.167 59.664,50.167 59.258 C 50.167 58.846,50.251 58.683,50.500 58.618 C 50.753 58.552,50.833 58.391,50.833 57.952 C 50.833 57.512,50.914 57.351,51.167 57.285 C 51.422 57.218,51.500 57.058,51.500 56.599 C 51.500 56.111,51.562 56.000,51.833 56.000 C 52.109 56.000,52.167 55.889,52.167 55.353 C 52.167 54.846,52.239 54.687,52.500 54.618 C 52.755 54.552,52.833 54.391,52.833 53.932 C 52.833 53.444,52.895 53.333,53.167 53.333 C 53.444 53.333,53.500 53.222,53.500 52.667 C 53.500 52.111,53.556 52.000,53.833 52.000 C 54.092 52.000,54.167 51.889,54.167 51.506 C 54.167 51.182,54.282 50.950,54.500 50.833 C 54.688 50.733,54.833 50.484,54.833 50.265 C 54.833 50.050,54.946 49.781,55.083 49.667 C 55.221 49.553,55.333 49.281,55.333 49.063 C 55.333 48.835,55.432 48.667,55.566 48.667 C 55.813 48.667,56.000 48.319,56.000 47.860 C 56.000 47.706,56.150 47.487,56.333 47.372 C 56.541 47.242,56.667 46.983,56.667 46.685 C 56.667 46.346,56.764 46.180,57.000 46.118 C 57.253 46.052,57.333 45.891,57.333 45.452 C 57.333 45.012,57.414 44.851,57.667 44.785 C 57.922 44.718,58.000 44.558,58.000 44.099 C 58.000 43.611,58.062 43.500,58.333 43.500 C 58.605 43.500,58.667 43.389,58.667 42.901 C 58.667 42.442,58.745 42.282,59.000 42.215 C 59.249 42.150,59.333 41.988,59.333 41.575 C 59.333 41.169,59.422 40.994,59.667 40.917 C 59.912 40.839,60.000 40.664,60.000 40.258 C 60.000 39.846,60.085 39.683,60.333 39.618 C 60.586 39.552,60.667 39.391,60.667 38.952 C 60.667 38.512,60.747 38.351,61.000 38.285 C 61.255 38.218,61.333 38.058,61.333 37.599 C 61.333 37.111,61.395 37.000,61.667 37.000 C 61.944 37.000,62.000 36.889,62.000 36.333 C 62.000 35.778,62.056 35.667,62.333 35.667 C 62.609 35.667,62.667 35.556,62.667 35.019 C 62.667 34.512,62.739 34.353,63.000 34.285 C 63.255 34.218,63.333 34.058,63.333 33.599 C 63.333 33.111,63.395 33.000,63.667 33.000 C 63.934 33.000,64.000 32.889,64.000 32.436 C 64.000 32.012,64.083 31.851,64.333 31.785 C 64.577 31.721,64.667 31.558,64.667 31.177 C 64.667 30.868,64.768 30.617,64.917 30.560 C 65.054 30.508,65.167 30.302,65.167 30.103 C 65.167 29.904,65.317 29.612,65.500 29.455 C 65.683 29.298,65.833 28.982,65.833 28.752 C 65.833 28.505,65.929 28.333,66.066 28.333 C 66.318 28.333,66.500 27.984,66.500 27.498 C 66.500 27.328,66.650 27.142,66.833 27.083 C 67.078 27.006,67.167 26.831,67.167 26.425 C 67.167 26.012,67.251 25.850,67.500 25.785 C 67.753 25.719,67.833 25.558,67.833 25.118 C 67.833 24.679,67.914 24.518,68.167 24.452 C 68.412 24.388,68.500 24.224,68.500 23.833 C 68.500 23.442,68.588 23.279,68.833 23.215 C 69.082 23.150,69.167 22.988,69.167 22.575 C 69.167 22.169,69.255 21.994,69.500 21.917 C 69.745 21.839,69.833 21.664,69.833 21.258 C 69.833 20.846,69.918 20.683,70.167 20.618 C 70.419 20.552,70.500 20.391,70.500 19.952 C 70.500 19.512,70.581 19.351,70.833 19.285 C 71.086 19.219,71.167 19.058,71.167 18.618 C 71.167 18.179,71.247 18.018,71.500 17.952 C 71.755 17.885,71.833 17.724,71.833 17.266 C 71.833 16.778,71.895 16.667,72.167 16.667 C 72.444 16.667,72.500 16.556,72.500 16.000 C 72.500 15.444,72.556 15.333,72.833 15.333 C 73.101 15.333,73.167 15.222,73.167 14.769 C 73.167 14.346,73.250 14.184,73.500 14.118 C 73.753 14.052,73.833 13.891,73.833 13.452 C 73.833 13.012,73.914 12.851,74.167 12.785 C 74.422 12.718,74.500 12.558,74.500 12.099 C 74.500 11.678,74.574 11.500,74.750 11.500 C 74.917 11.500,75.000 11.333,75.000 11.001 C 75.000 10.683,75.121 10.427,75.333 10.295 C 75.517 10.180,75.667 9.935,75.667 9.750 C 75.667 9.565,75.817 9.320,76.000 9.205 C 76.333 8.997,76.333 9.039,76.333 63.582 L 76.333 118.167 77.333 118.167 L 78.333 118.167 78.333 117.595 C 78.333 117.169,78.419 116.995,78.667 116.917 C 78.912 116.839,79.000 116.664,79.000 116.258 C 79.000 115.846,79.085 115.683,79.333 115.618 C 79.586 115.552,79.667 115.391,79.667 114.952 C 79.667 114.512,79.747 114.351,80.000 114.285 C 80.253 114.219,80.333 114.058,80.333 113.618 C 80.333 113.179,80.414 113.018,80.667 112.952 C 80.919 112.886,81.000 112.724,81.000 112.285 C 81.000 111.846,81.081 111.684,81.333 111.618 C 81.589 111.552,81.667 111.391,81.667 110.932 C 81.667 110.531,81.743 110.333,81.899 110.333 C 82.168 110.333,82.333 109.978,82.333 109.403 C 82.333 109.167,82.431 109.000,82.569 109.000 C 82.713 109.000,82.847 108.743,82.917 108.333 C 82.981 107.955,83.123 107.667,83.246 107.667 C 83.365 107.667,83.513 107.400,83.574 107.074 C 83.635 106.748,83.831 106.336,84.009 106.157 C 84.188 105.979,84.333 105.654,84.333 105.434 C 84.333 105.215,84.439 104.995,84.568 104.946 C 84.696 104.896,84.856 104.607,84.922 104.303 C 84.988 103.999,85.146 103.602,85.271 103.421 C 85.397 103.240,85.500 102.959,85.500 102.796 C 85.500 102.633,85.650 102.350,85.833 102.167 C 86.018 101.982,86.167 101.611,86.167 101.335 C 86.167 101.017,86.287 100.761,86.500 100.628 C 86.737 100.480,86.833 100.239,86.833 99.793 C 86.833 99.278,86.892 99.167,87.167 99.167 C 87.434 99.167,87.500 99.056,87.500 98.603 C 87.500 98.179,87.583 98.017,87.833 97.952 C 88.089 97.885,88.167 97.724,88.167 97.266 C 88.167 96.778,88.229 96.667,88.500 96.667 C 88.778 96.667,88.833 96.556,88.833 96.000 C 88.833 95.444,88.889 95.333,89.167 95.333 C 89.444 95.333,89.500 95.222,89.500 94.667 C 89.500 94.111,89.556 94.000,89.833 94.000 C 90.111 94.000,90.167 93.889,90.167 93.333 C 90.167 92.778,90.222 92.667,90.500 92.667 C 90.778 92.667,90.833 92.556,90.833 92.000 C 90.833 91.444,90.889 91.333,91.167 91.333 C 91.444 91.333,91.500 91.222,91.500 90.667 C 91.500 90.111,91.556 90.000,91.833 90.000 C 92.098 90.000,92.167 89.889,92.167 89.457 C 92.167 89.094,92.277 88.844,92.500 88.705 C 92.688 88.588,92.833 88.317,92.833 88.082 C 92.833 87.854,92.983 87.517,93.167 87.333 C 93.350 87.150,93.500 86.850,93.500 86.667 C 93.500 86.483,93.650 86.183,93.833 86.000 C 94.017 85.817,94.167 85.487,94.167 85.268 C 94.167 85.048,94.275 84.827,94.407 84.777 C 94.540 84.726,94.697 84.423,94.757 84.104 C 94.817 83.784,94.971 83.483,95.100 83.433 C 95.237 83.381,95.333 83.109,95.333 82.775 C 95.333 82.346,95.415 82.184,95.667 82.118 C 95.919 82.052,96.000 81.891,96.000 81.452 C 96.000 81.012,96.081 80.851,96.333 80.785 C 96.586 80.719,96.667 80.558,96.667 80.118 C 96.667 79.679,96.747 79.518,97.000 79.452 C 97.250 79.386,97.333 79.224,97.333 78.806 C 97.333 78.427,97.441 78.180,97.667 78.039 C 97.873 77.910,98.000 77.650,98.000 77.358 C 98.000 77.097,98.149 76.750,98.333 76.583 C 98.517 76.417,98.667 76.070,98.667 75.809 C 98.667 75.517,98.794 75.257,99.000 75.128 C 99.202 75.002,99.333 74.739,99.333 74.461 C 99.333 74.183,99.465 73.921,99.667 73.795 C 99.904 73.646,100.000 73.406,100.000 72.960 C 100.000 72.444,100.059 72.333,100.333 72.333 C 100.611 72.333,100.667 72.222,100.667 71.667 C 100.667 71.111,100.722 71.000,101.000 71.000 C 101.268 71.000,101.333 70.889,101.333 70.436 C 101.333 70.012,101.416 69.851,101.667 69.785 C 101.919 69.719,102.000 69.558,102.000 69.118 C 102.000 68.679,102.081 68.518,102.333 68.452 C 102.586 68.386,102.667 68.224,102.667 67.785 C 102.667 67.346,102.747 67.184,103.000 67.118 C 103.253 67.052,103.333 66.891,103.333 66.452 C 103.333 66.012,103.414 65.851,103.667 65.785 C 103.922 65.718,104.000 65.558,104.000 65.099 C 104.000 64.698,104.077 64.500,104.232 64.500 C 104.501 64.500,104.667 64.145,104.667 63.570 C 104.667 63.323,104.763 63.167,104.917 63.167 C 105.097 63.167,105.167 62.981,105.167 62.500 C 105.167 61.944,105.222 61.833,105.500 61.833 C 105.769 61.833,105.833 61.722,105.833 61.261 C 105.833 60.836,105.919 60.662,106.167 60.583 C 106.413 60.505,106.500 60.331,106.500 59.917 C 106.500 59.502,106.587 59.328,106.833 59.250 C 107.078 59.172,107.167 58.998,107.167 58.592 C 107.167 58.179,107.251 58.017,107.500 57.952 C 107.753 57.886,107.833 57.724,107.833 57.285 C 107.833 56.846,107.914 56.684,108.167 56.618 C 108.419 56.552,108.500 56.391,108.500 55.952 C 108.500 55.512,108.581 55.351,108.833 55.285 C 109.083 55.220,109.167 55.058,109.167 54.639 C 109.167 54.261,109.274 54.013,109.500 53.872 C 109.688 53.754,109.833 53.483,109.833 53.249 C 109.833 53.020,109.983 52.683,110.167 52.500 C 110.350 52.317,110.500 52.017,110.500 51.833 C 110.500 51.650,110.650 51.350,110.833 51.167 C 111.017 50.983,111.167 50.625,111.167 50.370 C 111.167 50.098,111.304 49.808,111.500 49.667 C 111.720 49.508,111.833 49.235,111.833 48.864 C 111.833 48.442,111.916 48.280,112.167 48.215 C 112.428 48.147,112.500 47.988,112.500 47.481 C 112.500 46.944,112.557 46.833,112.833 46.833 C 113.109 46.833,113.167 46.722,113.167 46.186 C 113.167 45.679,113.239 45.520,113.500 45.452 C 113.753 45.386,113.833 45.224,113.833 44.785 C 113.833 44.346,113.914 44.184,114.167 44.118 C 114.422 44.052,114.500 43.891,114.500 43.432 C 114.500 43.011,114.574 42.833,114.750 42.833 C 114.923 42.833,115.000 42.660,115.000 42.269 C 115.000 41.846,115.083 41.684,115.333 41.618 C 115.586 41.552,115.667 41.391,115.667 40.952 C 115.667 40.512,115.747 40.351,116.000 40.285 C 116.255 40.218,116.333 40.058,116.333 39.599 C 116.333 39.111,116.395 39.000,116.667 39.000 C 116.944 39.000,117.000 38.889,117.000 38.333 C 117.000 37.778,117.056 37.667,117.333 37.667 C 117.611 37.667,117.667 37.556,117.667 37.000 C 117.667 36.444,117.722 36.333,118.000 36.333 C 118.278 36.333,118.333 36.222,118.333 35.667 C 118.333 35.111,118.389 35.000,118.667 35.000 C 118.944 35.000,119.000 34.889,119.000 34.333 C 119.000 33.778,119.056 33.667,119.333 33.667 C 119.609 33.667,119.667 33.556,119.667 33.019 C 119.667 32.512,119.739 32.353,120.000 32.285 C 120.242 32.222,120.333 32.058,120.333 31.688 C 120.333 31.349,120.445 31.119,120.667 31.000 C 120.875 30.889,121.000 30.651,121.000 30.368 C 121.000 30.094,121.133 29.831,121.333 29.705 C 121.522 29.588,121.667 29.317,121.667 29.082 C 121.667 28.854,121.817 28.517,122.000 28.333 C 122.183 28.150,122.333 27.810,122.333 27.578 C 122.333 27.346,122.441 27.115,122.573 27.064 C 122.705 27.014,122.865 26.735,122.928 26.444 C 122.992 26.154,123.184 25.738,123.355 25.519 C 123.526 25.301,123.667 24.982,123.667 24.811 C 123.667 24.640,123.817 24.350,124.000 24.167 C 124.183 23.983,124.333 23.657,124.333 23.442 C 124.333 23.228,124.483 22.916,124.667 22.750 C 124.853 22.582,125.000 22.237,125.000 21.969 C 125.000 21.697,125.108 21.448,125.250 21.394 C 125.413 21.331,125.500 21.072,125.500 20.649 C 125.500 20.111,125.557 20.000,125.833 20.000 C 126.111 20.000,126.167 19.889,126.167 19.333 C 126.167 18.778,126.222 18.667,126.500 18.667 C 126.778 18.667,126.833 18.556,126.833 18.000 C 126.833 17.444,126.889 17.333,127.167 17.333 C 127.444 17.333,127.500 17.222,127.500 16.667 C 127.500 16.111,127.556 16.000,127.833 16.000 C 128.111 16.000,128.167 15.889,128.167 15.333 C 128.167 14.778,128.222 14.667,128.500 14.667 C 128.768 14.667,128.833 14.556,128.833 14.103 C 128.833 13.679,128.916 13.517,129.167 13.452 C 129.419 13.386,129.500 13.224,129.500 12.785 C 129.500 12.346,129.581 12.184,129.833 12.118 C 130.086 12.052,130.167 11.891,130.167 11.452 C 130.167 11.012,130.247 10.851,130.500 10.785 C 130.753 10.719,130.833 10.558,130.833 10.118 C 130.833 9.679,130.914 9.518,131.167 9.452 C 131.419 9.386,131.500 9.224,131.500 8.785 C 131.500 8.346,131.581 8.184,131.833 8.118 C 132.089 8.052,132.167 7.891,132.167 7.432 C 132.167 7.031,132.243 6.833,132.399 6.833 C 132.668 6.833,132.833 6.478,132.833 5.903 C 132.833 5.671,132.931 5.500,133.064 5.500 C 133.357 5.500,133.495 4.984,133.498 3.875 L 133.500 3.000 132.500 3.000 L 131.500 3.000 131.500 3.667 C 131.500 4.222,131.444 4.333,131.167 4.333 C 130.889 4.333,130.833 4.444,130.833 5.000 C 130.833 5.556,130.778 5.667,130.500 5.667 C 130.232 5.667,130.167 5.778,130.167 6.231 C 130.167 6.654,130.084 6.816,129.833 6.882 C 129.581 6.948,129.500 7.109,129.500 7.548 C 129.500 7.988,129.419 8.149,129.167 8.215 C 128.911 8.282,128.833 8.442,128.833 8.901 C 128.833 9.302,128.757 9.500,128.601 9.500 C 128.332 9.500,128.167 9.855,128.167 10.430 C 128.167 10.664,128.069 10.833,127.934 10.833 C 127.666 10.833,127.500 11.188,127.500 11.764 C 127.500 12.000,127.402 12.167,127.265 12.167 C 127.120 12.167,126.986 12.423,126.917 12.833 C 126.852 13.219,126.711 13.500,126.583 13.500 C 126.456 13.500,126.316 13.778,126.252 14.154 C 126.191 14.513,126.044 14.845,125.925 14.890 C 125.806 14.936,125.660 15.235,125.600 15.554 C 125.540 15.873,125.380 16.177,125.245 16.229 C 125.098 16.285,125.000 16.542,125.000 16.874 C 125.000 17.220,124.875 17.533,124.667 17.711 C 124.483 17.868,124.333 18.168,124.333 18.378 C 124.333 18.588,124.183 18.888,124.000 19.045 C 123.804 19.212,123.667 19.536,123.667 19.830 C 123.667 20.150,123.546 20.406,123.333 20.539 C 123.096 20.687,123.000 20.927,123.000 21.373 C 123.000 21.889,122.941 22.000,122.667 22.000 C 122.389 22.000,122.333 22.111,122.333 22.667 C 122.333 23.222,122.278 23.333,122.000 23.333 C 121.732 23.333,121.667 23.444,121.667 23.897 C 121.667 24.321,121.584 24.483,121.333 24.548 C 121.081 24.614,121.000 24.776,121.000 25.215 C 121.000 25.654,120.919 25.816,120.667 25.882 C 120.414 25.948,120.333 26.109,120.333 26.548 C 120.333 26.988,120.253 27.149,120.000 27.215 C 119.747 27.281,119.667 27.442,119.667 27.882 C 119.667 28.321,119.586 28.482,119.333 28.548 C 119.081 28.614,119.000 28.776,119.000 29.215 C 119.000 29.654,118.919 29.816,118.667 29.882 C 118.414 29.948,118.333 30.109,118.333 30.548 C 118.333 30.988,118.253 31.149,118.000 31.215 C 117.747 31.281,117.667 31.442,117.667 31.882 C 117.667 32.321,117.586 32.482,117.333 32.548 C 117.078 32.615,117.000 32.776,117.000 33.234 C 117.000 33.635,116.923 33.833,116.768 33.833 C 116.512 33.833,116.333 34.184,116.333 34.686 C 116.333 34.864,116.228 35.051,116.100 35.100 C 115.971 35.149,115.819 35.440,115.762 35.745 C 115.705 36.051,115.547 36.344,115.412 36.395 C 115.262 36.453,115.167 36.711,115.167 37.059 C 115.167 37.488,115.085 37.649,114.833 37.715 C 114.581 37.781,114.500 37.942,114.500 38.382 C 114.500 38.821,114.419 38.982,114.167 39.048 C 113.914 39.114,113.833 39.276,113.833 39.715 C 113.833 40.154,113.753 40.316,113.500 40.382 C 113.245 40.448,113.167 40.609,113.167 41.068 C 113.167 41.469,113.090 41.667,112.934 41.667 C 112.680 41.667,112.500 42.017,112.500 42.514 C 112.500 42.689,112.350 42.983,112.167 43.167 C 111.983 43.350,111.833 43.676,111.833 43.891 C 111.833 44.106,111.683 44.417,111.500 44.583 C 111.290 44.774,111.167 45.097,111.167 45.458 C 111.167 45.891,111.085 46.053,110.833 46.118 C 110.598 46.180,110.500 46.346,110.500 46.685 C 110.500 46.983,110.374 47.242,110.167 47.372 C 109.929 47.520,109.833 47.761,109.833 48.207 C 109.833 48.722,109.774 48.833,109.500 48.833 C 109.222 48.833,109.167 48.944,109.167 49.500 C 109.167 50.056,109.111 50.167,108.833 50.167 C 108.556 50.167,108.500 50.278,108.500 50.833 C 108.500 51.389,108.444 51.500,108.167 51.500 C 107.898 51.500,107.833 51.611,107.833 52.072 C 107.833 52.498,107.748 52.671,107.500 52.750 C 107.252 52.829,107.167 53.002,107.167 53.428 C 107.167 53.806,107.088 54.000,106.934 54.000 C 106.666 54.000,106.500 54.355,106.500 54.930 C 106.500 55.164,106.402 55.333,106.268 55.333 C 105.999 55.333,105.833 55.688,105.833 56.264 C 105.833 56.494,105.735 56.667,105.605 56.667 C 105.467 56.667,105.334 56.931,105.269 57.333 C 105.200 57.765,105.075 58.000,104.915 58.000 C 104.736 58.000,104.667 58.188,104.667 58.667 C 104.667 59.222,104.611 59.333,104.333 59.333 C 104.056 59.333,104.000 59.444,104.000 60.000 C 104.000 60.556,103.944 60.667,103.667 60.667 C 103.389 60.667,103.333 60.778,103.333 61.333 C 103.333 61.889,103.278 62.000,103.000 62.000 C 102.731 62.000,102.667 62.111,102.667 62.572 C 102.667 62.998,102.581 63.171,102.333 63.250 C 102.087 63.328,102.000 63.502,102.000 63.917 C 102.000 64.331,101.913 64.505,101.667 64.583 C 101.425 64.660,101.333 64.836,101.333 65.221 C 101.333 65.573,101.220 65.824,101.000 65.961 C 100.798 66.088,100.667 66.350,100.667 66.628 C 100.667 66.906,100.535 67.168,100.333 67.295 C 100.125 67.425,100.000 67.683,100.000 67.984 C 100.000 68.249,99.892 68.506,99.759 68.557 C 99.627 68.608,99.467 68.922,99.405 69.255 C 99.342 69.588,99.190 69.899,99.067 69.946 C 98.943 69.993,98.792 70.303,98.730 70.633 C 98.668 70.964,98.478 71.383,98.308 71.565 C 98.139 71.747,98.000 72.104,98.000 72.359 C 98.000 72.651,97.877 72.887,97.667 73.000 C 97.435 73.124,97.333 73.349,97.333 73.736 C 97.333 74.154,97.250 74.316,97.000 74.382 C 96.747 74.448,96.667 74.609,96.667 75.048 C 96.667 75.488,96.586 75.649,96.333 75.715 C 96.078 75.782,96.000 75.942,96.000 76.401 C 96.000 76.820,95.926 77.000,95.752 77.000 C 95.591 77.000,95.466 77.235,95.397 77.667 C 95.333 78.069,95.200 78.333,95.062 78.333 C 94.906 78.333,94.833 78.546,94.833 79.000 C 94.833 79.556,94.778 79.667,94.500 79.667 C 94.231 79.667,94.167 79.778,94.167 80.239 C 94.167 80.664,94.081 80.838,93.833 80.917 C 93.588 80.994,93.500 81.169,93.500 81.575 C 93.500 81.988,93.415 82.150,93.167 82.215 C 92.914 82.281,92.833 82.442,92.833 82.882 C 92.833 83.321,92.753 83.482,92.500 83.548 C 92.247 83.614,92.167 83.776,92.167 84.215 C 92.167 84.654,92.086 84.816,91.833 84.882 C 91.578 84.948,91.500 85.109,91.500 85.568 C 91.500 86.056,91.438 86.167,91.167 86.167 C 90.889 86.167,90.833 86.278,90.833 86.833 C 90.833 87.389,90.778 87.500,90.500 87.500 C 90.224 87.500,90.167 87.611,90.167 88.147 C 90.167 88.654,90.094 88.813,89.833 88.882 C 89.581 88.948,89.500 89.109,89.500 89.548 C 89.500 89.988,89.419 90.149,89.167 90.215 C 88.914 90.281,88.833 90.442,88.833 90.882 C 88.833 91.321,88.753 91.482,88.500 91.548 C 88.256 91.612,88.167 91.776,88.167 92.156 C 88.167 92.461,88.065 92.716,87.921 92.771 C 87.786 92.823,87.627 93.127,87.567 93.446 C 87.507 93.765,87.354 94.066,87.228 94.115 C 87.102 94.163,86.952 94.490,86.896 94.841 C 86.840 95.192,86.695 95.518,86.573 95.564 C 86.451 95.611,86.303 95.910,86.243 96.230 C 86.183 96.549,86.036 96.848,85.916 96.894 C 85.796 96.940,85.644 97.226,85.578 97.530 C 85.512 97.835,85.354 98.231,85.229 98.412 C 85.103 98.593,85.000 98.944,85.000 99.193 C 85.000 99.498,84.892 99.678,84.667 99.750 C 84.408 99.832,84.333 100.002,84.333 100.511 C 84.333 101.056,84.277 101.167,84.000 101.167 C 83.722 101.167,83.667 101.278,83.667 101.833 C 83.667 102.389,83.611 102.500,83.333 102.500 C 83.056 102.500,83.000 102.611,83.000 103.167 C 83.000 103.722,82.944 103.833,82.667 103.833 C 82.389 103.833,82.333 103.944,82.333 104.500 C 82.333 105.056,82.278 105.167,82.000 105.167 C 81.722 105.167,81.667 105.278,81.667 105.833 C 81.667 106.389,81.611 106.500,81.333 106.500 C 81.056 106.500,81.000 106.611,81.000 107.167 C 81.000 107.722,80.944 107.833,80.667 107.833 C 80.395 107.833,80.333 107.944,80.333 108.432 C 80.333 108.891,80.255 109.052,80.000 109.118 C 79.752 109.183,79.667 109.346,79.667 109.750 C 79.667 110.154,79.581 110.317,79.333 110.382 C 79.081 110.448,79.000 110.609,79.000 111.048 C 79.000 111.488,78.919 111.649,78.667 111.715 C 78.334 111.802,78.333 111.720,78.333 57.401 L 78.333 3.000 77.333 3.000 L 76.333 3.000 76.333 3.667 M217.369 8.816 C 217.412 14.080,217.444 14.663,217.708 14.954 C 217.973 15.247,218.000 15.765,218.000 20.624 C 218.000 26.089,218.030 26.500,218.434 26.500 C 218.628 26.500,218.667 27.405,218.669 31.958 C 218.671 37.591,218.712 38.167,219.103 38.167 C 219.294 38.167,219.333 39.094,219.333 43.661 C 219.333 48.984,219.344 49.160,219.667 49.333 C 219.988 49.505,220.000 49.682,220.000 54.346 L 220.000 59.181 219.083 60.076 C 218.579 60.568,218.167 61.053,218.167 61.152 C 218.167 61.252,218.047 61.333,217.901 61.333 C 217.755 61.333,217.596 61.483,217.548 61.667 C 217.500 61.850,217.350 62.000,217.215 62.000 C 217.080 62.000,216.930 62.150,216.882 62.333 C 216.834 62.517,216.688 62.667,216.559 62.667 C 216.429 62.667,216.281 62.775,216.230 62.908 C 216.179 63.041,214.700 64.617,212.944 66.410 C 211.187 68.203,209.188 70.266,208.500 70.993 C 207.813 71.720,207.156 72.319,207.042 72.324 C 206.927 72.329,206.833 72.453,206.833 72.599 C 206.833 72.745,206.683 72.904,206.500 72.952 C 206.317 73.000,206.167 73.112,206.167 73.200 C 206.167 73.289,205.304 74.226,204.250 75.282 C 203.196 76.338,202.333 77.307,202.333 77.434 C 202.333 77.562,202.183 77.667,202.000 77.667 C 201.778 77.667,201.667 77.778,201.667 78.000 C 201.667 78.222,201.556 78.333,201.333 78.333 C 201.111 78.333,201.000 78.444,201.000 78.667 C 201.000 78.889,200.889 79.000,200.667 79.000 C 200.444 79.000,200.333 79.111,200.333 79.333 C 200.333 79.556,200.222 79.667,200.000 79.667 C 199.778 79.667,199.667 79.778,199.667 80.000 C 199.667 80.222,199.556 80.333,199.333 80.333 C 199.150 80.333,199.000 80.437,199.000 80.564 C 199.000 80.691,198.850 80.834,198.667 80.882 C 198.483 80.930,198.333 81.080,198.333 81.215 C 198.333 81.350,198.183 81.500,198.000 81.548 C 197.817 81.596,197.667 81.746,197.667 81.882 C 197.667 82.017,197.517 82.167,197.333 82.215 C 197.150 82.263,197.000 82.413,197.000 82.548 C 197.000 82.684,196.850 82.834,196.667 82.882 C 196.483 82.930,196.333 83.080,196.333 83.215 C 196.333 83.350,196.183 83.500,196.000 83.548 C 195.817 83.596,195.667 83.755,195.667 83.901 C 195.667 84.047,195.554 84.167,195.417 84.167 C 195.278 84.167,195.167 84.315,195.167 84.500 C 195.167 84.722,195.056 84.833,194.833 84.833 C 194.611 84.833,194.500 84.944,194.500 85.167 C 194.500 85.389,194.389 85.500,194.167 85.500 C 193.944 85.500,193.833 85.611,193.833 85.833 C 193.833 86.056,193.722 86.167,193.500 86.167 C 193.278 86.167,193.167 86.278,193.167 86.500 C 193.167 86.722,193.056 86.833,192.833 86.833 C 192.611 86.833,192.500 86.944,192.500 87.167 C 192.500 87.389,192.389 87.500,192.167 87.500 C 191.944 87.500,191.833 87.611,191.833 87.833 C 191.833 88.056,191.722 88.167,191.500 88.167 C 191.278 88.167,191.167 88.278,191.167 88.500 C 191.167 88.722,191.056 88.833,190.833 88.833 C 190.611 88.833,190.500 88.944,190.500 89.167 C 190.500 89.389,190.389 89.500,190.167 89.500 C 189.983 89.500,189.833 89.607,189.833 89.739 C 189.833 89.870,189.683 90.025,189.500 90.083 C 189.317 90.142,189.167 90.297,189.167 90.428 C 189.167 90.559,189.047 90.667,188.901 90.667 C 188.755 90.667,188.596 90.817,188.548 91.000 C 188.500 91.183,188.350 91.333,188.215 91.333 C 188.080 91.333,187.930 91.483,187.882 91.667 C 187.834 91.850,187.684 92.000,187.548 92.000 C 187.413 92.000,187.263 92.150,187.215 92.333 C 187.167 92.517,187.017 92.667,186.882 92.667 C 186.746 92.667,186.596 92.817,186.548 93.000 C 186.500 93.183,186.350 93.333,186.215 93.333 C 186.080 93.333,185.930 93.483,185.882 93.667 C 185.834 93.850,185.699 94.000,185.583 94.000 C 185.467 94.000,185.333 94.150,185.285 94.333 C 185.237 94.517,185.078 94.667,184.932 94.667 C 184.778 94.667,184.667 94.806,184.667 95.000 C 184.667 95.222,184.556 95.333,184.333 95.333 C 184.111 95.333,184.000 95.444,184.000 95.667 C 184.000 95.889,183.889 96.000,183.667 96.000 C 183.444 96.000,183.333 96.111,183.333 96.333 C 183.333 96.556,183.222 96.667,183.000 96.667 C 182.778 96.667,182.667 96.778,182.667 97.000 C 182.667 97.222,182.556 97.333,182.333 97.333 C 182.111 97.333,182.000 97.444,182.000 97.667 C 182.000 97.889,181.889 98.000,181.667 98.000 C 181.444 98.000,181.333 98.111,181.333 98.333 C 181.333 98.549,181.222 98.667,181.019 98.667 C 180.846 98.667,180.667 98.816,180.618 99.000 C 180.570 99.183,180.412 99.333,180.266 99.333 C 180.120 99.333,180.000 99.446,180.000 99.583 C 180.000 99.721,179.880 99.833,179.734 99.833 C 179.588 99.833,179.430 99.983,179.382 100.167 C 179.334 100.350,179.184 100.500,179.048 100.500 C 178.913 100.500,178.763 100.650,178.715 100.833 C 178.667 101.017,178.517 101.167,178.382 101.167 C 178.246 101.167,178.096 101.317,178.048 101.500 C 178.000 101.683,177.850 101.833,177.715 101.833 C 177.580 101.833,177.430 101.983,177.382 102.167 C 177.334 102.350,177.184 102.500,177.048 102.500 C 176.913 102.500,176.763 102.650,176.715 102.833 C 176.667 103.017,176.517 103.167,176.382 103.167 C 176.246 103.167,176.096 103.317,176.048 103.500 C 176.000 103.683,175.862 103.833,175.742 103.833 C 175.621 103.833,175.475 103.983,175.417 104.167 C 175.358 104.350,175.203 104.500,175.072 104.500 C 174.941 104.500,174.833 104.650,174.833 104.833 C 174.833 105.056,174.722 105.167,174.500 105.167 C 174.278 105.167,174.167 105.278,174.167 105.500 C 174.167 105.722,174.056 105.833,173.833 105.833 C 173.611 105.833,173.500 105.944,173.500 106.167 C 173.500 106.389,173.389 106.500,173.167 106.500 C 172.944 106.500,172.833 106.611,172.833 106.833 C 172.833 107.056,172.722 107.167,172.500 107.167 C 172.278 107.167,172.167 107.278,172.167 107.500 C 172.167 107.722,172.056 107.833,171.833 107.833 C 171.611 107.833,171.500 107.944,171.500 108.167 C 171.500 108.389,171.389 108.500,171.167 108.500 C 170.981 108.500,170.833 108.611,170.833 108.750 C 170.833 108.888,170.714 109.000,170.568 109.000 C 170.422 109.000,170.263 109.150,170.215 109.333 C 170.167 109.517,170.017 109.667,169.882 109.667 C 169.746 109.667,169.596 109.817,169.548 110.000 C 169.500 110.183,169.350 110.333,169.215 110.333 C 169.080 110.333,168.930 110.483,168.882 110.667 C 168.834 110.850,168.684 111.000,168.548 111.000 C 168.413 111.000,168.263 111.150,168.215 111.333 C 168.167 111.518,167.988 111.667,167.814 111.667 C 167.611 111.667,167.500 111.785,167.500 112.000 C 167.500 112.194,167.389 112.333,167.234 112.333 C 167.088 112.333,166.930 112.483,166.882 112.667 C 166.834 112.850,166.684 113.000,166.548 113.000 C 166.413 113.000,166.263 113.150,166.215 113.333 C 166.167 113.517,166.029 113.667,165.908 113.667 C 165.788 113.667,165.642 113.817,165.583 114.000 C 165.525 114.183,165.370 114.333,165.239 114.333 C 165.107 114.333,165.000 114.483,165.000 114.667 C 165.000 114.889,164.889 115.000,164.667 115.000 C 164.444 115.000,164.333 115.111,164.333 115.333 C 164.333 115.556,164.222 115.667,164.000 115.667 C 163.778 115.667,163.667 115.778,163.667 116.000 C 163.667 116.222,163.556 116.333,163.333 116.333 C 163.111 116.333,163.000 116.444,163.000 116.667 C 163.000 116.889,162.889 117.000,162.667 117.000 C 162.374 117.000,162.333 117.111,162.333 117.917 L 162.333 118.833 163.266 118.833 C 164.058 118.833,164.211 118.783,164.285 118.500 C 164.333 118.317,164.447 118.167,164.538 118.167 C 164.779 118.167,165.494 117.452,165.497 117.208 C 165.499 117.094,165.620 117.000,165.766 117.000 C 165.912 117.000,166.070 116.850,166.118 116.667 C 166.166 116.483,166.316 116.333,166.452 116.333 C 166.587 116.333,166.737 116.183,166.785 116.000 C 166.833 115.816,167.012 115.667,167.186 115.667 C 167.389 115.667,167.500 115.549,167.500 115.333 C 167.500 115.111,167.611 115.000,167.833 115.000 C 168.056 115.000,168.167 114.889,168.167 114.667 C 168.167 114.444,168.278 114.333,168.500 114.333 C 168.722 114.333,168.833 114.222,168.833 114.000 C 168.833 113.778,168.944 113.667,169.167 113.667 C 169.389 113.667,169.500 113.556,169.500 113.333 C 169.500 113.111,169.611 113.000,169.833 113.000 C 170.056 113.000,170.167 112.889,170.167 112.667 C 170.167 112.444,170.278 112.333,170.500 112.333 C 170.722 112.333,170.833 112.222,170.833 112.000 C 170.833 111.778,170.944 111.667,171.167 111.667 C 171.389 111.667,171.500 111.556,171.500 111.333 C 171.500 111.111,171.611 111.000,171.833 111.000 C 172.056 111.000,172.167 110.889,172.167 110.667 C 172.167 110.444,172.278 110.333,172.500 110.333 C 172.722 110.333,172.833 110.222,172.833 110.000 C 172.833 109.806,172.944 109.667,173.099 109.667 C 173.245 109.667,173.404 109.517,173.452 109.333 C 173.500 109.150,173.650 109.000,173.785 109.000 C 173.920 109.000,174.070 108.850,174.118 108.667 C 174.166 108.483,174.280 108.333,174.371 108.333 C 174.612 108.333,175.327 107.619,175.330 107.375 C 175.332 107.260,175.453 107.167,175.599 107.167 C 175.745 107.167,175.904 107.017,175.952 106.833 C 176.000 106.650,176.150 106.500,176.285 106.500 C 176.420 106.500,176.570 106.350,176.618 106.167 C 176.667 105.982,176.846 105.833,177.019 105.833 C 177.222 105.833,177.333 105.715,177.333 105.500 C 177.333 105.278,177.444 105.167,177.667 105.167 C 177.889 105.167,178.000 105.056,178.000 104.833 C 178.000 104.611,178.111 104.500,178.333 104.500 C 178.556 104.500,178.667 104.389,178.667 104.167 C 178.667 103.944,178.778 103.833,179.000 103.833 C 179.222 103.833,179.333 103.722,179.333 103.500 C 179.333 103.278,179.444 103.167,179.667 103.167 C 179.889 103.167,180.000 103.056,180.000 102.833 C 180.000 102.611,180.111 102.500,180.333 102.500 C 180.556 102.500,180.667 102.389,180.667 102.167 C 180.667 101.944,180.778 101.833,181.000 101.833 C 181.222 101.833,181.333 101.722,181.333 101.500 C 181.333 101.278,181.444 101.167,181.667 101.167 C 181.889 101.167,182.000 101.056,182.000 100.833 C 182.000 100.639,182.111 100.500,182.266 100.500 C 182.412 100.500,182.570 100.350,182.618 100.167 C 182.666 99.983,182.816 99.833,182.952 99.833 C 183.087 99.833,183.237 99.683,183.285 99.500 C 183.333 99.317,183.448 99.167,183.541 99.167 C 183.773 99.167,185.167 97.756,185.167 97.522 C 185.167 97.418,185.286 97.333,185.432 97.333 C 185.578 97.333,185.737 97.183,185.785 97.000 C 185.833 96.816,186.012 96.667,186.186 96.667 C 186.389 96.667,186.500 96.549,186.500 96.333 C 186.500 96.111,186.611 96.000,186.833 96.000 C 187.056 96.000,187.167 95.889,187.167 95.667 C 187.167 95.473,187.278 95.333,187.432 95.333 C 187.578 95.333,187.737 95.183,187.785 95.000 C 187.833 94.816,188.012 94.667,188.186 94.667 C 188.389 94.667,188.500 94.549,188.500 94.333 C 188.500 94.111,188.611 94.000,188.833 94.000 C 189.056 94.000,189.167 93.889,189.167 93.667 C 189.167 93.444,189.278 93.333,189.500 93.333 C 189.722 93.333,189.833 93.222,189.833 93.000 C 189.833 92.778,189.944 92.667,190.167 92.667 C 190.389 92.667,190.500 92.556,190.500 92.333 C 190.500 92.139,190.611 92.000,190.766 92.000 C 190.912 92.000,191.070 91.850,191.118 91.667 C 191.166 91.483,191.316 91.333,191.452 91.333 C 191.587 91.333,191.737 91.183,191.785 91.000 C 191.833 90.817,191.983 90.667,192.118 90.667 C 192.254 90.667,192.404 90.517,192.452 90.333 C 192.500 90.150,192.607 90.000,192.690 90.000 C 192.869 90.000,195.000 87.844,195.000 87.663 C 195.000 87.595,195.150 87.500,195.333 87.452 C 195.517 87.404,195.667 87.254,195.667 87.118 C 195.667 86.983,195.817 86.833,196.000 86.785 C 196.183 86.737,196.333 86.587,196.333 86.452 C 196.333 86.316,196.483 86.166,196.667 86.118 C 196.850 86.070,197.000 85.920,197.000 85.785 C 197.000 85.650,197.150 85.500,197.333 85.452 C 197.517 85.404,197.667 85.254,197.667 85.118 C 197.667 84.983,197.817 84.833,198.000 84.785 C 198.183 84.737,198.333 84.587,198.333 84.452 C 198.333 84.316,198.483 84.166,198.667 84.118 C 198.850 84.070,199.000 83.920,199.000 83.785 C 199.000 83.650,199.150 83.500,199.333 83.452 C 199.517 83.404,199.667 83.254,199.667 83.118 C 199.667 82.983,199.817 82.833,200.000 82.785 C 200.183 82.737,200.333 82.587,200.333 82.452 C 200.333 82.316,200.483 82.166,200.667 82.118 C 200.850 82.070,201.000 81.920,201.000 81.785 C 201.000 81.650,201.150 81.500,201.333 81.452 C 201.517 81.404,201.667 81.254,201.667 81.118 C 201.667 80.983,201.817 80.833,202.000 80.785 C 202.183 80.737,202.333 80.578,202.333 80.432 C 202.333 80.286,202.441 80.167,202.572 80.167 C 202.703 80.167,202.858 80.017,202.917 79.833 C 202.975 79.650,203.130 79.500,203.261 79.500 C 203.393 79.500,203.500 79.380,203.500 79.234 C 203.500 79.088,203.650 78.930,203.833 78.882 C 204.017 78.834,204.167 78.696,204.167 78.575 C 204.167 78.454,204.317 78.308,204.500 78.250 C 204.683 78.192,204.833 78.042,204.833 77.917 C 204.833 77.792,204.983 77.642,205.167 77.583 C 205.350 77.525,205.500 77.379,205.500 77.258 C 205.500 77.138,205.650 77.000,205.833 76.952 C 206.017 76.904,206.167 76.754,206.167 76.618 C 206.167 76.483,206.317 76.333,206.500 76.285 C 206.683 76.237,206.833 76.087,206.833 75.952 C 206.833 75.816,206.983 75.666,207.167 75.618 C 207.350 75.570,207.500 75.420,207.500 75.285 C 207.500 75.150,207.650 75.000,207.833 74.952 C 208.017 74.904,208.167 74.754,208.167 74.618 C 208.167 74.483,208.317 74.333,208.500 74.285 C 208.683 74.237,208.833 74.087,208.833 73.952 C 208.833 73.816,208.983 73.666,209.167 73.618 C 209.350 73.570,209.500 73.420,209.500 73.285 C 209.500 73.150,209.650 73.000,209.833 72.952 C 210.017 72.904,210.167 72.745,210.167 72.599 C 210.167 72.453,210.274 72.333,210.405 72.333 C 210.537 72.333,210.692 72.183,210.750 72.000 C 210.808 71.817,210.958 71.667,211.083 71.667 C 211.208 71.667,211.358 71.517,211.417 71.333 C 211.475 71.150,211.625 71.000,211.750 71.000 C 211.875 71.000,212.025 70.850,212.083 70.667 C 212.142 70.483,212.297 70.333,212.428 70.333 C 212.559 70.333,212.667 70.214,212.667 70.068 C 212.667 69.922,212.817 69.763,213.000 69.715 C 213.183 69.667,213.333 69.517,213.333 69.382 C 213.333 69.246,213.483 69.096,213.667 69.048 C 213.850 69.000,214.000 68.850,214.000 68.715 C 214.000 68.580,214.150 68.430,214.333 68.382 C 214.517 68.334,214.667 68.184,214.667 68.048 C 214.667 67.913,214.817 67.763,215.000 67.715 C 215.183 67.667,215.333 67.529,215.333 67.408 C 215.333 67.288,215.483 67.142,215.667 67.083 C 215.850 67.025,216.000 66.875,216.000 66.750 C 216.000 66.625,216.150 66.475,216.333 66.417 C 216.517 66.358,216.667 66.251,216.667 66.177 C 216.667 66.104,217.567 65.136,218.667 64.027 L 220.667 62.011 220.667 67.132 C 220.667 72.073,220.678 72.260,221.000 72.461 C 221.323 72.663,221.333 72.850,221.333 78.350 C 221.333 83.891,221.342 84.033,221.667 84.118 C 221.992 84.203,222.000 84.346,222.000 89.756 C 222.000 95.422,222.029 95.833,222.434 95.833 C 222.628 95.833,222.667 96.755,222.667 101.417 C 222.667 106.877,222.674 107.000,222.998 107.000 C 223.321 107.000,223.330 107.138,223.373 112.875 L 223.417 118.750 224.292 118.800 L 225.167 118.851 225.167 113.046 C 225.167 108.248,225.125 107.181,224.925 106.896 C 224.729 106.616,224.675 105.528,224.634 101.096 C 224.589 96.204,224.554 95.618,224.302 95.434 C 224.050 95.249,224.015 94.652,223.969 89.601 C 223.921 84.469,223.891 83.954,223.625 83.760 C 223.358 83.565,223.333 83.108,223.331 78.398 C 223.329 73.075,223.286 72.500,222.897 72.500 C 222.706 72.500,222.667 71.587,222.667 67.104 C 222.667 61.532,222.610 60.667,222.243 60.667 C 222.007 60.667,223.502 59.072,228.101 54.419 C 229.760 52.740,231.164 51.247,231.221 51.100 C 231.277 50.953,231.429 50.833,231.559 50.833 C 231.688 50.833,231.834 50.683,231.882 50.500 C 231.930 50.317,232.080 50.167,232.215 50.167 C 232.350 50.167,232.500 50.017,232.548 49.833 C 232.596 49.650,232.746 49.500,232.882 49.500 C 233.017 49.500,233.167 49.350,233.215 49.167 C 233.263 48.983,233.413 48.833,233.548 48.833 C 233.684 48.833,233.834 48.683,233.882 48.500 C 233.930 48.317,234.088 48.167,234.234 48.167 C 234.380 48.167,234.500 48.080,234.500 47.974 C 234.500 47.869,235.213 47.075,236.083 46.212 C 236.954 45.348,237.667 44.534,237.667 44.404 C 237.667 44.273,237.817 44.167,238.000 44.167 C 238.222 44.167,238.333 44.056,238.333 43.833 C 238.333 43.611,238.444 43.500,238.667 43.500 C 238.889 43.500,239.000 43.389,239.000 43.167 C 239.000 42.944,239.111 42.833,239.333 42.833 C 239.519 42.833,239.667 42.722,239.667 42.583 C 239.667 42.444,239.815 42.333,240.000 42.333 C 240.222 42.333,240.333 42.222,240.333 42.000 C 240.333 41.778,240.444 41.667,240.667 41.667 C 240.889 41.667,241.000 41.556,241.000 41.333 C 241.000 41.111,241.111 41.000,241.333 41.000 C 241.556 41.000,241.667 40.889,241.667 40.667 C 241.667 40.444,241.778 40.333,242.000 40.333 C 242.222 40.333,242.333 40.222,242.333 40.000 C 242.333 39.778,242.444 39.667,242.667 39.667 C 242.889 39.667,243.000 39.556,243.000 39.333 C 243.000 39.111,243.111 39.000,243.333 39.000 C 243.556 39.000,243.667 38.889,243.667 38.667 C 243.667 38.444,243.778 38.333,244.000 38.333 C 244.222 38.333,244.333 38.222,244.333 38.000 C 244.333 37.778,244.444 37.667,244.667 37.667 C 244.889 37.667,245.000 37.556,245.000 37.333 C 245.000 37.148,245.111 37.000,245.250 37.000 C 245.389 37.000,245.500 36.852,245.500 36.667 C 245.500 36.444,245.611 36.333,245.833 36.333 C 246.056 36.333,246.167 36.222,246.167 36.000 C 246.167 35.778,246.278 35.667,246.500 35.667 C 246.722 35.667,246.833 35.556,246.833 35.333 C 246.833 35.111,246.944 35.000,247.167 35.000 C 247.389 35.000,247.500 34.889,247.500 34.667 C 247.500 34.444,247.611 34.333,247.833 34.333 C 248.056 34.333,248.167 34.222,248.167 34.000 C 248.167 33.778,248.278 33.667,248.500 33.667 C 248.722 33.667,248.833 33.556,248.833 33.333 C 248.833 33.111,248.944 33.000,249.167 33.000 C 249.352 33.000,249.500 32.889,249.500 32.750 C 249.500 32.612,249.620 32.500,249.766 32.500 C 249.912 32.500,250.070 32.350,250.118 32.167 C 250.166 31.983,250.316 31.833,250.452 31.833 C 250.587 31.833,250.737 31.683,250.785 31.500 C 250.833 31.317,250.983 31.167,251.118 31.167 C 251.254 31.167,251.404 31.017,251.452 30.833 C 251.500 30.649,251.679 30.500,251.853 30.500 C 252.056 30.500,252.167 30.382,252.167 30.167 C 252.167 29.973,252.278 29.833,252.432 29.833 C 252.578 29.833,252.737 29.683,252.785 29.500 C 252.833 29.317,252.983 29.167,253.118 29.167 C 253.254 29.167,253.404 29.017,253.452 28.833 C 253.500 28.650,253.650 28.500,253.785 28.500 C 253.920 28.500,254.070 28.350,254.118 28.167 C 254.167 27.982,254.346 27.833,254.519 27.833 C 254.722 27.833,254.833 27.715,254.833 27.500 C 254.833 27.315,254.944 27.167,255.083 27.167 C 255.222 27.167,255.333 27.019,255.333 26.833 C 255.333 26.611,255.444 26.500,255.667 26.500 C 255.889 26.500,256.000 26.389,256.000 26.167 C 256.000 25.944,256.111 25.833,256.333 25.833 C 256.556 25.833,256.667 25.722,256.667 25.500 C 256.667 25.278,256.778 25.167,257.000 25.167 C 257.222 25.167,257.333 25.056,257.333 24.833 C 257.333 24.611,257.444 24.500,257.667 24.500 C 257.889 24.500,258.000 24.389,258.000 24.167 C 258.000 23.944,258.111 23.833,258.333 23.833 C 258.519 23.833,258.667 23.722,258.667 23.583 C 258.667 23.444,258.815 23.333,259.000 23.333 C 259.222 23.333,259.333 23.222,259.333 23.000 C 259.333 22.778,259.444 22.667,259.667 22.667 C 259.882 22.667,260.000 22.556,260.000 22.353 C 260.000 22.179,260.149 22.000,260.333 21.952 C 260.517 21.904,260.667 21.745,260.667 21.599 C 260.667 21.444,260.806 21.333,261.000 21.333 C 261.222 21.333,261.333 21.222,261.333 21.000 C 261.333 20.778,261.444 20.667,261.667 20.667 C 261.889 20.667,262.000 20.556,262.000 20.333 C 262.000 20.111,262.111 20.000,262.333 20.000 C 262.549 20.000,262.667 19.889,262.667 19.686 C 262.667 19.512,262.816 19.333,263.000 19.285 C 263.183 19.237,263.333 19.078,263.333 18.932 C 263.333 18.778,263.473 18.667,263.667 18.667 C 263.889 18.667,264.000 18.556,264.000 18.333 C 264.000 18.111,264.111 18.000,264.333 18.000 C 264.556 18.000,264.667 17.889,264.667 17.667 C 264.667 17.481,264.778 17.333,264.917 17.333 C 265.056 17.333,265.167 17.185,265.167 17.000 C 265.167 16.778,265.278 16.667,265.500 16.667 C 265.722 16.667,265.833 16.556,265.833 16.333 C 265.833 16.111,265.944 16.000,266.167 16.000 C 266.389 16.000,266.500 15.889,266.500 15.667 C 266.500 15.444,266.611 15.333,266.833 15.333 C 267.056 15.333,267.167 15.222,267.167 15.000 C 267.167 14.778,267.278 14.667,267.500 14.667 C 267.683 14.667,267.833 14.563,267.833 14.436 C 267.833 14.309,267.983 14.166,268.167 14.118 C 268.350 14.070,268.500 13.920,268.500 13.785 C 268.500 13.650,268.650 13.500,268.833 13.452 C 269.017 13.404,269.167 13.254,269.167 13.118 C 269.167 12.983,269.317 12.833,269.500 12.785 C 269.683 12.737,269.833 12.578,269.833 12.432 C 269.833 12.278,269.973 12.167,270.167 12.167 C 270.389 12.167,270.500 12.056,270.500 11.833 C 270.500 11.611,270.611 11.500,270.833 11.500 C 271.056 11.500,271.167 11.389,271.167 11.167 C 271.167 10.944,271.278 10.833,271.500 10.833 C 271.722 10.833,271.833 10.722,271.833 10.500 C 271.833 10.278,271.944 10.167,272.167 10.167 C 272.389 10.167,272.500 10.056,272.500 9.833 C 272.500 9.611,272.611 9.500,272.833 9.500 C 273.049 9.500,273.167 9.389,273.167 9.186 C 273.167 9.012,273.316 8.833,273.500 8.785 C 273.683 8.737,273.833 8.587,273.833 8.452 C 273.833 8.316,273.983 8.166,274.167 8.118 C 274.350 8.070,274.500 7.912,274.500 7.766 C 274.500 7.620,274.612 7.500,274.750 7.500 C 274.889 7.500,275.000 7.352,275.000 7.167 C 275.000 6.944,275.111 6.833,275.333 6.833 C 275.556 6.833,275.667 6.722,275.667 6.500 C 275.667 6.278,275.778 6.167,276.000 6.167 C 276.222 6.167,276.333 6.056,276.333 5.833 C 276.333 5.611,276.444 5.500,276.667 5.500 C 276.889 5.500,277.000 5.389,277.000 5.167 C 277.000 4.944,277.111 4.833,277.333 4.833 C 277.626 4.833,277.667 4.722,277.667 3.917 L 277.667 3.000 276.761 3.000 C 276.002 3.000,275.839 3.054,275.750 3.333 C 275.692 3.517,275.537 3.667,275.405 3.667 C 275.274 3.667,275.167 3.817,275.167 4.000 C 275.167 4.222,275.056 4.333,274.833 4.333 C 274.611 4.333,274.500 4.444,274.500 4.667 C 274.500 4.889,274.389 5.000,274.167 5.000 C 273.983 5.000,273.833 5.104,273.833 5.231 C 273.833 5.357,273.683 5.500,273.500 5.548 C 273.317 5.596,273.167 5.746,273.167 5.882 C 273.167 6.017,273.017 6.167,272.833 6.215 C 272.650 6.263,272.500 6.422,272.500 6.568 C 272.500 6.722,272.361 6.833,272.167 6.833 C 271.944 6.833,271.833 6.944,271.833 7.167 C 271.833 7.389,271.722 7.500,271.500 7.500 C 271.278 7.500,271.167 7.611,271.167 7.833 C 271.167 8.056,271.056 8.167,270.833 8.167 C 270.611 8.167,270.500 8.278,270.500 8.500 C 270.500 8.722,270.389 8.833,270.167 8.833 C 269.944 8.833,269.833 8.944,269.833 9.167 C 269.833 9.389,269.722 9.500,269.500 9.500 C 269.278 9.500,269.167 9.611,269.167 9.833 C 269.167 10.056,269.056 10.167,268.833 10.167 C 268.611 10.167,268.500 10.278,268.500 10.500 C 268.500 10.722,268.389 10.833,268.167 10.833 C 267.944 10.833,267.833 10.944,267.833 11.167 C 267.833 11.389,267.722 11.500,267.500 11.500 C 267.285 11.500,267.167 11.611,267.167 11.814 C 267.167 11.988,267.018 12.167,266.833 12.215 C 266.650 12.263,266.500 12.413,266.500 12.548 C 266.500 12.684,266.350 12.834,266.167 12.882 C 265.983 12.930,265.833 13.088,265.833 13.234 C 265.833 13.380,265.721 13.500,265.583 13.500 C 265.444 13.500,265.333 13.648,265.333 13.833 C 265.333 14.056,265.222 14.167,265.000 14.167 C 264.806 14.167,264.667 14.278,264.667 14.432 C 264.667 14.578,264.517 14.737,264.333 14.785 C 264.150 14.833,264.000 14.967,264.000 15.083 C 264.000 15.199,263.850 15.334,263.667 15.382 C 263.483 15.430,263.333 15.580,263.333 15.715 C 263.333 15.850,263.183 16.000,263.000 16.048 C 262.817 16.096,262.667 16.246,262.667 16.382 C 262.667 16.517,262.517 16.667,262.333 16.715 C 262.150 16.763,262.000 16.922,262.000 17.068 C 262.000 17.222,261.861 17.333,261.667 17.333 C 261.444 17.333,261.333 17.444,261.333 17.667 C 261.333 17.889,261.222 18.000,261.000 18.000 C 260.778 18.000,260.667 18.111,260.667 18.333 C 260.667 18.556,260.556 18.667,260.333 18.667 C 260.111 18.667,260.000 18.778,260.000 19.000 C 260.000 19.222,259.889 19.333,259.667 19.333 C 259.444 19.333,259.333 19.444,259.333 19.667 C 259.333 19.889,259.222 20.000,259.000 20.000 C 258.778 20.000,258.667 20.111,258.667 20.333 C 258.667 20.556,258.556 20.667,258.333 20.667 C 258.111 20.667,258.000 20.778,258.000 21.000 C 258.000 21.194,257.889 21.333,257.734 21.333 C 257.588 21.333,257.430 21.483,257.382 21.667 C 257.334 21.850,257.184 22.000,257.048 22.000 C 256.913 22.000,256.763 22.150,256.715 22.333 C 256.667 22.517,256.529 22.667,256.408 22.667 C 256.288 22.667,256.142 22.817,256.083 23.000 C 256.025 23.183,255.879 23.333,255.758 23.333 C 255.638 23.333,255.500 23.483,255.452 23.667 C 255.404 23.850,255.245 24.000,255.099 24.000 C 254.953 24.000,254.833 24.107,254.833 24.239 C 254.833 24.370,254.683 24.525,254.500 24.583 C 254.317 24.642,254.167 24.797,254.167 24.928 C 254.167 25.059,254.047 25.167,253.901 25.167 C 253.755 25.167,253.596 25.317,253.548 25.500 C 253.500 25.683,253.350 25.833,253.215 25.833 C 253.080 25.833,252.930 25.983,252.882 26.167 C 252.834 26.350,252.684 26.500,252.548 26.500 C 252.413 26.500,252.263 26.650,252.215 26.833 C 252.167 27.017,252.017 27.167,251.882 27.167 C 251.746 27.167,251.596 27.317,251.548 27.500 C 251.500 27.683,251.350 27.833,251.215 27.833 C 251.080 27.833,250.930 27.983,250.882 28.167 C 250.833 28.351,250.654 28.500,250.481 28.500 C 250.278 28.500,250.167 28.618,250.167 28.833 C 250.167 29.027,250.056 29.167,249.901 29.167 C 249.755 29.167,249.596 29.317,249.548 29.500 C 249.500 29.683,249.350 29.833,249.215 29.833 C 249.080 29.833,248.930 29.983,248.882 30.167 C 248.834 30.350,248.684 30.500,248.548 30.500 C 248.413 30.500,248.263 30.650,248.215 30.833 C 248.167 31.017,248.017 31.167,247.882 31.167 C 247.746 31.167,247.598 31.310,247.552 31.485 C 247.507 31.659,247.326 31.840,247.151 31.886 C 246.976 31.931,246.833 32.088,246.833 32.234 C 246.833 32.380,246.726 32.500,246.595 32.500 C 246.463 32.500,246.308 32.650,246.250 32.833 C 246.192 33.017,246.037 33.167,245.905 33.167 C 245.774 33.167,245.667 33.286,245.667 33.432 C 245.667 33.578,245.517 33.737,245.333 33.785 C 245.150 33.833,245.000 33.971,245.000 34.092 C 245.000 34.212,244.850 34.358,244.667 34.417 C 244.483 34.475,244.333 34.621,244.333 34.742 C 244.333 34.862,244.183 35.000,244.000 35.048 C 243.817 35.096,243.667 35.246,243.667 35.382 C 243.667 35.517,243.517 35.667,243.333 35.715 C 243.150 35.763,243.000 35.913,243.000 36.048 C 243.000 36.184,242.850 36.334,242.667 36.382 C 242.483 36.430,242.333 36.580,242.333 36.715 C 242.333 36.850,242.183 37.000,242.000 37.048 C 241.817 37.096,241.667 37.246,241.667 37.382 C 241.667 37.517,241.517 37.667,241.333 37.715 C 241.150 37.763,241.000 37.913,241.000 38.048 C 241.000 38.184,240.850 38.334,240.667 38.382 C 240.483 38.430,240.333 38.580,240.333 38.715 C 240.333 38.850,240.183 39.000,240.000 39.048 C 239.817 39.096,239.667 39.246,239.667 39.382 C 239.667 39.517,239.517 39.667,239.333 39.715 C 239.150 39.763,239.000 39.913,239.000 40.048 C 239.000 40.184,238.850 40.334,238.667 40.382 C 238.483 40.430,238.333 40.588,238.333 40.734 C 238.333 40.880,238.226 41.000,238.095 41.000 C 237.963 41.000,237.808 41.150,237.750 41.333 C 237.692 41.517,237.542 41.667,237.417 41.667 C 237.292 41.667,237.142 41.817,237.083 42.000 C 237.025 42.183,236.870 42.333,236.739 42.333 C 236.607 42.333,236.500 42.453,236.500 42.599 C 236.500 42.745,236.350 42.904,236.167 42.952 C 235.983 43.000,235.833 43.150,235.833 43.285 C 235.833 43.420,235.683 43.570,235.500 43.618 C 235.317 43.666,235.167 43.804,235.167 43.925 C 235.167 44.046,235.017 44.192,234.833 44.250 C 234.650 44.308,234.500 44.458,234.500 44.583 C 234.500 44.708,234.350 44.858,234.167 44.917 C 233.983 44.975,233.833 45.130,233.833 45.261 C 233.833 45.393,233.714 45.500,233.568 45.500 C 233.422 45.500,233.263 45.650,233.215 45.833 C 233.167 46.017,233.017 46.167,232.882 46.167 C 232.746 46.167,232.596 46.317,232.548 46.500 C 232.500 46.683,232.350 46.833,232.215 46.833 C 232.080 46.833,231.930 46.983,231.882 47.167 C 231.834 47.350,231.684 47.500,231.548 47.500 C 231.413 47.500,231.263 47.650,231.215 47.833 C 231.167 48.017,231.017 48.167,230.882 48.167 C 230.746 48.167,230.596 48.317,230.548 48.500 C 230.500 48.683,230.350 48.833,230.215 48.833 C 230.080 48.833,229.930 48.983,229.882 49.167 C 229.834 49.350,229.696 49.500,229.575 49.500 C 229.454 49.500,229.308 49.650,229.250 49.833 C 229.192 50.017,229.042 50.167,228.917 50.167 C 228.792 50.167,228.642 50.317,228.583 50.500 C 228.525 50.683,228.379 50.833,228.258 50.833 C 228.138 50.833,228.000 50.983,227.952 51.167 C 227.904 51.350,227.754 51.500,227.618 51.500 C 227.483 51.500,227.333 51.650,227.285 51.833 C 227.237 52.017,227.087 52.167,226.952 52.167 C 226.816 52.167,226.666 52.317,226.618 52.500 C 226.570 52.683,226.420 52.833,226.285 52.833 C 226.150 52.833,226.000 52.983,225.952 53.167 C 225.904 53.350,225.754 53.500,225.618 53.500 C 225.483 53.500,225.333 53.650,225.285 53.833 C 225.237 54.017,225.087 54.167,224.952 54.167 C 224.816 54.167,224.666 54.317,224.618 54.500 C 224.570 54.683,224.412 54.833,224.266 54.833 C 224.120 54.833,224.000 54.915,224.000 55.014 C 224.000 55.114,223.569 55.617,223.042 56.132 L 222.083 57.068 222.000 53.301 C 221.927 50.022,221.879 49.492,221.625 49.212 C 221.360 48.920,221.333 48.398,221.333 43.455 C 221.333 38.244,221.320 38.009,221.006 37.790 C 220.694 37.571,220.677 37.306,220.631 31.934 C 220.588 26.800,220.558 26.287,220.292 26.093 C 220.024 25.898,220.000 25.428,220.000 20.424 C 220.000 15.109,219.991 14.967,219.667 14.882 C 219.342 14.797,219.333 14.654,219.333 9.161 C 219.333 2.588,219.407 3.000,218.226 3.000 L 217.321 3.000 217.369 8.816 M290.833 3.667 L 290.833 4.333 311.833 4.333 L 332.833 4.333 332.833 5.000 C 332.833 5.556,332.778 5.667,332.500 5.667 C 332.231 5.667,332.167 5.778,332.167 6.239 C 332.167 6.664,332.081 6.838,331.833 6.917 C 331.587 6.995,331.500 7.169,331.500 7.583 C 331.500 7.998,331.413 8.172,331.167 8.250 C 330.925 8.327,330.833 8.502,330.833 8.888 C 330.833 9.239,330.720 9.490,330.500 9.628 C 330.312 9.746,330.167 10.017,330.167 10.251 C 330.167 10.480,330.017 10.817,329.833 11.000 C 329.650 11.183,329.500 11.523,329.500 11.755 C 329.500 11.987,329.390 12.220,329.255 12.271 C 329.120 12.323,328.958 12.636,328.896 12.966 C 328.834 13.297,328.645 13.716,328.475 13.898 C 328.305 14.081,328.167 14.469,328.167 14.762 C 328.167 15.154,328.079 15.317,327.833 15.382 C 327.581 15.448,327.500 15.609,327.500 16.048 C 327.500 16.488,327.419 16.649,327.167 16.715 C 326.914 16.781,326.833 16.942,326.833 17.382 C 326.833 17.821,326.753 17.982,326.500 18.048 C 326.245 18.115,326.167 18.276,326.167 18.734 C 326.167 19.154,326.092 19.333,325.919 19.333 C 325.758 19.333,325.633 19.569,325.564 20.000 C 325.500 20.402,325.367 20.667,325.229 20.667 C 325.073 20.667,325.000 20.879,325.000 21.333 C 325.000 21.889,324.944 22.000,324.667 22.000 C 324.389 22.000,324.333 22.111,324.333 22.667 C 324.333 23.222,324.278 23.333,324.000 23.333 C 323.722 23.333,323.667 23.444,323.667 24.000 C 323.667 24.556,323.611 24.667,323.333 24.667 C 323.065 24.667,323.000 24.778,323.000 25.239 C 323.000 25.664,322.915 25.838,322.667 25.917 C 322.420 25.995,322.333 26.169,322.333 26.583 C 322.333 26.998,322.246 27.172,322.000 27.250 C 321.758 27.327,321.667 27.502,321.667 27.888 C 321.667 28.239,321.554 28.490,321.333 28.628 C 321.119 28.762,321.000 29.017,321.000 29.340 C 321.000 29.630,320.896 29.884,320.755 29.938 C 320.620 29.990,320.458 30.303,320.396 30.633 C 320.334 30.964,320.145 31.383,319.975 31.565 C 319.805 31.747,319.667 32.106,319.667 32.363 C 319.667 32.650,319.538 32.911,319.333 33.039 C 319.115 33.175,319.000 33.427,319.000 33.771 C 319.000 34.154,318.911 34.318,318.667 34.382 C 318.414 34.448,318.333 34.609,318.333 35.048 C 318.333 35.488,318.253 35.649,318.000 35.715 C 317.747 35.781,317.667 35.942,317.667 36.382 C 317.667 36.821,317.586 36.982,317.333 37.048 C 317.081 37.114,317.000 37.276,317.000 37.715 C 317.000 38.154,316.919 38.316,316.667 38.382 C 316.411 38.448,316.333 38.609,316.333 39.068 C 316.333 39.487,316.259 39.667,316.085 39.667 C 315.925 39.667,315.800 39.902,315.731 40.333 C 315.666 40.735,315.533 41.000,315.395 41.000 C 315.265 41.000,315.167 41.173,315.167 41.403 C 315.167 41.978,315.001 42.333,314.732 42.333 C 314.572 42.333,314.500 42.541,314.500 43.000 C 314.500 43.556,314.444 43.667,314.167 43.667 C 313.898 43.667,313.833 43.778,313.833 44.239 C 313.833 44.664,313.748 44.838,313.500 44.917 C 313.254 44.995,313.167 45.169,313.167 45.583 C 313.167 45.998,313.080 46.172,312.833 46.250 C 312.591 46.327,312.500 46.502,312.500 46.891 C 312.500 47.220,312.372 47.536,312.167 47.711 C 311.983 47.868,311.833 48.188,311.833 48.422 C 311.833 48.656,311.683 49.008,311.500 49.205 C 311.317 49.402,311.167 49.773,311.167 50.030 C 311.167 50.317,311.038 50.578,310.833 50.705 C 310.596 50.854,310.500 51.094,310.500 51.540 C 310.500 52.056,310.441 52.167,310.167 52.167 C 309.899 52.167,309.833 52.278,309.833 52.731 C 309.833 53.154,309.750 53.316,309.500 53.382 C 309.247 53.448,309.167 53.609,309.167 54.048 C 309.167 54.488,309.086 54.649,308.833 54.715 C 308.581 54.781,308.500 54.942,308.500 55.382 C 308.500 55.821,308.419 55.982,308.167 56.048 C 307.914 56.114,307.833 56.276,307.833 56.715 C 307.833 57.154,307.753 57.316,307.500 57.382 C 307.245 57.448,307.167 57.609,307.167 58.068 C 307.167 58.469,307.090 58.667,306.934 58.667 C 306.666 58.667,306.500 59.022,306.500 59.597 C 306.500 59.833,306.402 60.000,306.265 60.000 C 306.120 60.000,305.986 60.257,305.917 60.667 C 305.852 61.052,305.711 61.333,305.583 61.333 C 305.456 61.333,305.315 61.615,305.250 62.000 C 305.181 62.410,305.047 62.667,304.902 62.667 C 304.743 62.667,304.667 62.861,304.667 63.266 C 304.667 63.724,304.589 63.885,304.333 63.952 C 304.084 64.017,304.000 64.179,304.000 64.597 C 304.000 64.984,303.898 65.209,303.667 65.333 C 303.432 65.459,303.333 65.682,303.333 66.089 C 303.333 66.472,303.255 66.667,303.101 66.667 C 302.846 66.667,302.667 67.017,302.667 67.514 C 302.667 67.689,302.517 67.983,302.333 68.167 C 302.111 68.389,302.000 68.722,302.000 69.167 C 302.000 69.722,301.944 69.833,301.667 69.833 C 301.395 69.833,301.333 69.944,301.333 70.432 C 301.333 70.891,301.255 71.052,301.000 71.118 C 300.752 71.183,300.667 71.346,300.667 71.750 C 300.667 72.154,300.581 72.317,300.333 72.382 C 300.081 72.448,300.000 72.609,300.000 73.048 C 300.000 73.488,299.919 73.649,299.667 73.715 C 299.414 73.781,299.333 73.942,299.333 74.382 C 299.333 74.821,299.253 74.982,299.000 75.048 C 298.747 75.114,298.667 75.276,298.667 75.715 C 298.667 76.154,298.586 76.316,298.333 76.382 C 298.081 76.448,298.000 76.609,298.000 77.048 C 298.000 77.488,297.919 77.649,297.667 77.715 C 297.411 77.782,297.333 77.942,297.333 78.401 C 297.333 78.802,297.257 79.000,297.101 79.000 C 296.832 79.000,296.667 79.355,296.667 79.930 C 296.667 80.166,296.569 80.333,296.431 80.333 C 296.287 80.333,296.153 80.590,296.083 81.000 C 296.020 81.373,295.876 81.667,295.757 81.667 C 295.637 81.667,295.497 81.952,295.439 82.315 C 295.382 82.672,295.222 83.007,295.084 83.060 C 294.929 83.120,294.833 83.372,294.833 83.725 C 294.833 84.154,294.751 84.316,294.500 84.382 C 294.257 84.445,294.167 84.609,294.167 84.984 C 294.167 85.278,294.023 85.644,293.833 85.833 C 293.649 86.018,293.500 86.389,293.500 86.665 C 293.500 86.983,293.379 87.239,293.167 87.372 C 292.929 87.520,292.833 87.761,292.833 88.207 C 292.833 88.722,292.774 88.833,292.500 88.833 C 292.231 88.833,292.167 88.944,292.167 89.405 C 292.167 89.831,292.081 90.005,291.833 90.083 C 291.588 90.161,291.500 90.336,291.500 90.742 C 291.500 91.154,291.415 91.317,291.167 91.382 C 290.914 91.448,290.833 91.609,290.833 92.048 C 290.833 92.488,290.753 92.649,290.500 92.715 C 290.247 92.781,290.167 92.942,290.167 93.382 C 290.167 93.821,290.086 93.982,289.833 94.048 C 289.581 94.114,289.500 94.276,289.500 94.715 C 289.500 95.154,289.419 95.316,289.167 95.382 C 288.914 95.448,288.833 95.609,288.833 96.048 C 288.833 96.488,288.753 96.649,288.500 96.715 C 288.245 96.782,288.167 96.942,288.167 97.401 C 288.167 97.802,288.090 98.000,287.934 98.000 C 287.666 98.000,287.500 98.355,287.500 98.930 C 287.500 99.176,287.403 99.333,287.252 99.333 C 287.091 99.333,286.966 99.569,286.897 100.000 C 286.834 100.399,286.700 100.667,286.564 100.667 C 286.429 100.667,286.295 100.932,286.232 101.323 C 286.175 101.684,286.024 102.019,285.897 102.068 C 285.770 102.116,285.667 102.291,285.667 102.456 C 285.667 102.620,285.517 103.035,285.333 103.377 C 285.150 103.719,285.000 104.186,285.000 104.415 C 285.000 104.650,284.855 104.921,284.667 105.039 C 284.429 105.187,284.333 105.427,284.333 105.873 C 284.333 106.389,284.274 106.500,284.000 106.500 C 283.722 106.500,283.667 106.611,283.667 107.167 C 283.667 107.722,283.611 107.833,283.333 107.833 C 283.065 107.833,283.000 107.944,283.000 108.405 C 283.000 108.831,282.915 109.005,282.667 109.083 C 282.422 109.161,282.333 109.336,282.333 109.742 C 282.333 110.154,282.249 110.317,282.000 110.382 C 281.745 110.448,281.667 110.609,281.667 111.068 C 281.667 111.556,281.605 111.667,281.333 111.667 C 281.057 111.667,281.000 111.778,281.000 112.314 C 281.000 112.821,280.928 112.980,280.667 113.048 C 280.414 113.114,280.333 113.276,280.333 113.715 C 280.333 114.154,280.253 114.316,280.000 114.382 C 279.747 114.448,279.667 114.609,279.667 115.048 C 279.667 115.488,279.586 115.649,279.333 115.715 C 279.040 115.792,279.000 115.942,279.000 116.984 L 279.000 118.167 280.000 118.167 L 281.000 118.167 281.000 117.595 C 281.000 117.169,281.085 116.995,281.333 116.917 C 281.580 116.838,281.667 116.664,281.667 116.250 C 281.667 115.836,281.754 115.662,282.000 115.583 C 282.242 115.507,282.333 115.331,282.333 114.946 C 282.333 114.594,282.446 114.343,282.667 114.205 C 282.875 114.075,283.000 113.817,283.000 113.516 C 283.000 113.251,283.108 112.994,283.241 112.943 C 283.373 112.892,283.531 112.590,283.591 112.270 C 283.650 111.951,283.800 111.651,283.924 111.604 C 284.047 111.556,284.197 111.256,284.257 110.937 C 284.317 110.618,284.467 110.318,284.591 110.270 C 284.714 110.223,284.864 109.920,284.925 109.598 C 284.985 109.276,285.140 108.925,285.267 108.819 C 285.395 108.713,285.500 108.391,285.500 108.103 C 285.500 107.761,285.615 107.508,285.833 107.372 C 286.076 107.220,286.167 106.983,286.167 106.499 C 286.167 105.944,286.222 105.833,286.500 105.833 C 286.778 105.833,286.833 105.722,286.833 105.167 C 286.833 104.611,286.889 104.500,287.167 104.500 C 287.444 104.500,287.500 104.389,287.500 103.833 C 287.500 103.278,287.556 103.167,287.833 103.167 C 288.111 103.167,288.167 103.056,288.167 102.500 C 288.167 101.944,288.222 101.833,288.500 101.833 C 288.778 101.833,288.833 101.722,288.833 101.167 C 288.833 100.611,288.889 100.500,289.167 100.500 C 289.444 100.500,289.500 100.389,289.500 99.833 C 289.500 99.278,289.556 99.167,289.833 99.167 C 290.105 99.167,290.167 99.056,290.167 98.568 C 290.167 98.109,290.245 97.948,290.500 97.882 C 290.744 97.818,290.833 97.654,290.833 97.271 C 290.833 96.927,290.948 96.675,291.167 96.539 C 291.369 96.412,291.500 96.150,291.500 95.872 C 291.500 95.594,291.631 95.332,291.833 95.205 C 292.022 95.088,292.167 94.817,292.167 94.582 C 292.167 94.354,292.317 94.017,292.500 93.833 C 292.683 93.650,292.833 93.321,292.833 93.101 C 292.833 92.882,292.939 92.662,293.068 92.612 C 293.196 92.563,293.356 92.274,293.423 91.970 C 293.489 91.665,293.684 91.238,293.855 91.019 C 294.026 90.801,294.167 90.456,294.167 90.253 C 294.167 90.051,294.317 89.749,294.500 89.583 C 294.686 89.415,294.833 89.070,294.833 88.802 C 294.833 88.530,294.941 88.281,295.083 88.227 C 295.246 88.164,295.333 87.905,295.333 87.482 C 295.333 86.944,295.390 86.833,295.667 86.833 C 295.944 86.833,296.000 86.722,296.000 86.167 C 296.000 85.611,296.056 85.500,296.333 85.500 C 296.611 85.500,296.667 85.389,296.667 84.833 C 296.667 84.278,296.722 84.167,297.000 84.167 C 297.278 84.167,297.333 84.056,297.333 83.500 C 297.333 82.944,297.389 82.833,297.667 82.833 C 297.944 82.833,298.000 82.722,298.000 82.167 C 298.000 81.611,298.056 81.500,298.333 81.500 C 298.611 81.500,298.667 81.389,298.667 80.833 C 298.667 80.278,298.722 80.167,299.000 80.167 C 299.271 80.167,299.333 80.056,299.333 79.568 C 299.333 79.109,299.411 78.948,299.667 78.882 C 299.915 78.817,300.000 78.654,300.000 78.242 C 300.000 77.836,300.088 77.661,300.333 77.583 C 300.575 77.507,300.667 77.331,300.667 76.946 C 300.667 76.594,300.780 76.343,301.000 76.205 C 301.188 76.088,301.333 75.817,301.333 75.582 C 301.333 75.354,301.483 75.017,301.667 74.833 C 301.850 74.650,302.000 74.310,302.000 74.078 C 302.000 73.846,302.113 73.613,302.251 73.560 C 302.389 73.507,302.548 73.175,302.604 72.823 C 302.661 72.470,302.848 72.054,303.020 71.898 C 303.192 71.743,303.333 71.404,303.333 71.147 C 303.333 70.849,303.455 70.613,303.667 70.500 C 303.898 70.376,304.000 70.151,304.000 69.764 C 304.000 69.346,304.084 69.184,304.333 69.118 C 304.589 69.052,304.667 68.891,304.667 68.432 C 304.667 68.011,304.741 67.833,304.917 67.833 C 305.097 67.833,305.167 67.648,305.167 67.167 C 305.167 66.611,305.222 66.500,305.500 66.500 C 305.778 66.500,305.833 66.389,305.833 65.833 C 305.833 65.278,305.889 65.167,306.167 65.167 C 306.444 65.167,306.500 65.056,306.500 64.500 C 306.500 63.944,306.556 63.833,306.833 63.833 C 307.111 63.833,307.167 63.722,307.167 63.167 C 307.167 62.611,307.222 62.500,307.500 62.500 C 307.778 62.500,307.833 62.389,307.833 61.833 C 307.833 61.278,307.889 61.167,308.167 61.167 C 308.438 61.167,308.500 61.056,308.500 60.568 C 308.500 60.109,308.578 59.948,308.833 59.882 C 309.082 59.817,309.167 59.654,309.167 59.242 C 309.167 58.836,309.255 58.661,309.500 58.583 C 309.742 58.507,309.833 58.331,309.833 57.946 C 309.833 57.594,309.946 57.343,310.167 57.205 C 310.381 57.072,310.500 56.817,310.500 56.493 C 310.500 56.203,310.604 55.950,310.745 55.895 C 310.880 55.844,311.040 55.540,311.100 55.221 C 311.160 54.901,311.312 54.600,311.439 54.552 C 311.565 54.503,311.715 54.175,311.771 53.823 C 311.827 53.470,312.014 53.054,312.187 52.898 C 312.370 52.733,312.500 52.392,312.500 52.077 C 312.500 51.679,312.587 51.516,312.833 51.452 C 313.086 51.386,313.167 51.224,313.167 50.785 C 313.167 50.346,313.247 50.184,313.500 50.118 C 313.753 50.052,313.833 49.891,313.833 49.452 C 313.833 49.012,313.914 48.851,314.167 48.785 C 314.422 48.718,314.500 48.558,314.500 48.099 C 314.500 47.678,314.574 47.500,314.750 47.500 C 314.931 47.500,315.000 47.315,315.000 46.833 C 315.000 46.278,315.056 46.167,315.333 46.167 C 315.611 46.167,315.667 46.056,315.667 45.500 C 315.667 44.944,315.722 44.833,316.000 44.833 C 316.278 44.833,316.333 44.722,316.333 44.167 C 316.333 43.611,316.389 43.500,316.667 43.500 C 316.938 43.500,317.000 43.389,317.000 42.901 C 317.000 42.442,317.078 42.282,317.333 42.215 C 317.594 42.147,317.667 41.988,317.667 41.481 C 317.667 40.944,317.724 40.833,318.000 40.833 C 318.269 40.833,318.333 40.722,318.333 40.256 C 318.333 39.849,318.432 39.626,318.667 39.500 C 318.884 39.384,319.000 39.151,319.000 38.833 C 319.000 38.516,319.116 38.283,319.333 38.167 C 319.568 38.041,319.667 37.818,319.667 37.411 C 319.667 37.011,319.743 36.833,319.915 36.833 C 320.075 36.833,320.200 36.599,320.268 36.174 C 320.326 35.812,320.514 35.388,320.687 35.232 C 320.859 35.076,321.000 34.736,321.000 34.476 C 321.000 34.183,321.127 33.923,321.333 33.795 C 321.552 33.658,321.667 33.406,321.667 33.063 C 321.667 32.679,321.756 32.516,322.000 32.452 C 322.253 32.386,322.333 32.224,322.333 31.785 C 322.333 31.346,322.414 31.184,322.667 31.118 C 322.919 31.052,323.000 30.891,323.000 30.452 C 323.000 30.012,323.081 29.851,323.333 29.785 C 323.586 29.719,323.667 29.558,323.667 29.118 C 323.667 28.679,323.747 28.518,324.000 28.452 C 324.255 28.385,324.333 28.224,324.333 27.766 C 324.333 27.365,324.410 27.167,324.566 27.167 C 324.834 27.167,325.000 26.812,325.000 26.236 C 325.000 25.989,325.097 25.833,325.250 25.833 C 325.431 25.833,325.500 25.648,325.500 25.167 C 325.500 24.611,325.556 24.500,325.833 24.500 C 326.105 24.500,326.167 24.389,326.167 23.901 C 326.167 23.442,326.245 23.282,326.500 23.215 C 326.761 23.147,326.833 22.988,326.833 22.481 C 326.833 21.944,326.891 21.833,327.167 21.833 C 327.436 21.833,327.500 21.722,327.500 21.256 C 327.500 20.849,327.598 20.626,327.833 20.500 C 328.068 20.374,328.167 20.151,328.167 19.744 C 328.167 19.362,328.245 19.167,328.399 19.167 C 328.663 19.167,328.833 18.813,328.833 18.262 C 328.833 18.055,328.983 17.749,329.167 17.583 C 329.351 17.417,329.500 17.070,329.500 16.809 C 329.500 16.517,329.627 16.257,329.833 16.128 C 330.071 15.980,330.167 15.739,330.167 15.293 C 330.167 14.778,330.226 14.667,330.500 14.667 C 330.768 14.667,330.833 14.556,330.833 14.103 C 330.833 13.679,330.916 13.517,331.167 13.452 C 331.419 13.386,331.500 13.224,331.500 12.785 C 331.500 12.346,331.581 12.184,331.833 12.118 C 332.086 12.052,332.167 11.891,332.167 11.452 C 332.167 11.012,332.247 10.851,332.500 10.785 C 332.753 10.719,332.833 10.558,332.833 10.118 C 332.833 9.679,332.914 9.518,333.167 9.452 C 333.422 9.385,333.500 9.224,333.500 8.766 C 333.500 8.365,333.577 8.167,333.732 8.167 C 334.001 8.167,334.167 7.812,334.167 7.236 C 334.167 7.003,334.264 6.833,334.399 6.833 C 334.668 6.833,334.833 6.478,334.833 5.903 C 334.833 5.656,334.930 5.500,335.083 5.500 C 335.258 5.500,335.333 5.324,335.333 4.917 L 335.333 4.333 357.000 4.333 L 378.667 4.333 378.667 3.667 L 378.667 3.000 334.750 3.000 L 290.833 3.000 290.833 3.667 " stroke="none" fill="#0c1c14" fill-rule="evenodd"></path><path id="path1" d="" stroke="none" fill="#0c1c1c" fill-rule="evenodd"></path><path id="path2" d="" stroke="none" fill="#101c14" fill-rule="evenodd"></path><path id="path3" d="" stroke="none" fill="#101c14" fill-rule="evenodd"></path><path id="path4" d="" stroke="none" fill="#101c14" fill-rule="evenodd"></path></g></svg>