<svg id="svg" version="1.1" xmlns="http://www.w3.org/2000/svg" xmlns:xlink="http://www.w3.org/1999/xlink" width="400" height="223.76237623762378" viewBox="0, 0, 400,223.76237623762378"><g id="svgg"><path id="path0" d="M186.753 2.839 C 186.533 3.434,186.233 3.574,185.173 3.578 C 184.468 3.581,184.151 3.697,183.944 4.029 C 183.790 4.275,183.541 4.477,183.390 4.477 C 182.655 4.477,182.388 7.436,183.063 8.110 C 183.562 8.610,185.775 8.456,186.233 7.890 C 186.533 7.521,186.879 7.387,187.531 7.387 C 188.232 7.387,188.445 7.292,188.537 6.939 C 188.691 6.351,189.517 6.351,189.703 6.939 C 189.814 7.287,190.042 7.387,190.726 7.387 C 191.470 7.387,191.606 7.459,191.606 7.855 C 191.606 8.136,191.786 8.371,192.054 8.441 C 192.300 8.505,192.501 8.686,192.501 8.842 C 192.501 8.998,192.753 9.291,193.061 9.493 C 193.480 9.767,193.621 10.054,193.621 10.638 L 193.621 11.416 195.076 11.416 L 196.530 11.416 196.530 12.634 C 196.530 13.572,196.627 13.920,196.950 14.146 C 197.315 14.402,197.381 14.823,197.462 17.405 L 197.554 20.369 197.042 20.369 C 196.541 20.369,196.530 20.418,196.530 22.778 C 196.530 24.944,196.485 25.214,196.083 25.466 C 195.669 25.724,195.635 25.988,195.635 28.977 C 195.635 32.115,195.619 32.227,195.076 32.814 C 194.551 33.380,194.516 33.567,194.516 35.821 C 194.516 38.036,194.481 38.233,194.068 38.341 C 193.651 38.451,193.621 38.647,193.621 41.262 C 193.621 43.810,193.582 44.078,193.200 44.200 C 192.683 44.364,192.501 45.190,192.501 47.370 C 192.501 48.871,192.461 49.021,192.054 49.021 C 191.652 49.021,191.606 49.170,191.606 50.461 C 191.606 51.683,191.541 51.921,191.177 52.037 C 190.801 52.156,190.727 52.483,190.588 54.626 C 190.446 56.817,190.385 57.079,190.010 57.079 C 189.644 57.079,189.591 57.261,189.591 58.534 C 189.591 59.840,189.546 59.989,189.144 59.989 C 188.741 59.989,188.696 60.138,188.696 61.465 C 188.696 62.724,188.634 62.957,188.272 63.051 C 187.832 63.167,187.577 63.962,187.577 65.223 C 187.577 65.682,187.422 66.021,187.129 66.204 C 186.771 66.428,186.682 66.726,186.682 67.702 C 186.682 68.489,186.574 68.983,186.379 69.099 C 185.840 69.417,185.562 70.228,185.562 71.487 C 185.562 72.521,185.491 72.740,185.115 72.860 C 184.728 72.982,184.667 73.198,184.667 74.441 C 184.667 75.732,184.621 75.881,184.219 75.881 C 183.818 75.881,183.772 76.031,183.772 77.325 C 183.772 78.554,183.689 78.858,183.212 79.372 C 182.737 79.884,182.652 80.191,182.652 81.398 C 182.652 82.671,182.606 82.820,182.205 82.820 C 181.804 82.820,181.757 82.970,181.757 84.260 C 181.757 85.582,181.716 85.705,181.253 85.771 C 180.837 85.830,180.738 86.003,180.682 86.770 C 180.631 87.469,180.506 87.727,180.179 87.813 C 179.807 87.910,179.743 88.127,179.743 89.291 C 179.743 90.475,179.687 90.655,179.323 90.655 C 178.874 90.655,178.623 91.419,178.623 92.783 C 178.623 93.324,178.508 93.543,178.176 93.629 C 177.813 93.724,177.728 93.935,177.728 94.740 C 177.728 95.449,177.600 95.850,177.280 96.139 C 176.965 96.424,176.833 96.828,176.833 97.506 C 176.833 98.234,176.696 98.605,176.273 99.028 C 175.840 99.461,175.713 99.819,175.713 100.605 C 175.713 101.326,175.622 101.623,175.402 101.623 C 174.980 101.623,174.818 102.121,174.818 103.416 C 174.818 104.371,174.758 104.510,174.314 104.573 C 173.898 104.632,173.799 104.806,173.743 105.573 C 173.692 106.271,173.567 106.529,173.240 106.615 C 172.868 106.712,172.804 106.930,172.804 108.093 C 172.804 109.287,172.750 109.457,172.376 109.457 C 172.046 109.457,171.911 109.676,171.790 110.409 C 171.704 110.932,171.443 111.540,171.211 111.760 C 170.908 112.048,170.789 112.474,170.789 113.271 C 170.789 114.232,170.729 114.382,170.341 114.382 C 169.957 114.382,169.893 114.532,169.890 115.445 C 169.887 116.283,169.768 116.620,169.330 117.035 C 168.924 117.421,168.774 117.797,168.774 118.434 C 168.774 119.157,168.698 119.306,168.327 119.306 C 167.946 119.306,167.879 119.455,167.879 120.298 C 167.879 121.156,167.811 121.299,167.375 121.361 C 166.957 121.421,166.860 121.593,166.803 122.384 C 166.747 123.153,166.651 123.335,166.299 123.335 C 165.934 123.335,165.865 123.494,165.865 124.327 C 165.865 125.123,165.776 125.348,165.417 125.462 C 165.054 125.577,164.969 125.802,164.966 126.652 C 164.962 127.803,164.830 128.108,164.242 128.325 C 163.948 128.433,163.850 128.722,163.850 129.484 C 163.850 130.201,163.759 130.498,163.538 130.498 C 163.180 130.498,162.955 130.974,162.955 131.732 C 162.955 132.062,162.787 132.312,162.507 132.401 C 162.198 132.499,162.016 132.815,161.919 133.423 C 161.813 134.084,161.674 134.303,161.359 134.303 C 161.012 134.303,160.940 134.475,160.940 135.311 C 160.940 136.158,160.871 136.318,160.506 136.318 C 160.165 136.318,160.041 136.528,159.924 137.305 C 159.818 138.010,159.655 138.324,159.351 138.403 C 159.030 138.487,158.926 138.717,158.926 139.339 C 158.926 139.825,158.742 140.398,158.478 140.734 C 158.232 141.047,158.030 141.589,158.030 141.939 C 158.030 142.370,157.850 142.693,157.471 142.942 C 157.151 143.151,156.911 143.522,156.911 143.808 C 156.911 144.082,156.710 144.489,156.463 144.712 C 156.217 144.935,156.016 145.298,156.016 145.520 C 156.016 145.741,155.764 146.174,155.456 146.482 C 155.023 146.915,154.896 147.272,154.896 148.059 C 154.896 148.927,154.831 149.077,154.449 149.077 C 154.067 149.077,154.001 149.226,154.001 150.084 C 154.001 150.939,153.934 151.091,153.558 151.091 C 153.275 151.091,153.065 151.288,152.978 151.635 C 152.903 151.933,152.705 152.230,152.538 152.294 C 152.372 152.358,152.170 152.759,152.090 153.185 C 151.997 153.682,151.791 154.000,151.518 154.071 C 151.191 154.157,151.091 154.385,151.091 155.046 C 151.091 155.727,150.985 155.956,150.588 156.130 C 150.221 156.291,150.065 156.574,150.016 157.168 C 149.967 157.754,149.825 158.016,149.512 158.098 C 149.170 158.188,149.077 158.409,149.077 159.128 C 149.077 159.878,149.000 160.045,148.653 160.045 C 148.170 160.045,147.957 160.462,147.957 161.406 C 147.957 161.910,147.855 162.059,147.510 162.059 C 147.135 162.059,147.062 162.209,147.062 162.976 C 147.062 163.692,146.968 163.917,146.630 164.005 C 146.337 164.082,146.153 164.391,146.055 164.969 C 145.957 165.548,145.773 165.857,145.479 165.934 C 145.142 166.022,145.048 166.246,145.048 166.963 C 145.048 167.730,144.975 167.879,144.600 167.879 C 144.220 167.879,144.152 168.028,144.152 168.871 C 144.152 169.729,144.084 169.872,143.649 169.934 C 143.230 169.994,143.133 170.166,143.076 170.957 C 143.020 171.726,142.924 171.908,142.572 171.908 C 142.280 171.908,142.138 172.062,142.138 172.377 C 142.138 172.651,141.959 172.892,141.706 172.958 C 141.218 173.086,140.946 174.214,141.029 175.771 C 141.112 177.358,141.042 177.670,140.571 177.793 C 140.303 177.863,140.123 178.098,140.123 178.379 C 140.123 178.698,139.981 178.847,139.675 178.847 C 139.380 178.847,139.228 178.996,139.228 179.287 C 139.228 179.529,139.031 179.832,138.790 179.961 C 138.546 180.092,138.287 180.541,138.205 180.976 C 138.099 181.541,137.942 181.757,137.636 181.757 C 137.371 181.757,137.213 181.915,137.213 182.181 C 137.213 182.446,137.004 182.657,136.654 182.744 C 136.292 182.835,136.094 183.042,136.094 183.328 C 136.094 183.622,135.943 183.772,135.646 183.772 C 135.348 183.772,135.199 183.921,135.199 184.219 C 135.199 184.466,135.051 184.667,134.871 184.667 C 134.690 184.667,134.431 184.876,134.294 185.132 C 134.157 185.387,133.852 185.790,133.615 186.027 C 133.378 186.264,133.184 186.547,133.184 186.655 C 133.184 186.764,132.983 186.906,132.736 186.970 C 132.490 187.035,132.289 187.236,132.289 187.418 C 132.289 187.600,132.094 187.800,131.856 187.862 C 131.571 187.936,131.371 188.251,131.271 188.783 C 131.161 189.373,131.005 189.591,130.697 189.591 C 130.395 189.591,130.274 189.752,130.274 190.151 C 130.274 190.564,130.155 190.711,129.821 190.711 C 129.550 190.711,129.287 190.924,129.167 191.240 C 129.056 191.531,128.807 191.830,128.613 191.904 C 128.418 191.979,128.260 192.194,128.260 192.382 C 128.260 192.576,128.065 192.725,127.812 192.725 C 127.519 192.725,127.364 192.874,127.364 193.157 C 127.364 193.435,127.184 193.615,126.861 193.661 C 126.537 193.707,126.331 193.912,126.285 194.236 C 126.240 194.560,126.060 194.740,125.782 194.740 C 125.504 194.740,125.350 194.894,125.350 195.172 C 125.350 195.410,125.148 195.669,124.902 195.747 C 124.656 195.825,124.454 196.043,124.454 196.231 C 124.454 196.419,124.256 196.624,124.014 196.688 C 123.772 196.751,123.515 196.988,123.443 197.215 C 123.371 197.441,123.116 197.689,122.876 197.765 C 122.636 197.841,122.440 198.057,122.440 198.245 C 122.440 198.433,122.242 198.639,122.000 198.702 C 121.757 198.765,121.499 199.008,121.425 199.241 C 121.351 199.474,121.144 199.664,120.964 199.664 C 120.785 199.664,120.542 199.916,120.425 200.224 C 120.308 200.532,120.071 200.783,119.897 200.783 C 119.724 200.783,119.529 200.985,119.465 201.231 C 119.395 201.499,119.160 201.679,118.879 201.679 C 118.560 201.679,118.411 201.821,118.411 202.126 C 118.411 202.455,118.262 202.574,117.851 202.574 C 117.454 202.574,117.292 202.695,117.292 202.993 C 117.292 203.309,117.071 203.448,116.396 203.555 C 115.700 203.667,115.501 203.798,115.501 204.144 C 115.501 204.489,115.350 204.589,114.829 204.589 C 114.456 204.589,113.959 204.788,113.710 205.036 C 113.464 205.283,113.098 205.484,112.896 205.484 C 112.695 205.484,112.297 205.736,112.012 206.044 C 111.605 206.482,111.273 206.603,110.475 206.603 C 109.606 206.603,109.457 206.669,109.457 207.051 C 109.457 207.476,109.308 207.499,106.489 207.499 C 103.764 207.499,103.498 207.462,103.242 207.051 C 103.048 206.740,102.720 206.603,102.170 206.603 C 101.612 206.603,101.224 206.437,100.859 206.044 C 100.574 205.736,100.182 205.484,99.989 205.484 C 99.796 205.484,99.575 205.283,99.496 205.036 C 99.415 204.782,99.158 204.589,98.898 204.589 C 98.647 204.589,98.244 204.337,98.001 204.029 C 97.748 203.707,97.331 203.470,97.018 203.470 C 96.637 203.470,96.475 203.345,96.475 203.052 C 96.475 202.822,96.285 202.394,96.054 202.100 C 95.822 201.806,95.595 201.364,95.548 201.118 C 95.499 200.861,95.250 200.641,94.961 200.600 C 94.640 200.554,94.460 200.373,94.460 200.096 C 94.460 199.813,94.305 199.664,94.012 199.664 C 93.722 199.664,93.565 199.515,93.565 199.241 C 93.565 198.758,93.148 198.545,92.203 198.545 C 91.782 198.545,91.550 198.430,91.550 198.220 C 91.550 198.042,91.374 197.793,91.158 197.668 C 90.789 197.452,90.790 197.439,91.172 197.433 C 92.193 197.416,91.544 195.755,90.487 195.678 L 89.536 195.609 89.536 194.615 C 89.536 193.780,89.466 193.621,89.101 193.621 C 88.761 193.621,88.652 193.439,88.598 192.781 C 88.547 192.164,88.395 191.883,88.025 191.721 C 87.320 191.412,87.308 189.805,88.005 189.108 L 88.488 188.624 88.005 188.233 C 87.648 187.944,87.521 187.594,87.521 186.905 C 87.521 186.156,87.431 185.945,87.073 185.851 C 86.784 185.775,86.626 185.546,86.626 185.201 C 86.626 184.822,86.500 184.667,86.193 184.667 C 85.955 184.667,85.697 184.466,85.618 184.219 C 85.540 183.973,85.282 183.772,85.044 183.772 C 84.731 183.772,84.611 183.616,84.611 183.212 C 84.611 182.814,84.732 182.652,85.031 182.652 C 85.994 182.652,85.988 178.260,85.025 178.008 C 84.700 177.923,84.611 177.684,84.611 176.898 C 84.611 176.089,84.526 175.873,84.171 175.780 C 83.775 175.677,83.724 175.435,83.667 173.395 C 83.608 171.285,83.568 171.109,83.100 170.904 C 82.620 170.693,82.597 170.564,82.597 168.095 C 82.597 165.232,82.489 164.969,81.321 164.969 L 80.582 164.969 80.582 162.501 C 80.582 160.062,80.588 160.031,81.153 159.816 C 81.964 159.508,81.907 157.292,81.086 157.175 C 80.597 157.106,80.582 157.028,80.582 154.545 C 80.582 152.136,80.556 151.987,80.134 151.987 C 79.453 151.987,79.453 148.966,80.134 148.788 C 80.756 148.625,80.756 147.513,80.134 147.351 C 79.632 147.219,79.655 147.615,79.686 139.713 C 79.703 135.539,79.687 135.381,79.247 135.266 C 78.850 135.162,78.791 134.967,78.791 133.750 C 78.791 131.095,78.539 129.553,78.085 129.435 C 77.457 129.270,77.477 127.140,78.106 127.140 C 79.001 127.140,79.068 123.502,78.176 123.376 C 77.531 123.284,77.468 122.311,78.093 122.113 C 78.705 121.918,78.791 121.144,78.791 115.825 C 78.791 110.978,78.687 110.353,77.880 110.353 C 77.758 110.353,77.672 108.309,77.672 105.428 C 77.672 100.669,77.687 100.504,78.115 100.504 C 78.986 100.504,78.875 98.293,77.987 97.953 C 77.425 97.737,77.529 84.611,78.094 84.611 C 78.728 84.611,78.785 84.086,78.788 78.202 C 78.791 72.989,78.807 72.796,79.239 72.683 C 79.936 72.500,79.936 62.611,79.239 62.175 C 78.993 62.021,78.790 61.693,78.788 61.446 C 78.780 60.305,78.544 59.989,77.699 59.989 C 77.067 59.989,76.833 59.875,76.662 59.485 C 76.476 59.061,76.239 58.971,75.164 58.915 L 73.888 58.848 73.821 57.460 C 73.762 56.214,73.703 56.064,73.251 56.000 C 72.840 55.942,72.748 55.787,72.748 55.154 C 72.748 54.655,72.622 54.331,72.395 54.243 C 72.201 54.169,71.951 53.870,71.841 53.579 C 71.721 53.263,71.457 53.050,71.186 53.050 C 70.929 53.050,70.733 52.902,70.733 52.709 C 70.733 51.737,63.077 51.577,62.939 52.546 C 62.887 52.911,62.717 53.050,62.324 53.050 C 61.929 53.050,61.780 53.173,61.780 53.497 C 61.780 53.796,61.630 53.945,61.332 53.945 C 60.970 53.945,60.884 54.094,60.884 54.727 C 60.884 55.266,60.745 55.595,60.436 55.788 C 60.190 55.942,59.989 56.295,59.989 56.573 C 59.989 56.922,59.856 57.079,59.561 57.079 C 59.238 57.079,59.097 57.293,58.985 57.952 C 58.884 58.551,58.702 58.861,58.406 58.939 C 58.120 59.014,57.974 59.247,57.974 59.632 C 57.974 59.968,57.848 60.213,57.674 60.213 C 57.361 60.213,56.855 61.118,56.855 61.678 C 56.855 61.857,56.654 62.003,56.407 62.003 C 56.026 62.003,55.960 62.153,55.960 63.011 C 55.960 63.869,55.893 64.018,55.512 64.018 C 55.111 64.018,55.064 64.167,55.064 65.457 C 55.064 66.780,55.023 66.902,54.561 66.968 C 54.142 67.028,54.045 67.200,53.988 67.991 C 53.933 68.760,53.836 68.942,53.485 68.942 C 53.129 68.942,53.050 69.100,53.050 69.813 C 53.050 70.556,52.967 70.705,52.490 70.825 C 52.014 70.944,51.931 71.094,51.931 71.830 C 51.931 72.507,51.833 72.721,51.483 72.812 C 51.092 72.915,51.035 73.118,51.035 74.405 C 51.035 75.702,50.984 75.881,50.614 75.881 C 50.060 75.881,49.923 76.461,49.919 78.821 C 49.916 80.564,49.872 80.765,49.468 80.871 C 49.068 80.975,49.021 81.176,49.021 82.784 C 49.021 84.384,48.972 84.596,48.573 84.723 C 47.806 84.966,47.905 88.352,48.684 88.548 C 48.992 88.625,49.395 88.630,49.580 88.559 C 49.821 88.467,49.916 88.582,49.916 88.968 C 49.916 89.309,49.752 89.557,49.468 89.647 C 49.093 89.767,49.021 89.986,49.021 91.004 C 49.021 91.975,48.931 92.274,48.573 92.497 C 48.204 92.728,48.125 93.019,48.125 94.163 C 48.125 95.429,48.082 95.554,47.622 95.620 C 47.212 95.678,47.105 95.855,47.046 96.577 C 47.000 97.137,46.815 97.573,46.542 97.765 C 46.210 97.997,46.111 98.335,46.111 99.232 C 46.111 100.226,46.037 100.430,45.607 100.618 C 45.139 100.824,45.099 101.000,45.040 103.110 C 44.983 105.150,44.932 105.391,44.536 105.495 C 44.179 105.588,44.096 105.804,44.096 106.638 C 44.096 107.388,44.008 107.666,43.771 107.666 C 43.323 107.666,42.980 109.041,42.978 110.841 C 42.977 112.140,42.918 112.356,42.529 112.479 C 42.121 112.608,42.082 112.818,42.082 114.837 C 42.082 116.823,42.035 117.077,41.634 117.292 C 41.240 117.502,41.186 117.760,41.186 119.426 C 41.186 120.468,41.093 121.321,40.978 121.321 C 40.357 121.321,40.067 122.073,40.067 123.687 C 40.067 125.051,39.987 125.430,39.619 125.797 C 39.239 126.178,39.172 126.544,39.172 128.234 C 39.172 129.986,39.122 130.235,38.754 130.331 C 37.544 130.648,37.960 133.261,39.201 133.143 C 39.677 133.098,40.067 133.139,40.067 133.234 C 40.067 133.330,39.927 133.408,39.755 133.408 C 39.340 133.408,39.172 133.904,39.172 135.135 C 39.172 135.935,39.051 136.266,38.612 136.673 C 38.173 137.080,38.053 137.411,38.053 138.210 C 38.053 138.931,37.962 139.228,37.741 139.228 C 37.320 139.228,37.157 139.726,37.157 141.011 C 37.157 141.880,37.076 142.107,36.730 142.197 C 36.387 142.287,36.272 142.598,36.145 143.790 C 36.041 144.759,35.887 145.271,35.700 145.271 C 35.305 145.271,35.143 145.792,35.143 147.054 C 35.143 147.941,35.064 148.150,34.695 148.246 C 34.310 148.347,34.247 148.551,34.247 149.712 C 34.247 150.839,34.178 151.083,33.824 151.195 C 33.294 151.364,33.135 151.944,33.131 153.721 C 33.128 154.970,33.080 155.120,32.680 155.120 C 32.268 155.120,32.233 155.270,32.233 157.023 C 32.233 158.545,32.167 158.926,31.905 158.926 C 31.407 158.926,31.114 159.667,31.114 160.925 C 31.114 161.910,31.055 162.059,30.666 162.059 C 30.388 162.059,30.218 162.209,30.218 162.453 C 30.218 162.670,30.017 162.973,29.771 163.127 C 29.452 163.325,29.323 163.648,29.323 164.244 L 29.324 165.081 27.853 165.005 C 26.537 164.938,26.369 164.977,26.265 165.376 C 26.200 165.622,25.956 165.873,25.721 165.935 C 25.390 166.021,25.294 166.249,25.294 166.950 C 25.294 167.853,25.293 167.853,24.342 167.922 L 23.391 167.991 23.328 170.397 C 23.269 172.619,23.230 172.804,22.824 172.804 C 22.446 172.804,22.384 172.959,22.384 173.912 C 22.384 174.606,22.271 175.087,22.081 175.199 C 21.540 175.518,21.265 176.329,21.265 177.601 C 21.265 178.698,21.211 178.847,20.817 178.847 C 20.437 178.847,20.369 178.996,20.369 179.828 C 20.369 180.621,20.283 180.832,19.922 180.927 C 19.254 181.101,19.254 183.438,19.922 183.613 C 20.502 183.765,20.510 184.592,19.933 184.775 C 19.693 184.851,19.438 185.099,19.366 185.326 C 19.294 185.552,19.037 185.790,18.795 185.853 C 18.448 185.944,18.355 186.162,18.355 186.884 C 18.355 187.631,18.277 187.801,17.935 187.801 C 17.453 187.801,17.236 188.573,17.236 190.283 C 17.236 191.137,17.141 191.417,16.788 191.606 C 16.392 191.818,16.340 192.075,16.340 193.818 C 16.340 195.505,16.276 195.848,15.893 196.195 C 15.528 196.525,15.445 196.884,15.445 198.132 C 15.445 199.486,15.396 199.664,15.021 199.664 C 14.413 199.664,14.326 200.070,14.326 202.913 C 14.326 205.257,14.291 205.465,13.878 205.596 C 13.477 205.723,13.430 205.935,13.430 207.626 C 13.430 209.328,13.389 209.513,13.007 209.513 C 12.386 209.513,12.311 209.911,12.311 213.210 C 12.311 216.310,12.506 217.348,13.089 217.348 C 13.329 217.348,13.430 217.577,13.430 218.123 C 13.430 218.972,13.878 219.362,14.855 219.362 C 15.264 219.362,15.433 219.497,15.485 219.866 C 15.531 220.189,15.737 220.395,16.060 220.441 C 16.337 220.480,16.564 220.644,16.564 220.805 C 16.564 221.526,22.126 221.667,22.314 220.950 C 22.375 220.715,22.617 220.472,22.852 220.411 C 23.101 220.346,23.279 220.104,23.279 219.831 C 23.279 219.511,23.422 219.362,23.727 219.362 C 24.049 219.362,24.175 219.213,24.175 218.829 C 24.175 218.486,24.332 218.254,24.616 218.180 C 24.927 218.098,25.100 217.800,25.201 217.166 C 25.300 216.549,25.477 216.233,25.767 216.157 C 26.114 216.066,26.189 215.834,26.189 214.847 C 26.189 213.819,26.261 213.617,26.693 213.427 C 27.059 213.267,27.215 212.984,27.265 212.390 C 27.313 211.804,27.455 211.541,27.768 211.460 C 28.118 211.368,28.204 211.148,28.204 210.344 C 28.204 209.530,28.288 209.320,28.651 209.224 C 29.050 209.120,29.099 208.919,29.099 207.377 C 29.099 205.819,29.155 205.596,29.659 205.129 C 30.110 204.711,30.218 204.396,30.218 203.506 C 30.218 202.591,30.295 202.383,30.666 202.285 C 31.200 202.146,31.353 198.426,30.845 197.918 C 30.366 197.439,28.405 197.575,28.269 198.097 C 28.021 199.043,27.308 198.628,27.308 197.538 C 27.308 196.680,27.375 196.530,27.756 196.530 C 28.158 196.530,28.204 196.381,28.204 195.076 C 28.204 193.770,28.250 193.621,28.651 193.621 C 29.052 193.621,29.099 193.471,29.099 192.202 C 29.099 190.905,29.147 190.761,29.659 190.528 C 30.157 190.300,30.218 190.138,30.218 189.037 C 30.218 188.099,30.326 187.693,30.666 187.353 C 31.034 186.985,31.114 186.607,31.114 185.227 C 31.114 183.871,31.179 183.548,31.455 183.548 C 31.935 183.548,32.233 182.618,32.233 181.121 C 32.233 180.119,32.330 179.759,32.680 179.459 C 33.016 179.171,33.128 178.798,33.128 177.969 C 33.128 177.083,33.212 176.836,33.549 176.729 C 33.981 176.592,34.247 175.758,34.247 174.545 C 34.247 174.069,34.374 173.848,34.695 173.764 C 35.084 173.662,35.143 173.458,35.143 172.218 C 35.143 170.938,35.189 170.789,35.590 170.789 C 35.984 170.789,36.038 170.640,36.038 169.563 C 36.038 168.502,36.113 168.288,36.598 167.970 C 37.088 167.649,37.157 167.444,37.157 166.302 C 37.157 165.196,37.225 164.978,37.605 164.857 C 37.991 164.735,38.053 164.519,38.053 163.275 C 38.053 162.012,38.104 161.835,38.476 161.835 C 39.010 161.835,39.172 161.415,39.172 160.026 C 39.172 159.075,39.232 158.926,39.619 158.926 C 39.994 158.926,40.067 158.776,40.067 158.010 C 40.067 157.346,40.198 156.989,40.544 156.709 C 40.885 156.433,41.053 155.984,41.135 155.131 C 41.206 154.389,41.407 153.781,41.666 153.522 C 41.992 153.196,42.082 152.768,42.082 151.539 C 42.082 150.121,42.124 149.972,42.529 149.972 C 42.931 149.972,42.977 149.823,42.977 148.517 C 42.977 147.239,43.028 147.062,43.401 147.062 C 43.933 147.062,44.096 146.642,44.096 145.268 C 44.096 144.379,44.177 144.157,44.544 144.040 C 44.926 143.919,44.992 143.702,44.992 142.549 C 44.992 141.410,45.058 141.183,45.419 141.089 C 45.913 140.960,46.103 140.398,46.108 139.060 C 46.110 138.259,46.182 138.109,46.558 138.109 C 46.960 138.109,47.006 137.959,47.006 136.654 C 47.006 135.375,47.058 135.199,47.430 135.199 C 47.963 135.199,48.125 134.779,48.125 133.398 C 48.125 132.534,48.219 132.254,48.573 132.065 C 48.963 131.856,49.021 131.596,49.021 130.042 C 49.021 128.409,49.058 128.260,49.468 128.260 C 49.776 128.260,49.916 128.110,49.916 127.782 C 49.916 127.519,50.168 127.070,50.476 126.785 C 50.915 126.378,51.035 126.047,51.035 125.249 C 51.035 124.380,51.101 124.231,51.483 124.231 C 51.884 124.231,51.931 124.081,51.931 122.791 C 51.931 121.469,51.972 121.346,52.434 121.280 C 52.853 121.221,52.949 121.048,53.007 120.257 C 53.062 119.488,53.159 119.306,53.510 119.306 C 53.888 119.306,53.945 119.145,53.945 118.077 C 53.945 117.090,54.033 116.793,54.393 116.568 C 54.727 116.360,54.841 116.046,54.841 115.335 C 54.841 114.647,54.932 114.382,55.168 114.382 C 55.653 114.382,55.960 113.649,55.960 112.494 C 55.960 111.621,56.025 111.472,56.407 111.472 C 56.788 111.472,56.855 111.323,56.855 110.480 C 56.855 109.705,56.947 109.458,57.276 109.354 C 57.712 109.215,57.974 108.382,57.974 107.133 C 57.974 106.674,58.129 106.335,58.422 106.152 C 58.781 105.927,58.870 105.630,58.870 104.643 C 58.870 103.690,58.947 103.414,59.211 103.414 C 59.642 103.414,59.989 102.520,59.989 101.411 C 59.989 100.744,60.087 100.530,60.436 100.439 C 60.821 100.338,60.884 100.133,60.884 98.984 C 60.884 97.834,60.947 97.629,61.332 97.529 C 61.717 97.428,61.780 97.224,61.780 96.072 C 61.780 94.830,61.820 94.722,62.339 94.592 C 62.831 94.469,62.899 94.331,62.899 93.460 C 62.899 92.769,63.011 92.405,63.270 92.260 C 63.523 92.118,63.674 91.653,63.745 90.794 C 63.829 89.782,63.927 89.536,64.243 89.536 C 64.699 89.536,64.906 88.928,64.910 87.577 C 64.913 86.776,64.984 86.626,65.361 86.626 C 65.763 86.626,65.809 86.476,65.809 85.171 C 65.809 83.886,65.859 83.716,66.238 83.716 C 66.474 83.716,66.717 83.590,66.780 83.436 C 66.842 83.282,66.900 85.927,66.910 89.315 L 66.928 95.473 66.424 95.694 C 65.715 96.006,65.731 97.749,66.447 98.224 C 67.150 98.691,67.135 100.307,66.424 100.618 C 65.529 101.011,65.674 104.309,66.587 104.309 C 66.889 104.309,66.928 105.949,66.928 118.656 C 66.928 132.814,66.934 133.004,67.375 133.119 C 67.811 133.233,67.823 133.425,67.823 140.058 C 67.823 146.692,67.836 146.883,68.271 146.997 C 68.696 147.108,68.719 147.305,68.724 150.838 C 68.729 154.733,68.918 156.176,69.474 156.583 C 69.740 156.777,69.821 157.578,69.878 160.578 C 69.941 163.873,69.997 164.357,70.341 164.549 C 70.669 164.732,70.733 165.096,70.733 166.781 C 70.733 168.631,70.779 168.840,71.293 169.354 C 71.800 169.862,71.852 170.088,71.852 171.780 C 71.852 173.458,71.897 173.659,72.300 173.764 C 72.703 173.869,72.748 174.069,72.748 175.751 C 72.748 177.476,72.787 177.639,73.251 177.843 C 73.706 178.043,73.761 178.242,73.820 179.910 C 73.878 181.573,73.929 181.757,74.324 181.757 C 74.711 181.757,74.762 181.916,74.762 183.121 C 74.762 184.297,74.824 184.501,75.210 184.602 C 75.557 184.693,75.658 184.908,75.658 185.556 C 75.658 186.138,75.828 186.576,76.217 186.996 C 76.622 187.433,76.777 187.850,76.777 188.505 C 76.777 189.213,76.871 189.434,77.213 189.524 C 77.541 189.609,77.665 189.868,77.716 190.566 C 77.772 191.333,77.871 191.507,78.288 191.566 C 78.723 191.628,78.791 191.771,78.791 192.629 C 78.791 193.462,78.861 193.621,79.226 193.621 C 79.578 193.621,79.674 193.803,79.730 194.572 C 79.787 195.363,79.884 195.535,80.302 195.595 C 80.725 195.655,80.806 195.805,80.806 196.531 C 80.806 197.199,80.908 197.428,81.253 197.538 C 81.500 197.616,81.701 197.875,81.701 198.112 C 81.701 198.396,81.856 198.545,82.149 198.545 C 82.463 198.545,82.597 198.695,82.600 199.049 C 82.605 199.995,82.865 200.560,83.294 200.560 C 83.566 200.560,83.716 200.718,83.716 201.007 C 83.716 201.306,83.865 201.455,84.163 201.455 C 84.479 201.455,84.611 201.604,84.611 201.961 C 84.611 202.272,84.806 202.553,85.115 202.689 C 85.434 202.829,85.645 203.145,85.692 203.551 C 85.737 203.949,85.924 204.233,86.183 204.301 C 86.412 204.361,86.631 204.627,86.669 204.891 C 86.712 205.192,86.926 205.399,87.241 205.444 C 87.558 205.489,87.745 205.670,87.745 205.932 C 87.745 206.162,87.935 206.410,88.168 206.484 C 88.401 206.558,88.644 206.816,88.707 207.058 C 88.775 207.319,89.013 207.499,89.291 207.499 C 89.548 207.499,89.961 207.700,90.207 207.946 C 90.453 208.193,90.849 208.394,91.087 208.394 C 91.364 208.394,91.545 208.574,91.590 208.895 C 91.633 209.193,91.844 209.424,92.110 209.464 C 93.241 209.633,93.565 209.769,93.565 210.077 C 93.565 210.281,93.779 210.409,94.124 210.409 C 94.533 210.409,94.684 210.528,94.684 210.854 C 94.684 211.199,94.882 211.330,95.573 211.441 C 96.165 211.535,96.506 211.723,96.595 212.003 C 96.699 212.331,96.947 212.423,97.721 212.423 C 98.461 212.423,98.713 212.510,98.713 212.764 C 98.713 213.195,99.607 213.542,100.716 213.542 C 101.382 213.542,101.596 213.641,101.688 213.990 C 101.792 214.390,101.993 214.438,103.590 214.438 C 105.188 214.438,105.388 214.485,105.493 214.885 C 105.676 215.586,115.277 215.586,115.277 214.885 C 115.277 214.487,115.426 214.438,116.641 214.438 C 117.793 214.438,118.022 214.371,118.116 214.012 C 118.196 213.708,118.509 213.545,119.214 213.439 C 119.991 213.323,120.201 213.198,120.201 212.857 C 120.201 212.498,120.360 212.423,121.118 212.423 C 121.838 212.423,122.059 212.330,122.148 211.987 C 122.234 211.659,122.492 211.534,123.190 211.483 C 123.958 211.428,124.131 211.328,124.190 210.912 C 124.252 210.476,124.395 210.409,125.253 210.409 C 126.096 210.409,126.245 210.341,126.245 209.961 C 126.245 209.662,126.394 209.513,126.693 209.513 C 126.939 209.513,127.140 209.405,127.140 209.273 C 127.140 208.964,127.710 208.394,128.019 208.394 C 128.382 208.394,130.197 206.526,130.373 205.972 C 130.458 205.704,130.673 205.484,130.849 205.484 C 131.025 205.484,131.170 205.290,131.170 205.052 C 131.170 204.774,131.350 204.594,131.673 204.548 C 131.997 204.502,132.202 204.297,132.248 203.973 C 132.294 203.649,132.474 203.470,132.752 203.470 C 133.035 203.470,133.184 203.315,133.184 203.022 C 133.184 202.723,133.333 202.574,133.632 202.574 C 133.960 202.574,134.079 202.425,134.079 202.015 C 134.079 201.567,134.191 201.455,134.639 201.455 C 134.947 201.455,135.390 201.263,135.624 201.029 C 135.858 200.795,136.261 200.537,136.520 200.455 C 136.778 200.373,136.989 200.159,136.989 199.979 C 136.989 199.800,137.241 199.557,137.549 199.440 C 137.892 199.310,138.109 199.052,138.109 198.774 C 138.109 198.523,138.256 198.321,138.440 198.321 C 138.622 198.321,138.841 198.045,138.925 197.708 C 139.094 197.038,139.507 196.530,139.883 196.530 C 140.015 196.530,140.123 196.329,140.123 196.083 C 140.123 195.784,140.272 195.635,140.571 195.635 C 140.899 195.635,141.018 195.486,141.018 195.076 C 141.018 194.674,141.139 194.516,141.446 194.516 C 141.770 194.516,141.911 194.302,142.022 193.643 C 142.123 193.044,142.306 192.734,142.601 192.656 C 142.850 192.591,143.033 192.349,143.033 192.085 C 143.033 191.833,143.285 191.375,143.593 191.067 C 143.900 190.759,144.152 190.301,144.152 190.049 C 144.152 189.741,144.298 189.591,144.600 189.591 C 145.011 189.591,145.048 189.442,145.048 187.780 C 145.048 186.156,145.094 185.956,145.495 185.851 C 145.785 185.775,145.943 185.546,145.943 185.201 C 145.943 184.781,146.062 184.667,146.503 184.667 C 146.943 184.667,147.062 184.553,147.062 184.134 C 147.062 183.788,147.220 183.559,147.510 183.483 C 147.896 183.382,147.957 183.178,147.957 182.002 C 147.957 180.808,148.011 180.638,148.385 180.638 C 148.710 180.638,148.850 180.423,148.963 179.752 C 149.063 179.158,149.255 178.821,149.542 178.730 C 149.868 178.626,149.972 178.384,149.972 177.729 C 149.972 177.002,150.053 176.852,150.476 176.792 C 150.799 176.746,151.005 176.541,151.051 176.217 C 151.097 175.893,151.277 175.713,151.554 175.713 C 151.837 175.713,151.987 175.559,151.987 175.266 C 151.987 174.958,152.136 174.818,152.464 174.818 C 153.075 174.818,154.896 173.009,154.896 172.401 C 154.896 172.093,155.064 171.916,155.400 171.868 C 155.724 171.822,155.929 171.616,155.975 171.293 C 156.021 170.969,156.201 170.789,156.479 170.789 C 156.842 170.789,156.911 170.628,156.911 169.782 C 156.911 168.934,156.980 168.774,157.345 168.774 C 157.686 168.774,157.811 168.564,157.927 167.787 C 158.033 167.082,158.196 166.769,158.500 166.689 C 158.821 166.605,158.926 166.375,158.926 165.753 C 158.926 165.116,159.028 164.901,159.373 164.810 C 159.723 164.719,159.821 164.505,159.821 163.834 C 159.821 163.216,159.978 162.818,160.381 162.415 C 160.797 161.999,160.940 161.619,160.940 160.929 C 160.940 160.191,161.031 159.979,161.388 159.886 C 161.737 159.795,161.835 159.580,161.835 158.915 C 161.835 158.269,161.940 158.027,162.265 157.924 C 162.550 157.834,162.744 157.497,162.841 156.924 C 162.940 156.334,163.124 156.024,163.418 155.947 C 163.753 155.859,163.850 155.635,163.850 154.944 C 163.850 154.242,163.945 154.029,164.298 153.936 C 164.652 153.844,164.745 153.631,164.745 152.918 C 164.745 152.230,164.846 151.985,165.169 151.882 C 165.649 151.730,165.857 151.138,165.862 149.916 C 165.864 149.227,165.945 149.077,166.312 149.077 C 166.693 149.077,166.760 148.927,166.760 148.084 C 166.760 147.310,166.852 147.063,167.181 146.959 C 167.666 146.805,167.879 145.974,167.879 144.236 C 167.879 143.182,167.935 143.033,168.327 143.033 C 168.625 143.033,168.774 142.884,168.774 142.585 C 168.774 142.333,168.924 142.138,169.116 142.138 C 169.480 142.138,169.894 141.285,169.894 140.536 C 169.894 140.286,170.095 139.826,170.341 139.513 C 170.588 139.200,170.789 138.756,170.789 138.526 C 170.789 138.296,170.990 137.907,171.237 137.661 C 171.550 137.348,171.684 136.915,171.684 136.219 L 171.684 135.224 172.636 135.156 L 173.587 135.087 173.652 133.128 C 173.715 131.214,173.729 131.170,174.267 131.170 C 174.796 131.170,174.818 131.111,174.818 129.715 L 174.818 128.260 175.690 128.260 C 176.751 128.260,176.833 128.091,176.833 125.891 C 176.833 124.621,176.906 124.231,177.144 124.231 C 177.521 124.231,177.728 123.748,177.728 122.869 C 177.728 122.365,177.830 122.216,178.176 122.216 C 178.588 122.216,178.623 122.067,178.623 120.313 L 178.623 118.411 177.728 118.411 C 177.000 118.411,176.833 118.490,176.833 118.832 C 176.833 119.104,176.634 119.292,176.273 119.361 C 175.519 119.505,175.394 117.423,176.143 117.185 C 176.431 117.094,176.622 116.756,176.722 116.163 C 176.809 115.651,176.997 115.277,177.169 115.277 C 177.333 115.277,177.518 115.151,177.580 114.997 C 177.642 114.843,177.701 115.451,177.710 116.347 C 177.730 118.197,177.905 118.379,179.513 118.226 C 180.145 118.166,180.438 118.018,180.536 117.709 C 180.611 117.472,180.917 117.014,181.215 116.692 C 181.658 116.214,181.757 115.871,181.757 114.823 C 181.757 113.727,181.823 113.521,182.205 113.421 C 182.592 113.320,182.652 113.116,182.652 111.920 C 182.652 110.780,182.736 110.469,183.128 110.151 C 183.729 109.664,183.974 106.099,183.437 105.653 C 182.710 105.050,181.874 105.472,181.801 106.477 C 181.745 107.246,181.645 107.427,181.241 107.485 C 180.837 107.542,180.738 107.723,180.681 108.506 C 180.576 109.952,179.743 109.903,179.743 108.450 C 179.743 107.592,179.809 107.443,180.190 107.443 C 180.578 107.443,180.638 107.293,180.638 106.323 C 180.638 105.537,180.727 105.204,180.938 105.204 C 181.339 105.204,181.757 104.240,181.757 103.317 C 181.757 102.759,181.870 102.541,182.205 102.453 C 182.596 102.351,182.652 102.446,182.652 103.215 C 182.652 103.924,182.756 104.142,183.184 104.337 C 183.805 104.620,184.667 104.274,184.667 103.741 C 184.667 103.561,184.868 103.414,185.115 103.414 C 185.527 103.414,185.562 103.264,185.562 101.526 C 185.562 99.740,185.589 99.636,186.066 99.568 C 186.485 99.508,186.581 99.336,186.638 98.545 L 186.707 97.594 185.665 97.594 L 184.622 97.594 184.702 98.601 C 184.775 99.521,184.738 99.608,184.277 99.608 C 183.829 99.608,183.772 99.720,183.772 100.589 C 183.772 101.458,183.708 101.583,183.212 101.678 C 182.402 101.832,182.351 99.847,183.156 99.493 C 183.589 99.304,183.669 99.076,183.726 97.874 C 183.784 96.658,183.850 96.475,184.230 96.475 C 184.619 96.475,184.667 96.313,184.667 95.020 C 184.667 93.714,184.713 93.565,185.115 93.565 C 185.494 93.565,185.562 93.415,185.562 92.583 C 185.562 91.715,185.626 91.590,186.122 91.495 C 186.657 91.393,186.682 91.436,186.682 92.476 C 186.682 93.302,186.599 93.565,186.340 93.565 C 185.924 93.565,185.562 94.449,185.562 95.467 C 185.562 97.148,187.142 98.339,187.509 96.935 C 187.571 96.695,187.839 96.469,188.103 96.431 C 188.496 96.375,188.597 96.188,188.653 95.411 C 188.697 94.801,188.829 94.460,189.021 94.460 C 189.497 94.460,189.591 93.917,189.591 91.183 L 189.591 88.614 188.640 88.683 C 187.693 88.752,187.689 88.757,187.620 89.703 C 187.564 90.472,187.468 90.655,187.116 90.655 C 186.463 90.655,186.475 88.746,187.129 88.575 C 187.533 88.470,187.577 88.270,187.577 86.550 C 187.577 84.742,187.603 84.638,188.081 84.571 C 188.501 84.511,188.596 84.339,188.654 83.534 C 188.786 81.701,189.591 81.385,189.591 83.167 L 189.591 84.632 190.990 84.566 L 192.389 84.499 192.456 83.100 C 192.510 81.966,192.627 81.596,193.072 81.151 C 193.629 80.594,193.785 79.540,193.480 78.400 C 193.294 77.707,191.849 77.662,191.671 78.344 C 191.607 78.590,191.375 78.791,191.156 78.791 C 190.702 78.791,190.487 79.221,190.487 80.127 C 190.487 80.565,190.352 80.789,190.039 80.871 C 189.642 80.974,189.591 80.878,189.591 80.017 C 189.591 79.242,189.682 79.017,190.039 78.903 C 190.430 78.779,190.487 78.565,190.487 77.209 C 190.487 75.703,190.503 75.658,191.046 75.658 C 191.560 75.658,191.606 75.740,191.606 76.665 L 191.606 77.672 192.522 77.672 C 193.250 77.672,193.463 77.580,193.556 77.224 C 193.621 76.977,193.861 76.777,194.094 76.777 C 194.678 76.777,194.742 73.106,194.162 72.883 C 193.436 72.605,192.936 72.753,192.725 73.307 C 192.608 73.615,192.367 73.867,192.190 73.867 C 192.012 73.867,191.816 73.993,191.754 74.147 C 191.692 74.301,191.633 74.060,191.624 73.613 C 191.610 72.980,191.705 72.774,192.054 72.683 C 192.458 72.577,192.501 72.377,192.501 70.642 C 192.501 68.896,192.541 68.719,192.930 68.719 C 193.166 68.719,193.410 68.593,193.472 68.439 C 193.534 68.285,193.593 68.996,193.603 70.018 L 193.621 71.878 194.570 71.809 C 195.282 71.758,195.539 71.637,195.598 71.328 C 195.641 71.102,195.868 70.724,196.103 70.489 C 197.187 69.405,196.311 67.823,194.628 67.823 L 193.621 67.823 193.621 66.394 C 193.621 65.154,193.680 64.950,194.068 64.848 C 194.452 64.748,194.516 64.543,194.516 63.420 C 194.516 62.276,194.580 62.082,195.020 61.889 C 195.397 61.723,195.541 61.446,195.595 60.785 C 195.636 60.286,195.831 59.783,196.043 59.628 C 196.341 59.410,196.434 58.891,196.496 57.097 C 196.565 55.054,196.613 54.841,196.999 54.841 C 197.393 54.841,197.426 54.651,197.426 52.394 C 197.426 50.027,197.442 49.945,197.929 49.876 C 198.399 49.809,198.438 49.679,198.498 47.970 C 198.554 46.376,198.620 46.117,199.002 45.996 C 199.338 45.889,199.440 45.654,199.440 44.992 C 199.440 44.323,199.542 44.094,199.888 43.984 C 200.134 43.906,200.336 43.671,200.336 43.463 C 200.336 43.254,200.562 42.984,200.839 42.862 C 201.703 42.483,201.699 38.294,200.835 38.262 C 200.543 38.252,200.572 38.198,200.951 38.046 C 201.228 37.934,201.455 37.689,201.455 37.500 C 201.455 37.308,201.649 37.157,201.898 37.157 C 202.474 37.157,202.652 36.436,202.533 34.578 C 202.456 33.364,202.502 33.110,202.819 33.009 C 203.419 32.819,203.463 32.282,203.466 25.217 C 203.469 18.724,203.457 18.533,203.022 18.420 C 202.613 18.313,202.574 18.114,202.574 16.118 C 202.574 13.389,202.425 12.607,201.879 12.464 C 201.521 12.370,201.455 12.139,201.455 10.968 C 201.455 9.784,201.392 9.567,201.019 9.469 C 200.691 9.383,200.566 9.125,200.515 8.427 C 200.459 7.660,200.360 7.486,199.944 7.427 C 199.531 7.368,199.440 7.214,199.440 6.567 C 199.440 5.978,199.332 5.749,199.012 5.666 C 198.776 5.604,198.522 5.311,198.448 5.015 C 198.343 4.598,198.163 4.477,197.647 4.477 C 197.224 4.477,196.880 4.314,196.702 4.029 C 196.516 3.730,196.180 3.581,195.693 3.581 C 195.235 3.581,194.777 3.394,194.461 3.078 C 193.748 2.364,187.005 2.155,186.753 2.839 M309.704 52.275 C 309.507 52.473,309.345 52.728,309.345 52.842 C 309.345 52.956,309.144 53.050,308.898 53.050 C 308.608 53.050,308.450 53.199,308.450 53.471 C 308.450 53.703,308.259 53.943,308.027 54.004 C 307.735 54.080,307.555 54.401,307.447 55.037 C 307.328 55.742,307.190 55.960,306.863 55.960 C 306.590 55.960,306.435 56.116,306.435 56.392 C 306.435 56.630,306.234 56.889,305.988 56.967 C 305.741 57.045,305.540 57.297,305.540 57.526 C 305.540 57.788,305.353 57.970,305.036 58.015 C 304.721 58.059,304.507 58.266,304.464 58.567 C 304.427 58.831,304.200 59.099,303.961 59.162 C 303.633 59.247,303.525 59.471,303.525 60.064 C 303.525 60.712,303.435 60.866,303.022 60.925 C 302.698 60.971,302.493 61.176,302.447 61.500 C 302.401 61.823,302.221 62.003,301.943 62.003 C 301.596 62.003,301.511 62.162,301.511 62.808 C 301.511 63.424,301.406 63.640,301.063 63.729 C 300.813 63.795,300.616 64.035,300.616 64.273 C 300.616 64.523,300.383 64.789,300.056 64.913 C 299.745 65.032,299.496 65.305,299.496 65.529 C 299.496 65.751,299.295 66.105,299.049 66.316 C 298.802 66.527,298.601 66.945,298.601 67.246 C 298.601 67.642,298.463 67.812,298.097 67.864 C 297.679 67.923,297.582 68.096,297.525 68.886 C 297.469 69.655,297.373 69.838,297.021 69.838 C 296.707 69.838,296.586 69.992,296.586 70.397 C 296.586 70.799,296.466 70.957,296.158 70.957 C 295.834 70.957,295.694 71.172,295.581 71.843 C 295.480 72.436,295.289 72.774,295.001 72.865 C 294.676 72.969,294.572 73.210,294.572 73.867 C 294.572 74.535,294.470 74.764,294.124 74.874 C 293.743 74.995,293.677 75.213,293.677 76.340 C 293.677 77.565,293.635 77.674,293.117 77.804 L 292.557 77.944 292.557 81.852 C 292.557 85.713,292.704 86.626,293.323 86.626 C 293.489 86.626,293.677 86.827,293.741 87.073 C 293.806 87.320,294.019 87.521,294.215 87.521 C 294.446 87.521,294.572 87.718,294.572 88.081 L 294.572 88.640 292.201 88.640 C 290.018 88.640,289.820 88.676,289.712 89.088 C 289.608 89.487,289.407 89.536,287.862 89.536 C 285.230 89.536,284.012 89.752,283.883 90.242 C 283.718 90.874,279.575 90.871,279.575 90.237 C 279.575 89.196,266.249 89.200,265.976 90.242 C 265.882 90.601,265.628 90.655,264.007 90.655 C 262.342 90.655,262.130 90.702,262.003 91.102 C 261.883 91.483,261.665 91.550,260.548 91.550 C 259.019 91.550,258.086 91.845,258.086 92.328 C 258.086 92.543,257.879 92.669,257.527 92.669 C 257.123 92.669,256.967 92.790,256.967 93.102 C 256.967 93.340,256.772 93.596,256.534 93.672 C 255.645 93.954,255.571 98.322,256.453 98.447 C 256.724 98.486,257.008 98.713,257.083 98.951 C 257.159 99.189,257.363 99.384,257.537 99.384 C 257.711 99.384,257.917 99.636,257.994 99.944 C 258.131 100.488,258.189 100.504,260.125 100.504 C 261.716 100.504,262.115 100.569,262.115 100.829 C 262.115 101.920,273.306 102.013,273.651 100.925 C 273.771 100.548,274.031 100.504,276.141 100.504 C 278.309 100.504,278.507 100.468,278.614 100.056 C 278.781 99.420,281.446 99.411,282.205 100.043 L 282.708 100.463 282.708 107.982 C 282.708 115.185,282.691 115.501,282.289 115.501 C 281.742 115.501,281.589 116.283,281.589 119.084 C 281.589 121.080,281.551 121.279,281.142 121.386 C 280.738 121.491,280.694 121.691,280.694 123.426 C 280.694 125.188,280.657 125.350,280.255 125.350 C 279.857 125.350,279.810 125.534,279.751 127.308 C 279.691 129.146,279.656 129.271,279.183 129.338 C 278.723 129.404,278.679 129.529,278.679 130.796 C 278.679 131.939,278.601 132.230,278.232 132.461 C 277.849 132.700,277.784 132.983,277.784 134.407 C 277.784 135.886,277.721 136.137,277.224 136.633 C 276.796 137.062,276.665 137.425,276.665 138.184 C 276.665 138.987,276.580 139.198,276.217 139.293 C 275.832 139.393,275.769 139.598,275.769 140.759 C 275.769 141.878,275.698 142.130,275.352 142.240 C 274.934 142.373,274.657 143.637,274.652 145.439 C 274.651 146.017,274.558 146.167,274.203 146.167 C 273.801 146.167,273.755 146.316,273.755 147.622 C 273.755 148.927,273.709 149.077,273.307 149.077 C 272.905 149.077,272.860 149.226,272.860 150.532 C 272.860 151.332,272.766 151.987,272.652 151.987 C 272.100 151.987,271.740 152.743,271.740 153.905 C 271.740 154.795,271.657 155.120,271.429 155.120 C 270.998 155.120,270.845 155.623,270.845 157.041 C 270.845 157.905,270.759 158.254,270.545 158.254 C 270.094 158.254,269.726 159.260,269.726 160.495 C 269.726 161.367,269.633 161.646,269.278 161.835 C 268.901 162.037,268.830 162.304,268.830 163.522 C 268.830 164.820,268.784 164.969,268.383 164.969 C 267.981 164.969,267.935 165.118,267.935 166.409 C 267.935 167.731,267.894 167.854,267.431 167.920 C 266.980 167.984,266.921 168.134,266.861 169.378 C 266.807 170.525,266.719 170.790,266.358 170.904 C 265.984 171.023,265.921 171.251,265.921 172.467 C 265.921 173.774,265.879 173.898,265.417 173.963 C 264.966 174.027,264.906 174.178,264.847 175.410 C 264.792 176.556,264.708 176.805,264.344 176.900 C 263.958 177.001,263.906 177.216,263.906 178.702 C 263.906 180.575,263.543 181.125,262.447 180.916 C 261.956 180.822,261.891 180.695,261.891 179.828 C 261.891 178.996,261.823 178.847,261.444 178.847 C 261.130 178.847,260.995 178.697,260.993 178.344 C 260.987 177.397,260.728 176.833,260.298 176.833 C 259.954 176.833,259.877 176.665,259.877 175.916 C 259.877 175.188,259.785 174.976,259.429 174.883 C 259.183 174.819,258.982 174.622,258.982 174.446 C 258.982 174.271,258.730 173.856,258.422 173.524 C 258.026 173.097,257.862 172.667,257.862 172.057 C 257.862 171.383,257.765 171.169,257.415 171.078 C 257.053 170.983,256.967 170.772,256.967 169.979 C 256.967 169.082,256.919 168.998,256.407 168.998 C 255.893 168.998,255.848 168.916,255.848 167.991 C 255.848 167.155,255.776 166.984,255.428 166.984 C 255.079 166.984,254.990 166.769,254.903 165.719 C 254.835 164.895,254.669 164.360,254.428 164.184 C 254.224 164.035,254.057 163.655,254.057 163.340 C 254.057 162.475,253.831 162.059,253.362 162.059 C 252.993 162.059,252.938 161.885,252.938 160.724 C 252.938 159.631,252.859 159.347,252.503 159.156 C 252.199 158.993,252.048 158.638,251.999 157.973 C 251.942 157.183,251.846 157.011,251.427 156.951 C 250.710 156.850,250.641 154.001,251.356 154.001 C 251.594 154.001,251.851 153.805,251.927 153.565 C 252.003 153.325,252.262 153.066,252.502 152.990 C 252.742 152.914,252.938 152.657,252.938 152.419 C 252.938 152.181,253.091 151.987,253.279 151.987 C 253.467 151.987,253.717 151.732,253.835 151.421 C 253.954 151.110,254.253 150.638,254.501 150.372 C 254.749 150.105,254.952 149.705,254.952 149.482 C 254.952 149.226,255.117 149.077,255.400 149.077 C 255.693 149.077,255.848 148.927,255.848 148.645 C 255.848 148.367,256.028 148.187,256.351 148.141 C 256.675 148.095,256.881 147.889,256.927 147.566 C 256.973 147.242,257.153 147.062,257.430 147.062 C 257.704 147.062,257.862 146.908,257.862 146.641 C 257.862 146.402,258.064 146.166,258.327 146.098 C 258.582 146.031,258.843 145.777,258.907 145.533 C 258.971 145.289,259.215 145.039,259.450 144.977 C 259.689 144.915,259.877 144.670,259.877 144.421 C 259.877 144.176,260.012 143.924,260.177 143.861 C 260.343 143.798,260.650 143.384,260.859 142.942 C 261.069 142.499,261.387 142.138,261.566 142.138 C 261.745 142.138,261.891 141.936,261.891 141.690 C 261.891 141.392,262.041 141.242,262.339 141.242 C 262.667 141.242,262.787 141.093,262.787 140.683 C 262.787 140.235,262.899 140.123,263.346 140.123 C 263.750 140.123,263.906 140.003,263.906 139.691 C 263.906 139.453,264.107 139.194,264.354 139.116 C 264.600 139.038,264.801 138.779,264.801 138.541 C 264.801 138.251,264.956 138.109,265.270 138.109 C 265.550 138.109,265.786 137.929,265.856 137.661 C 265.920 137.413,266.161 137.213,266.394 137.213 C 266.695 137.213,266.816 137.052,266.816 136.654 C 266.816 136.243,266.935 136.094,267.264 136.094 C 267.562 136.094,267.711 135.945,267.711 135.646 C 267.711 135.318,267.860 135.199,268.271 135.199 C 268.681 135.199,268.830 135.079,268.830 134.751 C 268.830 134.453,268.980 134.303,269.278 134.303 C 269.603 134.303,269.726 134.154,269.726 133.759 C 269.726 133.366,269.865 133.195,270.227 133.144 C 270.503 133.104,270.764 132.887,270.807 132.660 C 270.850 132.434,271.078 132.056,271.313 131.821 C 271.548 131.586,271.740 131.149,271.740 130.849 C 271.740 130.456,271.879 130.286,272.244 130.234 C 272.568 130.188,272.773 129.982,272.819 129.659 C 272.865 129.335,273.045 129.155,273.323 129.155 C 273.670 129.155,273.755 128.996,273.755 128.351 C 273.755 127.734,273.860 127.519,274.203 127.429 C 274.538 127.341,274.650 127.124,274.650 126.560 C 274.650 126.005,274.797 125.712,275.210 125.441 C 275.747 125.089,275.769 124.982,275.769 122.750 L 275.769 120.425 275.210 120.425 C 274.670 120.425,274.650 120.374,274.650 118.949 C 274.650 117.686,274.589 117.457,274.223 117.362 C 273.988 117.300,273.746 117.058,273.685 116.823 C 273.581 116.428,273.332 116.396,270.285 116.396 C 267.239 116.396,266.990 116.428,266.886 116.823 C 266.825 117.058,266.582 117.300,266.348 117.362 C 266.099 117.427,265.921 117.669,265.921 117.942 C 265.921 118.293,265.780 118.411,265.361 118.411 C 264.962 118.411,264.801 118.532,264.801 118.832 C 264.801 119.066,264.601 119.306,264.354 119.371 C 264.086 119.441,263.906 119.676,263.906 119.957 C 263.906 120.276,263.763 120.425,263.458 120.425 C 263.160 120.425,263.011 120.575,263.011 120.873 C 263.011 121.255,262.861 121.321,261.993 121.321 C 260.318 121.321,259.877 121.948,259.877 124.332 C 259.877 126.096,259.842 126.245,259.429 126.245 C 259.048 126.245,258.982 126.394,258.982 127.252 C 258.982 128.178,258.936 128.260,258.422 128.260 C 257.974 128.260,257.862 128.372,257.862 128.819 C 257.862 129.230,257.743 129.379,257.415 129.379 C 257.125 129.379,256.967 129.528,256.967 129.800 C 256.967 130.032,256.776 130.272,256.544 130.333 C 256.252 130.409,256.072 130.731,255.964 131.366 C 255.845 132.071,255.707 132.289,255.380 132.289 C 255.102 132.289,254.952 132.445,254.952 132.736 C 254.952 133.035,254.803 133.184,254.505 133.184 C 254.176 133.184,254.057 133.333,254.057 133.744 C 254.057 134.191,253.945 134.303,253.497 134.303 C 253.099 134.303,252.938 134.424,252.938 134.725 C 252.938 134.958,252.738 135.199,252.490 135.264 C 252.233 135.331,252.043 135.569,252.043 135.823 C 252.043 136.072,251.853 136.315,251.610 136.379 C 251.328 136.453,251.125 136.767,251.029 137.280 C 250.934 137.788,250.730 138.107,250.455 138.179 C 250.206 138.244,250.028 138.486,250.028 138.759 C 250.028 139.069,249.885 139.228,249.606 139.228 C 249.277 139.228,249.150 139.451,249.032 140.235 C 248.913 141.031,248.790 141.242,248.447 141.242 C 248.175 141.242,248.013 141.396,248.013 141.656 C 248.013 142.347,247.123 142.586,246.515 142.058 C 246.097 141.695,245.999 141.383,245.999 140.419 C 245.999 139.385,245.941 139.228,245.560 139.228 C 245.162 139.228,245.115 139.044,245.056 137.269 C 244.996 135.431,244.961 135.306,244.488 135.239 C 244.025 135.173,243.984 135.050,243.984 133.728 C 243.984 132.438,243.938 132.289,243.537 132.289 C 243.150 132.289,243.089 132.140,243.089 131.188 C 243.089 129.799,242.927 129.379,242.394 129.379 C 242.041 129.379,241.970 129.211,241.970 128.372 C 241.970 127.514,241.903 127.364,241.522 127.364 C 241.141 127.364,241.074 127.215,241.074 126.357 C 241.074 125.499,241.008 125.350,240.627 125.350 C 240.281 125.350,240.179 125.201,240.179 124.697 C 240.179 123.752,239.966 123.335,239.484 123.335 C 239.209 123.335,239.060 123.178,239.060 122.888 C 239.060 122.486,238.911 122.440,237.605 122.440 C 236.299 122.440,236.150 122.486,236.150 122.888 C 236.150 123.292,236.001 123.335,234.601 123.335 C 232.871 123.335,232.345 123.468,232.345 123.903 C 232.345 124.066,232.118 124.232,231.841 124.271 C 231.499 124.319,231.313 124.522,231.260 124.902 C 231.218 125.210,230.991 125.642,230.757 125.862 C 230.150 126.432,230.164 127.940,230.778 128.101 C 231.181 128.206,231.226 128.406,231.226 130.126 C 231.226 131.838,231.272 132.049,231.673 132.177 C 232.057 132.299,232.121 132.517,232.124 133.703 C 232.128 135.514,232.296 136.094,232.818 136.094 C 233.169 136.094,233.240 136.264,233.240 137.101 C 233.240 137.947,233.309 138.109,233.672 138.109 C 233.950 138.109,234.130 138.289,234.176 138.612 C 234.222 138.936,234.427 139.141,234.751 139.187 C 235.164 139.246,235.255 139.400,235.255 140.048 C 235.255 140.648,235.361 140.864,235.702 140.954 C 235.992 141.029,236.150 141.259,236.150 141.604 C 236.150 141.988,236.275 142.138,236.598 142.138 C 236.957 142.138,237.045 142.287,237.045 142.893 C 237.045 144.283,237.294 145.048,237.745 145.048 C 238.111 145.048,238.165 145.229,238.165 146.476 C 238.165 147.717,238.224 147.921,238.612 148.022 C 238.953 148.111,239.060 148.328,239.060 148.929 C 239.060 149.980,239.416 150.867,239.838 150.867 C 240.372 150.867,240.290 152.129,239.746 152.271 C 239.461 152.346,239.261 152.661,239.162 153.193 C 239.051 153.782,238.896 154.001,238.587 154.001 C 238.291 154.001,238.165 154.161,238.165 154.535 C 238.165 154.870,238.007 155.109,237.741 155.179 C 237.485 155.246,237.253 155.578,237.157 156.016 C 237.061 156.453,236.829 156.786,236.574 156.852 C 236.341 156.913,236.150 157.102,236.150 157.271 C 236.150 157.440,235.949 157.705,235.702 157.858 C 235.456 158.012,235.255 158.315,235.255 158.532 C 235.255 158.803,235.080 158.926,234.695 158.926 C 234.247 158.926,234.135 159.037,234.135 159.485 C 234.135 159.896,234.016 160.045,233.688 160.045 C 233.317 160.045,233.240 160.194,233.240 160.916 C 233.240 161.658,233.157 161.808,232.680 161.927 C 232.319 162.018,232.121 162.225,232.121 162.511 C 232.121 162.805,231.970 162.955,231.673 162.955 C 231.311 162.955,231.226 163.104,231.226 163.733 C 231.226 164.316,231.085 164.603,230.666 164.878 C 230.358 165.080,230.106 165.372,230.106 165.528 C 230.106 165.685,229.905 165.865,229.659 165.929 C 229.412 165.994,229.211 166.233,229.211 166.461 C 229.211 166.689,229.010 167.002,228.763 167.156 C 228.454 167.349,228.316 167.678,228.316 168.217 C 228.316 168.901,228.246 168.998,227.756 168.998 C 227.242 168.998,227.196 169.080,227.196 170.006 C 227.196 170.717,227.105 171.013,226.885 171.013 C 226.526 171.013,226.301 171.489,226.301 172.247 C 226.301 172.621,226.156 172.793,225.797 172.844 C 225.377 172.904,225.282 173.076,225.224 173.880 C 225.182 174.462,224.982 175.018,224.721 175.279 C 224.482 175.518,224.287 175.965,224.287 176.273 C 224.287 176.672,224.165 176.833,223.864 176.833 C 223.534 176.833,223.408 177.057,223.289 177.856 C 223.204 178.419,222.941 179.074,222.704 179.311 C 222.039 179.976,222.047 185.451,222.713 185.626 C 223.027 185.708,223.197 186.007,223.302 186.659 L 223.448 187.577 224.860 187.577 C 226.074 187.577,226.291 187.515,226.413 187.129 C 226.491 186.883,226.699 186.682,226.876 186.682 C 227.052 186.682,227.196 186.504,227.196 186.287 C 227.196 186.070,227.423 185.793,227.700 185.671 C 228.077 185.506,228.222 185.229,228.276 184.568 C 228.315 184.083,228.505 183.571,228.697 183.430 C 228.901 183.281,229.091 182.703,229.155 182.038 C 229.239 181.167,229.363 180.874,229.685 180.790 C 229.982 180.712,230.106 180.477,230.106 179.993 C 230.106 179.506,230.270 179.198,230.666 178.939 C 230.974 178.737,231.226 178.382,231.226 178.150 C 231.226 177.882,231.384 177.728,231.660 177.728 C 232.000 177.728,232.109 177.546,232.163 176.889 C 232.214 176.272,232.366 175.991,232.736 175.828 C 233.013 175.707,233.240 175.430,233.240 175.213 C 233.240 174.967,233.409 174.818,233.688 174.818 C 233.977 174.818,234.135 174.669,234.135 174.397 C 234.135 174.158,234.337 173.922,234.600 173.854 C 234.855 173.787,235.116 173.533,235.180 173.289 C 235.244 173.045,235.488 172.795,235.723 172.733 C 235.972 172.668,236.150 172.426,236.150 172.153 C 236.150 171.895,236.290 171.684,236.462 171.684 C 236.823 171.684,237.045 171.208,237.045 170.435 C 237.045 170.007,237.162 169.894,237.605 169.894 C 238.045 169.894,238.165 169.780,238.165 169.360 C 238.165 169.015,238.322 168.785,238.612 168.710 C 238.953 168.620,239.060 168.404,239.060 167.804 C 239.060 167.156,239.150 167.002,239.564 166.943 C 239.879 166.899,240.093 166.692,240.136 166.391 C 240.173 166.127,240.400 165.859,240.639 165.796 C 240.885 165.732,241.074 165.490,241.074 165.240 C 241.074 164.992,241.263 164.748,241.505 164.685 C 241.777 164.614,241.962 164.337,242.008 163.931 C 242.055 163.526,242.266 163.209,242.585 163.069 C 242.894 162.934,243.089 162.653,243.089 162.342 C 243.089 161.951,243.217 161.835,243.649 161.835 C 244.052 161.835,244.208 161.956,244.208 162.268 C 244.208 162.506,244.410 162.765,244.656 162.843 C 245.002 162.953,245.104 163.181,245.104 163.850 C 245.104 164.519,245.205 164.748,245.551 164.857 C 245.898 164.968,245.999 165.196,245.999 165.875 C 245.999 166.623,246.081 166.772,246.558 166.892 C 247.035 167.012,247.118 167.161,247.118 167.903 C 247.118 168.476,247.271 168.928,247.566 169.222 C 247.812 169.468,248.013 169.964,248.013 170.323 C 248.013 171.202,248.220 171.684,248.597 171.684 C 248.768 171.684,248.909 171.836,248.909 172.022 C 248.909 172.207,249.161 172.578,249.468 172.845 C 249.848 173.175,250.028 173.563,250.028 174.049 C 250.028 174.569,250.147 174.797,250.461 174.879 C 250.776 174.962,250.913 175.226,250.964 175.856 C 251.022 176.556,251.131 176.734,251.539 176.792 C 251.863 176.838,252.043 177.018,252.043 177.296 C 252.043 177.579,252.197 177.728,252.490 177.728 C 252.822 177.728,252.938 177.877,252.938 178.302 C 252.938 179.053,253.317 179.743,253.729 179.743 C 253.913 179.743,254.057 179.949,254.057 180.211 C 254.057 180.492,254.237 180.727,254.505 180.797 C 254.844 180.886,254.952 181.102,254.952 181.692 C 254.952 182.282,255.061 182.499,255.400 182.588 C 255.646 182.652,255.848 182.845,255.848 183.016 C 255.848 183.187,256.100 183.546,256.407 183.814 C 256.751 184.112,256.967 184.538,256.967 184.916 C 256.967 185.336,257.110 185.578,257.415 185.674 C 257.661 185.752,257.862 186.011,257.862 186.249 C 257.862 186.561,258.018 186.682,258.422 186.682 C 258.924 186.682,258.982 186.772,258.982 187.562 C 258.982 188.246,259.082 188.474,259.429 188.584 C 259.675 188.662,259.877 188.921,259.877 189.159 C 259.877 189.471,260.033 189.591,260.436 189.591 C 260.884 189.591,260.996 189.703,260.996 190.151 C 260.996 190.599,260.884 190.711,260.436 190.711 C 259.897 190.711,259.877 190.763,259.877 192.158 C 259.877 193.376,259.806 193.643,259.429 193.844 C 259.072 194.036,258.982 194.313,258.982 195.216 C 258.982 196.160,259.056 196.368,259.429 196.466 C 259.785 196.559,259.878 196.772,259.880 197.508 C 259.885 199.094,260.051 199.393,261.018 199.556 C 261.677 199.667,261.891 199.808,261.891 200.132 C 261.891 200.508,262.063 200.560,263.320 200.560 C 264.561 200.560,264.765 200.619,264.866 201.007 C 265.043 201.685,267.711 201.685,267.711 201.007 C 267.711 200.679,267.860 200.560,268.271 200.560 C 268.788 200.560,268.830 200.480,268.830 199.510 L 268.830 198.461 269.458 199.063 C 270.005 199.587,270.270 199.664,271.511 199.664 C 272.430 199.664,273.062 199.778,273.290 199.983 C 273.899 200.533,275.546 200.541,275.546 199.994 C 275.546 199.807,275.797 199.557,276.105 199.440 C 276.828 199.165,276.920 197.898,276.230 197.718 C 275.990 197.655,275.764 197.388,275.726 197.123 C 275.684 196.830,275.470 196.616,275.177 196.574 C 274.912 196.536,274.645 196.310,274.582 196.070 C 274.496 195.741,274.272 195.635,273.664 195.635 C 273.018 195.635,272.860 195.550,272.860 195.203 C 272.860 194.929,272.680 194.745,272.369 194.699 C 272.028 194.650,271.821 194.403,271.688 193.890 C 271.584 193.484,271.351 193.095,271.172 193.027 C 270.598 192.807,270.708 188.770,271.293 188.584 C 271.710 188.452,271.740 188.246,271.740 185.563 C 271.740 182.747,271.752 182.682,272.244 182.612 C 272.697 182.548,272.754 182.398,272.815 181.131 C 272.864 180.094,272.997 179.605,273.318 179.284 C 273.668 178.934,273.755 178.536,273.755 177.280 C 273.755 175.863,273.798 175.713,274.203 175.713 C 274.604 175.713,274.650 175.564,274.650 174.274 C 274.650 172.952,274.691 172.829,275.154 172.763 C 275.605 172.699,275.664 172.549,275.724 171.316 C 275.779 170.171,275.863 169.921,276.227 169.826 C 276.602 169.728,276.665 169.513,276.665 168.317 C 276.665 167.118,276.743 166.851,277.224 166.405 C 277.710 165.955,277.784 165.694,277.784 164.446 C 277.784 163.195,277.843 162.992,278.232 162.890 C 278.615 162.790,278.679 162.584,278.679 161.462 C 278.679 160.317,278.743 160.123,279.183 159.930 C 279.616 159.740,279.696 159.513,279.753 158.310 C 279.811 157.094,279.877 156.911,280.257 156.911 C 280.646 156.911,280.694 156.750,280.694 155.456 C 280.694 154.300,280.786 153.909,281.142 153.553 C 281.470 153.225,281.589 152.807,281.589 151.987 C 281.589 151.133,281.670 150.867,281.931 150.867 C 282.415 150.867,282.708 149.934,282.708 148.391 C 282.708 147.211,282.759 147.062,283.156 147.062 C 283.536 147.062,283.604 146.913,283.604 146.070 C 283.604 145.212,283.672 145.069,284.107 145.007 C 284.514 144.949,284.625 144.771,284.681 144.082 C 284.720 143.612,284.947 143.033,285.185 142.795 C 285.689 142.291,285.806 139.953,285.350 139.496 C 285.141 139.287,285.205 139.228,285.641 139.228 C 286.397 139.228,286.738 138.835,286.738 137.960 C 286.738 137.458,286.878 137.154,287.185 136.989 C 287.575 136.781,287.633 136.521,287.633 134.967 C 287.633 133.333,287.670 133.184,288.081 133.184 C 288.462 133.184,288.528 133.035,288.528 132.177 C 288.528 131.252,288.574 131.170,289.088 131.170 C 289.528 131.170,289.647 131.056,289.647 130.636 C 289.647 130.291,289.805 130.061,290.095 129.986 C 290.477 129.886,290.543 129.680,290.543 128.595 C 290.543 127.535,290.613 127.304,290.966 127.212 C 291.385 127.102,291.662 126.307,291.662 125.212 C 291.662 124.920,291.863 124.556,292.110 124.402 C 292.480 124.171,292.557 123.880,292.557 122.722 C 292.557 121.470,292.605 121.321,293.005 121.321 C 293.406 121.321,293.453 121.171,293.453 119.881 C 293.453 118.559,293.494 118.436,293.956 118.370 C 294.373 118.311,294.472 118.138,294.528 117.371 C 294.579 116.672,294.703 116.414,295.031 116.328 C 295.372 116.239,295.467 116.018,295.467 115.314 C 295.467 114.550,295.544 114.402,295.971 114.341 C 296.399 114.281,296.485 114.113,296.542 113.231 C 296.586 112.550,296.759 112.056,297.045 111.797 C 297.391 111.485,297.482 111.106,297.482 109.982 C 297.482 108.607,297.500 108.562,298.056 108.562 C 298.873 108.562,299.496 108.171,299.496 107.659 C 299.496 107.417,299.641 107.219,299.817 107.219 C 300.395 107.219,300.501 106.282,299.972 105.854 C 299.296 105.306,299.274 103.414,299.944 103.414 C 300.346 103.414,300.392 103.264,300.392 101.959 C 300.392 100.556,300.412 100.504,300.951 100.504 C 301.465 100.504,301.511 100.422,301.511 99.496 C 301.511 98.638,301.577 98.489,301.959 98.489 C 302.340 98.489,302.406 98.340,302.406 97.482 C 302.406 96.643,302.477 96.475,302.830 96.475 C 303.298 96.475,303.525 96.059,303.525 95.204 C 303.525 94.830,303.675 94.603,303.973 94.525 C 304.221 94.460,304.421 94.220,304.421 93.986 C 304.421 93.618,304.599 93.565,305.822 93.565 C 306.981 93.565,307.271 93.487,307.503 93.117 C 307.747 92.725,308.027 92.669,309.739 92.666 C 311.792 92.662,312.085 92.580,312.320 91.942 C 312.448 91.597,312.804 91.550,315.291 91.550 C 317.929 91.550,318.125 91.520,318.234 91.102 C 318.335 90.715,318.539 90.655,319.741 90.655 C 320.934 90.655,321.205 90.576,321.656 90.095 C 322.166 89.553,322.273 89.536,325.165 89.536 C 327.999 89.536,328.148 89.513,328.148 89.088 C 328.148 88.656,328.297 88.640,332.399 88.640 C 336.407 88.640,336.666 88.615,336.929 88.193 C 337.296 87.606,367.991 87.471,367.991 88.057 C 367.991 88.528,368.509 88.640,370.680 88.640 C 372.465 88.640,372.676 88.685,372.804 89.088 C 372.926 89.474,373.142 89.536,374.386 89.536 C 375.649 89.536,375.825 89.587,375.825 89.959 C 375.825 90.442,376.242 90.655,377.187 90.655 C 377.691 90.655,377.840 90.757,377.840 91.102 C 377.840 91.474,377.989 91.550,378.720 91.550 C 379.462 91.550,379.611 91.629,379.671 92.054 C 379.717 92.377,379.923 92.583,380.246 92.629 C 380.570 92.675,380.750 92.855,380.750 93.133 C 380.750 93.410,380.904 93.565,381.182 93.565 C 381.460 93.565,381.640 93.745,381.686 94.068 C 381.732 94.392,381.937 94.597,382.261 94.643 C 382.697 94.705,382.764 94.849,382.764 95.707 C 382.764 96.400,382.899 96.833,383.212 97.146 C 383.508 97.442,383.660 97.892,383.660 98.474 C 383.660 99.190,383.754 99.384,384.163 99.514 C 384.439 99.602,384.767 99.812,384.891 99.982 C 385.341 100.598,386.711 100.614,387.283 100.010 C 387.568 99.709,387.977 99.398,388.193 99.319 C 388.832 99.084,388.779 94.684,388.137 94.684 C 387.791 94.684,387.689 94.535,387.689 94.031 C 387.689 93.086,387.476 92.669,386.993 92.669 C 386.713 92.669,386.570 92.511,386.570 92.201 C 386.570 91.920,386.390 91.685,386.122 91.615 C 385.876 91.551,385.674 91.320,385.674 91.102 C 385.674 90.885,385.479 90.656,385.240 90.593 C 385.001 90.531,384.653 90.115,384.466 89.668 C 384.214 89.065,383.958 88.823,383.466 88.724 C 383.077 88.647,382.758 88.417,382.693 88.168 C 382.629 87.923,382.385 87.745,382.114 87.745 C 381.834 87.745,381.645 87.601,381.645 87.388 C 381.645 87.192,381.443 86.978,381.195 86.914 C 380.948 86.849,380.685 86.556,380.611 86.263 C 380.529 85.937,380.313 85.730,380.054 85.730 C 379.789 85.730,379.631 85.573,379.631 85.309 C 379.631 84.823,379.054 84.619,377.672 84.614 C 377.022 84.612,376.579 84.469,376.273 84.163 C 376.027 83.917,375.574 83.716,375.266 83.716 C 374.867 83.716,374.706 83.595,374.706 83.294 C 374.706 82.884,374.147 82.606,373.307 82.600 C 373.092 82.598,372.714 82.395,372.468 82.149 C 372.083 81.764,371.722 81.701,369.894 81.701 C 367.916 81.701,367.767 81.670,367.767 81.253 C 367.767 80.818,367.618 80.806,362.283 80.806 C 357.052 80.806,356.799 80.786,356.799 80.382 C 356.799 79.748,356.415 79.687,352.434 79.687 C 348.454 79.687,348.069 79.748,348.069 80.382 C 348.069 80.789,347.781 80.806,340.683 80.806 C 333.445 80.806,333.296 80.815,333.296 81.253 C 333.296 81.687,333.147 81.701,328.491 81.701 C 324.029 81.701,323.671 81.731,323.463 82.119 C 323.280 82.460,322.860 82.567,321.185 82.698 C 318.849 82.881,318.523 82.967,318.523 83.404 C 318.523 83.660,317.736 83.716,314.137 83.716 C 309.939 83.716,309.746 83.735,309.634 84.163 C 309.537 84.534,309.329 84.611,308.424 84.611 C 307.480 84.611,307.331 84.550,307.331 84.163 C 307.331 83.818,307.480 83.716,307.984 83.716 C 309.066 83.716,309.345 83.508,309.345 82.703 C 309.345 82.296,309.219 81.912,309.065 81.849 C 308.842 81.759,308.842 81.733,309.065 81.719 C 309.245 81.707,309.345 81.341,309.345 80.694 C 309.345 79.855,309.416 79.687,309.769 79.687 C 310.251 79.687,310.464 79.270,310.464 78.325 C 310.464 77.821,310.567 77.672,310.912 77.672 C 311.293 77.672,311.360 77.523,311.360 76.665 C 311.360 75.911,311.446 75.658,311.701 75.658 C 312.132 75.658,312.479 74.764,312.479 73.655 C 312.479 72.988,312.578 72.774,312.927 72.683 C 313.282 72.590,313.374 72.377,313.374 71.649 C 313.374 70.882,313.447 70.733,313.822 70.733 C 314.180 70.733,314.270 70.584,314.270 69.986 C 314.270 69.405,314.395 69.181,314.829 68.983 C 315.303 68.767,315.389 68.577,315.389 67.742 C 315.389 66.944,315.474 66.734,315.837 66.639 C 316.218 66.539,316.284 66.334,316.284 65.250 C 316.284 64.210,316.374 63.905,316.776 63.579 C 317.206 63.231,317.280 62.912,317.362 61.045 C 317.445 59.144,317.504 58.895,317.900 58.792 C 318.595 58.610,318.420 54.858,317.683 54.173 C 317.406 53.915,317.180 53.557,317.180 53.377 C 317.180 53.148,316.927 53.050,316.337 53.050 C 315.679 53.050,315.447 52.940,315.274 52.546 C 314.979 51.875,310.331 51.648,309.704 52.275 M292.557 97.839 C 292.557 98.343,292.436 98.563,292.110 98.648 C 291.755 98.741,291.662 98.953,291.662 99.676 C 291.662 100.738,290.983 101.623,290.168 101.623 C 289.677 101.623,289.647 101.541,289.647 100.172 C 289.647 98.811,289.613 98.713,289.088 98.581 C 287.657 98.222,288.432 97.594,290.306 97.594 C 291.283 97.594,292.146 97.493,292.222 97.370 C 292.460 96.985,292.557 97.121,292.557 97.839 M179.743 110.998 C 179.743 112.120,179.677 112.332,179.301 112.430 C 178.990 112.512,178.817 112.810,178.716 113.444 C 178.484 114.896,177.728 114.912,177.728 113.465 C 177.728 112.516,177.789 112.367,178.176 112.367 C 178.557 112.367,178.623 112.218,178.623 111.360 C 178.623 110.502,178.690 110.353,179.071 110.353 C 179.320 110.353,179.519 110.203,179.519 110.017 C 179.519 109.832,179.569 109.681,179.631 109.681 C 179.692 109.681,179.743 110.274,179.743 110.998 M175.713 120.649 C 175.713 121.272,175.617 121.544,175.396 121.544 C 175.222 121.544,175.028 121.670,174.966 121.824 C 174.904 121.978,174.846 121.676,174.836 121.153 C 174.823 120.449,174.905 120.201,175.154 120.201 C 175.339 120.201,175.490 120.101,175.490 119.978 C 175.490 119.855,175.540 119.754,175.602 119.754 C 175.663 119.754,175.713 120.157,175.713 120.649 M174.818 122.861 C 174.818 123.313,174.687 123.541,174.381 123.621 C 174.047 123.709,173.908 124.009,173.789 124.908 C 173.673 125.781,173.528 126.108,173.219 126.189 C 172.968 126.254,172.804 126.499,172.804 126.805 C 172.804 127.117,172.638 127.355,172.373 127.425 C 172.109 127.494,171.906 127.785,171.847 128.178 C 171.795 128.531,171.736 128.046,171.718 127.100 C 171.686 125.476,171.712 125.377,172.188 125.309 C 172.512 125.263,172.717 125.058,172.763 124.734 C 172.809 124.411,172.989 124.231,173.267 124.231 C 173.573 124.231,173.699 124.075,173.699 123.697 C 173.699 123.352,173.857 123.122,174.147 123.047 C 174.393 122.982,174.594 122.769,174.594 122.573 C 174.594 122.377,174.645 122.216,174.706 122.216 C 174.768 122.216,174.818 122.506,174.818 122.861 M202.752 123.756 C 202.590 123.988,202.257 124.215,202.012 124.262 C 201.756 124.311,201.536 124.560,201.495 124.848 C 201.435 125.270,201.285 125.350,200.544 125.350 C 199.905 125.350,199.664 125.443,199.664 125.691 C 199.664 125.879,199.412 126.128,199.105 126.245 C 198.762 126.375,198.545 126.634,198.545 126.911 C 198.545 127.206,198.398 127.364,198.123 127.364 C 197.890 127.364,197.650 127.564,197.585 127.812 C 197.515 128.080,197.280 128.260,196.999 128.260 C 196.685 128.260,196.530 128.402,196.530 128.692 C 196.530 128.930,196.329 129.189,196.083 129.267 C 195.837 129.345,195.635 129.597,195.635 129.826 C 195.635 130.088,195.448 130.270,195.132 130.315 C 194.808 130.361,194.602 130.566,194.556 130.890 C 194.510 131.213,194.330 131.393,194.053 131.393 C 193.775 131.393,193.621 131.548,193.621 131.826 C 193.621 132.064,193.419 132.322,193.173 132.401 C 192.864 132.499,192.682 132.815,192.585 133.423 C 192.479 134.084,192.340 134.303,192.025 134.303 C 191.755 134.303,191.606 134.463,191.606 134.751 C 191.606 135.049,191.457 135.199,191.158 135.199 C 190.777 135.199,190.711 135.348,190.711 136.206 C 190.711 137.045,190.640 137.213,190.287 137.213 C 189.813 137.213,189.591 137.629,189.591 138.521 C 189.591 138.878,189.410 139.233,189.144 139.400 C 188.838 139.591,188.696 139.922,188.696 140.445 C 188.696 141.069,188.603 141.224,188.193 141.283 C 187.785 141.341,187.675 141.519,187.618 142.218 C 187.566 142.849,187.430 143.113,187.114 143.196 C 186.754 143.290,186.682 143.511,186.682 144.509 C 186.682 145.542,186.604 145.760,186.122 146.075 C 185.630 146.398,185.562 146.601,185.562 147.759 C 185.562 148.927,185.512 149.077,185.115 149.077 C 184.694 149.077,184.667 149.226,184.667 151.513 C 184.667 153.761,184.632 153.958,184.219 154.066 C 183.798 154.176,183.772 154.371,183.772 157.330 C 183.772 160.248,183.804 160.494,184.219 160.716 C 184.614 160.927,184.667 161.185,184.667 162.872 C 184.667 164.559,184.717 164.800,185.088 164.897 C 185.411 164.982,185.535 165.275,185.619 166.155 C 185.700 166.998,185.856 167.385,186.206 167.618 C 186.467 167.792,186.682 168.123,186.682 168.354 C 186.682 168.616,186.840 168.774,187.101 168.774 C 187.418 168.774,187.555 168.997,187.667 169.692 C 187.771 170.344,187.941 170.644,188.255 170.726 C 188.497 170.789,188.696 171.031,188.696 171.263 C 188.696 171.495,188.798 171.684,188.921 171.684 C 189.045 171.684,189.366 171.936,189.633 172.244 C 189.901 172.552,190.351 172.804,190.634 172.804 C 190.935 172.804,191.300 173.035,191.515 173.363 C 191.716 173.671,192.014 173.923,192.176 173.923 C 192.339 173.923,192.535 174.124,192.613 174.370 C 192.724 174.718,192.952 174.818,193.636 174.818 C 194.367 174.818,194.516 174.894,194.516 175.266 C 194.516 175.646,194.665 175.713,195.508 175.713 C 196.285 175.713,196.530 175.805,196.635 176.137 C 196.811 176.692,197.381 176.826,199.593 176.830 C 201.258 176.832,201.438 176.876,201.574 177.304 C 201.773 177.929,204.672 177.857,205.141 177.216 C 205.326 176.964,205.731 176.833,206.325 176.833 C 206.996 176.833,207.363 176.690,207.755 176.277 C 208.163 175.847,208.510 175.720,209.291 175.717 C 210.056 175.714,210.369 175.605,210.580 175.266 C 210.800 174.913,211.102 174.818,211.998 174.818 C 212.948 174.818,213.156 174.744,213.254 174.370 C 213.324 174.101,213.560 173.922,213.848 173.920 C 214.742 173.914,215.333 173.649,215.333 173.254 C 215.333 172.968,215.578 172.822,216.228 172.718 C 216.785 172.629,217.124 172.454,217.124 172.257 C 217.124 172.082,217.350 171.907,217.627 171.868 C 217.951 171.822,218.157 171.616,218.202 171.293 C 218.263 170.866,218.411 170.789,219.175 170.789 C 219.879 170.789,220.100 170.694,220.189 170.354 C 220.252 170.115,220.519 169.888,220.784 169.850 C 221.081 169.808,221.291 169.594,221.335 169.291 C 221.390 168.902,221.577 168.786,222.230 168.731 C 223.034 168.664,223.057 168.637,223.126 167.676 C 223.178 166.950,223.340 166.576,223.742 166.261 C 224.041 166.025,224.287 165.638,224.287 165.401 C 224.287 165.151,224.440 164.969,224.653 164.969 C 224.854 164.969,225.252 164.717,225.537 164.410 C 225.829 164.095,226.305 163.850,226.626 163.850 C 227.041 163.850,227.196 163.732,227.196 163.417 C 227.196 163.180,227.398 162.921,227.644 162.843 C 227.890 162.765,228.092 162.506,228.092 162.268 C 228.092 162.030,228.239 161.835,228.420 161.835 C 228.600 161.835,228.854 161.637,228.983 161.395 C 229.322 160.761,230.154 159.923,230.610 159.755 C 230.825 159.676,231.002 159.469,231.002 159.294 C 231.002 159.120,231.211 158.923,231.466 158.856 C 231.721 158.790,231.985 158.526,232.052 158.271 C 232.120 158.008,232.356 157.806,232.595 157.806 C 232.867 157.806,233.016 157.648,233.016 157.359 C 233.016 157.030,233.165 156.911,233.576 156.911 C 233.975 156.911,234.135 156.790,234.135 156.489 C 234.135 156.258,234.329 156.017,234.566 155.955 C 235.051 155.828,235.339 154.514,235.216 152.994 L 235.143 152.098 233.695 152.031 C 231.831 151.943,231.226 152.098,231.226 152.662 C 231.226 152.951,231.075 153.106,230.793 153.106 C 230.555 153.106,230.296 153.307,230.218 153.553 C 230.140 153.800,229.905 154.001,229.697 154.001 C 229.488 154.001,229.218 154.228,229.096 154.505 C 228.942 154.856,228.647 155.030,228.123 155.080 C 227.605 155.130,227.335 155.287,227.257 155.584 C 227.195 155.821,226.954 156.016,226.723 156.016 C 226.450 156.016,226.301 156.174,226.301 156.463 C 226.301 156.765,226.152 156.911,225.843 156.911 C 225.591 156.911,225.134 157.163,224.826 157.471 C 224.518 157.778,224.069 158.030,223.829 158.030 C 223.540 158.030,223.391 158.183,223.391 158.478 C 223.391 158.806,223.242 158.926,222.832 158.926 C 222.384 158.926,222.272 159.037,222.272 159.485 C 222.272 159.991,222.184 160.045,221.356 160.045 C 220.628 160.045,220.415 160.137,220.322 160.492 C 220.257 160.740,220.017 160.940,219.784 160.940 C 219.552 160.940,219.362 161.075,219.362 161.240 C 219.362 161.580,218.440 162.059,217.785 162.059 C 217.497 162.059,217.348 162.212,217.348 162.507 C 217.348 162.869,217.198 162.955,216.572 162.955 C 216.025 162.955,215.726 163.087,215.557 163.402 C 215.425 163.649,215.119 163.850,214.877 163.850 C 214.558 163.850,214.438 164.003,214.438 164.410 C 214.438 164.924,214.356 164.969,213.430 164.969 C 212.582 164.969,212.423 165.038,212.423 165.404 C 212.423 165.756,212.241 165.852,211.472 165.908 C 210.681 165.965,210.508 166.061,210.449 166.480 C 210.387 166.916,210.244 166.984,209.386 166.984 C 208.565 166.984,208.394 167.056,208.394 167.404 C 208.394 167.752,208.180 167.841,207.136 167.928 C 206.276 167.999,205.811 168.150,205.669 168.403 C 205.533 168.648,205.170 168.774,204.609 168.774 C 202.841 168.774,201.721 169.035,201.607 169.474 C 201.437 170.121,196.530 170.117,196.530 169.470 C 196.530 169.205,196.321 168.994,195.971 168.906 C 195.663 168.829,195.411 168.607,195.411 168.414 C 195.411 168.220,195.210 168.008,194.964 167.944 C 194.716 167.879,194.516 167.639,194.516 167.405 C 194.516 167.137,194.358 166.984,194.081 166.984 C 193.730 166.984,193.633 166.802,193.578 166.032 C 193.520 165.242,193.424 165.069,193.005 165.010 C 192.574 164.948,192.501 164.802,192.501 164.000 C 192.501 163.305,192.386 162.990,192.054 162.783 C 191.655 162.534,191.606 162.261,191.606 160.293 C 191.606 158.271,191.644 158.072,192.054 157.965 C 192.458 157.860,192.501 157.660,192.501 155.925 C 192.501 154.187,192.542 154.001,192.925 154.001 C 193.423 154.001,193.621 153.583,193.621 152.528 C 193.621 152.026,193.727 151.763,193.930 151.763 C 194.250 151.763,194.508 151.109,194.513 150.283 C 194.515 149.900,194.622 149.831,195.076 149.917 C 195.437 149.986,195.635 150.174,195.635 150.446 C 195.635 150.678,195.767 150.867,195.927 150.867 C 196.088 150.867,196.561 151.119,196.978 151.427 C 197.395 151.735,197.919 151.987,198.141 151.987 C 198.387 151.987,198.545 152.151,198.545 152.408 C 198.545 152.894,199.121 153.098,200.504 153.103 C 201.153 153.105,201.597 153.248,201.903 153.553 C 202.281 153.932,202.649 154.001,204.274 154.001 C 206.009 154.001,206.209 153.957,206.315 153.553 C 206.408 153.194,206.620 153.106,207.382 153.106 C 208.076 153.106,208.477 152.965,208.867 152.584 C 209.161 152.298,209.580 151.998,209.798 151.918 C 210.016 151.838,210.260 151.602,210.341 151.393 C 210.421 151.184,210.670 150.830,210.895 150.605 C 211.120 150.380,211.304 149.944,211.304 149.636 C 211.304 149.189,211.416 149.077,211.863 149.077 C 212.304 149.077,212.423 148.963,212.423 148.543 C 212.423 148.198,212.581 147.968,212.871 147.893 C 213.206 147.805,213.318 147.587,213.318 147.024 C 213.318 146.460,213.444 146.218,213.822 146.052 C 214.192 145.890,214.344 145.609,214.395 144.992 C 214.450 144.334,214.559 144.152,214.899 144.152 C 215.264 144.152,215.333 143.993,215.333 143.145 C 215.333 142.287,215.399 142.138,215.781 142.138 C 216.158 142.138,216.228 141.988,216.228 141.183 C 216.228 140.409,216.323 140.188,216.732 140.008 C 217.166 139.818,217.245 139.591,217.303 138.377 C 217.352 137.341,217.485 136.852,217.806 136.531 C 218.486 135.851,218.476 129.379,217.795 129.379 C 217.479 129.379,217.348 129.230,217.348 128.872 C 217.348 128.562,217.153 128.280,216.844 128.145 C 216.536 128.009,216.297 127.664,216.227 127.252 C 216.134 126.700,215.967 126.545,215.292 126.378 C 214.795 126.255,214.429 126.012,214.364 125.762 C 214.302 125.527,214.054 125.350,213.787 125.350 C 213.476 125.350,213.318 125.207,213.318 124.926 C 213.318 124.444,212.902 124.231,211.957 124.231 C 211.453 124.231,211.304 124.128,211.304 123.783 C 211.304 123.110,203.223 123.084,202.752 123.756 M171.580 130.248 C 171.453 130.296,171.223 130.434,171.069 130.556 C 170.856 130.724,170.789 130.587,170.789 129.982 C 170.789 129.405,170.896 129.166,171.181 129.110 C 171.615 129.023,171.991 130.095,171.580 130.248 M170.789 131.617 C 170.789 132.140,170.690 132.289,170.341 132.289 C 169.940 132.289,169.894 132.438,169.894 133.728 C 169.894 135.050,169.853 135.173,169.390 135.239 C 168.938 135.303,168.880 135.453,168.820 136.710 L 168.753 138.109 167.991 138.109 C 167.502 138.109,167.148 138.249,167.002 138.500 C 166.817 138.817,166.772 138.731,166.767 138.053 C 166.761 137.376,166.842 137.213,167.184 137.213 C 167.662 137.213,167.879 136.797,167.879 135.878 C 167.879 135.439,168.014 135.216,168.327 135.134 C 168.681 135.041,168.774 134.828,168.774 134.116 C 168.774 133.424,168.874 133.183,169.204 133.078 C 169.490 132.987,169.683 132.650,169.781 132.069 C 169.872 131.528,170.071 131.158,170.303 131.097 C 170.509 131.042,170.702 130.986,170.733 130.972 C 170.764 130.957,170.789 131.248,170.789 131.617 M209.513 132.736 C 209.513 134.259,209.497 134.303,208.954 134.303 C 208.452 134.303,208.394 134.394,208.394 135.184 C 208.394 135.867,208.294 136.096,207.946 136.206 C 207.600 136.316,207.499 136.545,207.499 137.213 C 207.499 137.939,207.418 138.089,206.995 138.149 C 206.665 138.196,206.466 138.401,206.417 138.742 C 206.377 139.029,206.150 139.457,205.914 139.693 C 205.677 139.930,205.484 140.375,205.484 140.683 C 205.484 141.087,205.364 141.242,205.051 141.242 C 204.814 141.242,204.555 141.444,204.477 141.690 C 204.399 141.936,204.188 142.138,204.008 142.138 C 203.829 142.138,203.587 142.389,203.470 142.697 C 203.352 143.005,203.103 143.257,202.915 143.257 C 202.723 143.257,202.574 143.453,202.574 143.705 C 202.574 144.033,202.425 144.152,202.015 144.152 C 201.604 144.152,201.455 144.272,201.455 144.600 C 201.455 144.981,201.306 145.048,200.448 145.048 L 199.440 145.048 199.440 142.585 C 199.440 140.280,199.469 140.123,199.884 140.123 C 200.165 140.123,200.377 139.927,200.462 139.585 C 200.537 139.289,200.790 138.996,201.026 138.934 C 201.262 138.872,201.455 138.651,201.455 138.442 C 201.455 138.232,201.695 137.872,201.989 137.641 C 202.283 137.409,202.587 136.967,202.665 136.657 C 202.757 136.291,202.963 136.094,203.252 136.094 C 203.497 136.094,203.870 135.893,204.081 135.646 C 204.292 135.400,204.591 135.199,204.745 135.199 C 204.900 135.199,205.191 134.947,205.393 134.639 C 205.594 134.331,205.899 134.079,206.069 134.079 C 206.240 134.079,206.379 133.878,206.379 133.632 C 206.379 133.339,206.529 133.184,206.812 133.184 C 207.050 133.184,207.305 132.994,207.379 132.761 C 207.453 132.528,207.712 132.285,207.954 132.222 C 208.215 132.154,208.394 131.916,208.394 131.638 C 208.394 131.288,208.535 131.170,208.954 131.170 C 209.497 131.170,209.513 131.214,209.513 132.736 M166.341 141.662 C 166.097 141.905,165.689 142.216,165.434 142.352 C 165.077 142.543,164.968 142.821,164.966 143.545 C 164.962 144.592,164.820 144.899,164.242 145.113 C 163.995 145.204,163.850 145.492,163.850 145.891 C 163.850 146.501,163.507 147.062,163.134 147.062 C 163.035 147.062,162.955 146.609,162.955 146.055 C 162.955 145.197,163.021 145.048,163.402 145.048 C 163.784 145.048,163.850 144.898,163.850 144.040 C 163.850 143.182,163.916 143.033,164.298 143.033 C 164.669 143.033,164.745 142.884,164.745 142.153 C 164.745 141.411,164.824 141.262,165.249 141.202 C 165.666 141.143,165.764 140.970,165.821 140.193 C 165.869 139.525,165.998 139.235,166.268 139.182 C 166.873 139.064,166.931 141.071,166.341 141.662 M158.926 155.568 C 158.926 155.891,158.785 156.008,158.422 155.990 C 158.043 155.970,158.015 155.938,158.310 155.861 C 158.525 155.805,158.702 155.615,158.702 155.440 C 158.702 155.264,158.752 155.120,158.814 155.120 C 158.875 155.120,158.926 155.322,158.926 155.568 M27.308 200.000 C 27.308 200.390,27.190 200.554,26.917 200.542 C 26.683 200.531,26.638 200.479,26.805 200.411 C 26.959 200.349,27.084 200.105,27.084 199.869 C 27.084 199.633,27.135 199.440,27.196 199.440 C 27.258 199.440,27.308 199.692,27.308 200.000 " stroke="none" fill="#0c1c14" fill-rule="evenodd"></path><path id="path1" d="" stroke="none" fill="#0c1c1c" fill-rule="evenodd"></path><path id="path2" d="" stroke="none" fill="#101c14" fill-rule="evenodd"></path><path id="path3" d="" stroke="none" fill="#101c14" fill-rule="evenodd"></path><path id="path4" d="" stroke="none" fill="#101c14" fill-rule="evenodd"></path></g></svg>